<svg width="32" height="32" viewBox="0 0 32 32" fill="none" xmlns="http://www.w3.org/2000/svg">
<g clip-path="url(#clip0_136_1893)">
<path d="M9.59852 9.87314C8.18959 10.1008 7.10466 10.743 6.03048 11.3835C4.93263 12.038 3.84608 12.6908 2.43648 12.8971C3.38482 17.7176 4.6245 21.9903 5.61231 25.9002C7.14436 25.8669 8.04571 25.6376 9.33117 24.9787C10.2498 24.5078 10.8858 24.2795 11.9666 24.1773C11.2598 19.9082 10.4751 15.1678 9.59852 9.87314Z" fill="white"/>
<path d="M9.60296 9.87207C8.19403 10.0997 7.1091 10.742 6.03492 11.3824C4.93707 12.037 3.85052 12.6897 2.44092 12.896C2.54921 13.4618 2.6027 13.7322 2.70877 14.2525C5.4933 13.8315 6.99023 11.6787 9.8207 11.1873C9.73502 10.6698 9.69152 10.407 9.60296 9.87207Z" fill="#D51E25"/>
<path d="M10.0309 12.4484C7.22653 12.9513 5.74498 15.0762 2.97007 15.4912C3.07222 15.9629 3.12288 16.1899 3.2236 16.6307C5.98411 16.2373 7.45881 14.158 10.2315 13.6606C10.1523 13.1822 10.1122 12.9399 10.0309 12.4484Z" fill="#D51E25"/>
<path d="M10.4238 14.8297C7.68722 15.3093 6.2131 17.3283 3.47097 17.6896C3.5692 18.0975 3.61809 18.2957 3.71584 18.6848C6.43587 18.3631 7.91349 16.4138 10.6113 15.9621C10.5371 15.5138 10.4996 15.2875 10.4238 14.8297Z" fill="#D51E25"/>
<path d="M10.7918 17.0616C9.51967 17.2615 8.51653 17.7952 7.52066 18.3277C6.43657 18.9074 5.36105 19.4858 3.95628 19.6304C4.05216 19.9993 4.10008 20.1806 4.19602 20.541C5.59217 20.4194 6.66566 19.8698 7.7467 19.3189C8.73142 18.8171 9.72241 18.3142 10.9692 18.133C10.8988 17.7074 10.8633 17.4933 10.7918 17.0616Z" fill="#D51E25"/>
<path d="M11.1395 19.1809C9.91704 19.3432 8.93792 19.8159 7.96398 20.2879C6.88733 20.8096 5.81695 21.3302 4.43124 21.4292C4.52584 21.7798 4.57346 21.9543 4.66846 22.3056C6.04314 22.2279 7.10936 21.7348 8.18082 21.2409C9.14363 20.7971 10.1107 20.3526 11.3096 20.2081C11.2418 19.7989 11.2078 19.5937 11.1395 19.1809Z" fill="#D51E25"/>
<path d="M11.4832 21.2187C10.3288 21.3451 9.63065 21.5905 8.66034 22.1232C7.36734 22.8333 6.47778 23.1136 4.91145 23.1818C5.00554 23.5318 5.05279 23.7082 5.14753 24.0668C6.7006 24.0156 7.59609 23.7573 8.88862 23.071C9.84271 22.5645 10.5203 22.3286 11.6481 22.2148C11.5822 21.8168 11.5492 21.6178 11.4832 21.2187Z" fill="#D51E25"/>
<path d="M11.8049 23.2004C10.7017 23.3059 10.0448 23.5358 9.10788 24.0214C7.81784 24.6902 6.91846 24.9314 5.37703 24.9705C5.47085 25.335 5.51789 25.5203 5.61231 25.9002C7.14436 25.8669 8.04571 25.6376 9.33117 24.9787C10.2498 24.5078 10.8858 24.2795 11.9666 24.1773C11.9018 23.7861 11.8695 23.5908 11.8049 23.2004Z" fill="#D51E25"/>
<path d="M9.38342 23.0872C9.38342 23.0872 11.0745 23.185 11.9453 24.042L11.7593 22.9182C11.7593 22.9182 10.5279 22.0046 9.17671 22.0603L9.38342 23.0872Z" fill="#B21D23"/>
<mask id="mask0_136_1893" style="mask-type:luminance" maskUnits="userSpaceOnUse" x="8" y="9" width="4" height="16">
<path d="M11.914 22.6477C11.8275 22.7791 11.7483 22.9064 11.6744 23.0326C11.7482 22.9064 11.8275 22.7791 11.914 22.6477ZM8.10095 9.88413C8.10086 9.88429 8.10077 9.88444 8.10067 9.8846C8.10077 9.88444 8.10083 9.88434 8.10095 9.88413Z" fill="white"/>
</mask>
<g mask="url(#mask0_136_1893)">
<path d="M11.914 22.6477C11.8275 22.7791 11.7483 22.9064 11.6744 23.0326C11.7482 22.9064 11.8275 22.7791 11.914 22.6477ZM8.10095 9.88413C8.10086 9.88429 8.10077 9.88444 8.10067 9.8846C8.10077 9.88444 8.10083 9.88434 8.10095 9.88413Z" fill="url(#paint0_radial_136_1893)"/>
</g>
<path d="M8.34556 24.3854C8.58988 24.2811 8.84168 24.1604 9.11059 24.0209C9.71288 23.7088 10.1993 23.5023 10.7632 23.3665C10.0516 23.1258 9.38511 23.0873 9.38511 23.0873L9.33588 22.8427C9.19096 22.9119 9.04169 22.9878 8.88503 23.071C8.66277 23.189 8.45238 23.2943 8.24821 23.3881L8.34556 24.3854ZM11.761 22.9183C11.7224 22.6851 11.6835 22.4507 11.6445 22.2147C11.4381 22.2355 11.247 22.2604 11.0663 22.2904C10.9461 22.3103 10.8306 22.3323 10.7185 22.357C11.3392 22.6053 11.761 22.9183 11.761 22.9183ZM8.15068 22.3886C8.31372 22.3077 8.48155 22.2194 8.65675 22.1232C9.46904 21.6772 10.0905 21.4326 10.9486 21.2906C11.1155 21.2629 11.2916 21.2392 11.4796 21.2186C11.4243 20.8845 11.3685 20.5479 11.3123 20.2083C11.2126 20.2204 11.1145 20.2344 11.0178 20.2505C9.95255 20.4268 9.06629 20.8343 8.18357 21.2412C8.13733 21.2624 8.09116 21.2838 8.0449 21.305L8.15068 22.3886ZM7.9466 20.2979C7.95334 20.2947 7.96006 20.2914 7.96673 20.2882C8.88334 19.844 9.80452 19.3992 10.9289 19.213C10.9992 19.2014 11.0703 19.1907 11.1423 19.1812C11.0849 18.8347 11.0271 18.4858 10.9689 18.1336C10.925 18.14 10.8813 18.1468 10.8381 18.154C9.69383 18.3434 8.76357 18.8018 7.8462 19.2687L7.9466 20.2979ZM7.7428 18.2096C8.6527 17.7258 9.58474 17.2618 10.7373 17.071C10.7552 17.068 10.7734 17.0651 10.7915 17.0622C10.7313 16.6985 10.6706 16.3321 10.6094 15.9624C9.46021 16.1548 8.53251 16.619 7.63581 17.1133L7.7428 18.2096ZM7.52446 15.9724C8.39448 15.48 9.30265 15.0262 10.4219 14.8301C10.358 14.4437 10.2934 14.0535 10.2283 13.6606C9.14035 13.8558 8.2524 14.2945 7.40804 14.7794L7.52446 15.9724ZM7.28576 13.5269C8.10541 13.0561 8.97299 12.6376 10.0277 12.4485C9.95872 12.0321 9.8891 11.6115 9.81897 11.1879C8.79935 11.3649 7.95297 11.7574 7.15694 12.207L7.28576 13.5269Z" fill="#D3D2D0"/>
<path d="M7.15884 12.2071C7.95487 11.7575 8.80125 11.3651 9.82086 11.188C9.74889 10.7533 9.67636 10.3152 9.60312 9.87279C9.60122 9.87311 9.59938 9.87341 9.59748 9.87372C9.597 9.8738 9.59632 9.87392 9.59585 9.87399C9.59455 9.87421 9.5934 9.8744 9.59217 9.8746C9.59074 9.87484 9.58945 9.87505 9.58809 9.87528C9.58782 9.87532 9.58768 9.87535 9.58748 9.87538C9.58448 9.87588 9.58149 9.87637 9.57849 9.87687C8.61164 10.0369 7.79198 10.3965 7.02297 10.8151L7.15884 12.2071Z" fill="#AC1C22"/>
<path d="M7.41061 14.7792C8.25497 14.2943 9.14292 13.8557 10.2309 13.6604C10.1646 13.2597 10.0977 12.8559 10.0302 12.4483C8.97556 12.6374 8.10798 13.0559 7.28833 13.5267L7.41061 14.7792Z" fill="#AC1C22"/>
<path d="M7.63904 17.1134C8.53574 16.6191 9.46344 16.1549 10.6126 15.9625C10.5507 15.5881 10.4882 15.2108 10.4252 14.8302C9.30588 15.0263 8.39772 15.4801 7.52769 15.9725L7.63904 17.1134Z" fill="#AC1C22"/>
<path d="M7.84806 19.2688C8.76544 18.8019 9.6957 18.3435 10.8399 18.1541C10.8832 18.1469 10.9268 18.1401 10.9707 18.1337C10.9121 17.7797 10.8529 17.4222 10.7933 17.0623C10.7752 17.0652 10.7571 17.0681 10.7391 17.0711C9.58661 17.2619 8.65456 17.7259 7.74466 18.2097L7.84806 19.2688Z" fill="#AC1C22"/>
<path d="M8.04146 21.3048C8.08772 21.2836 8.13389 21.2622 8.18014 21.2409C9.06286 20.834 9.94912 20.4266 11.0144 20.2502C11.111 20.2342 11.2092 20.2201 11.3089 20.2081C11.2526 19.8684 11.196 19.5263 11.1388 19.181C11.0669 19.1905 10.9957 19.2012 10.9255 19.2128C9.80108 19.3989 8.87991 19.8438 7.9633 20.2879C7.95663 20.2911 7.9499 20.2944 7.94317 20.2976L8.04146 21.3048Z" fill="#AC1C22"/>
<path d="M8.24743 23.3881C8.45161 23.2943 8.662 23.189 8.88426 23.071C9.04091 22.9878 9.19018 22.9119 9.3351 22.8427L9.17762 22.0604C9.73801 22.0373 10.2778 22.1809 10.7177 22.3569C10.8298 22.3323 10.9453 22.3103 11.0655 22.2903C11.2462 22.2604 11.4374 22.2355 11.6437 22.2147C11.5892 21.8855 11.5342 21.5531 11.4788 21.2186C11.2908 21.2391 11.1147 21.2629 10.9478 21.2905C10.0897 21.4326 9.46826 21.6772 8.65597 22.1232C8.48078 22.2193 8.31295 22.3077 8.14991 22.3886L8.24743 23.3881Z" fill="#AC1C22"/>
<path d="M8.44329 25.3885C8.72655 25.2755 9.01836 25.14 9.33372 24.9784C9.33817 24.9762 9.34248 24.9739 9.34694 24.9717C9.34899 24.9706 9.35112 24.9695 9.35319 24.9685C9.35898 24.9655 9.36478 24.9625 9.37059 24.9596C10.0938 24.5909 10.6453 24.3742 11.3885 24.251C11.3889 24.251 11.3891 24.251 11.3894 24.2509C11.3895 24.2509 11.3896 24.2509 11.3897 24.2509C11.5559 24.2233 11.7314 24.2005 11.9207 24.1817C11.9367 24.1801 11.9529 24.1786 11.9691 24.177C11.9617 24.1322 11.9543 24.0872 11.9468 24.0423C11.6227 23.7233 11.185 23.5095 10.7631 23.3668C10.1992 23.5025 9.71272 23.709 9.11043 24.0211C8.84153 24.1606 8.58973 24.2813 8.3454 24.3856L8.44329 25.3885Z" fill="#AC1C22"/>
<mask id="mask1_136_1893" style="mask-type:luminance" maskUnits="userSpaceOnUse" x="6" y="10" width="1" height="1">
<path d="M6.85523 10.9165C6.90121 10.8806 6.94742 10.8449 6.99419 10.8094L6.99173 10.8057L6.85523 10.9165Z" fill="white"/>
</mask>
<g mask="url(#mask1_136_1893)">
<path d="M6.85523 10.9165C6.90121 10.8806 6.94742 10.8449 6.99419 10.8094L6.99173 10.8057L6.85523 10.9165Z" fill="url(#paint1_radial_136_1893)"/>
</g>
<path d="M6.58876 11.0573C6.73083 10.9751 6.87414 10.8941 7.01913 10.8151L7.01887 10.8123C6.955 10.8471 6.89161 10.8822 6.82834 10.9176L6.58876 11.0573Z" fill="#AC1C22"/>
<path d="M11.9453 24.042C11.8839 23.6708 11.8219 23.2965 11.7593 22.9182C11.7593 22.9182 11.3375 22.6053 10.7168 22.3569C10.2769 22.1808 9.73709 22.0372 9.17671 22.0603L9.33419 22.8426L9.38342 23.0872C9.38342 23.0872 10.0499 23.1257 10.7616 23.3665C11.1834 23.5092 11.6212 23.723 11.9453 24.042Z" fill="#91191E"/>
<path d="M25.6537 7.452C22.8326 7.9621 19.9182 7.65374 17.0718 7.61697C13.5043 7.57096 10.0871 7.876 6.7671 9.26946C7.62464 13.8785 8.46026 18.4914 9.38644 23.0873C14.4252 21.6873 20.3092 21.0177 25.4403 22.3879C25.4769 17.4088 25.5349 12.4298 25.6537 7.452Z" fill="white"/>
<path d="M25.6546 7.4515C22.8335 7.9616 19.9191 7.65324 17.0727 7.61647C13.5052 7.57046 10.088 7.8755 6.76803 9.26896C6.85945 9.7591 6.90415 9.99951 6.99187 10.4724C13.1172 7.87426 19.3155 9.52458 25.6313 8.43473C25.6404 8.03427 25.645 7.83749 25.6546 7.4515Z" fill="#D51E25"/>
<path d="M25.6046 9.45384C19.36 10.4428 13.2275 9.07971 7.20302 11.6357C7.28765 12.0933 7.32923 12.3183 7.41132 12.7622C13.3464 10.2744 19.4057 11.3643 25.5836 10.5051C25.5918 10.0783 25.596 9.86785 25.6046 9.45384Z" fill="#D51E25"/>
<path d="M25.5636 11.5864C19.4558 12.2905 13.4601 11.4481 7.61405 13.8566C7.69395 14.289 7.73355 14.5025 7.812 14.9253C13.5722 12.6145 19.5104 13.2186 25.5449 12.6977C25.5522 12.2477 25.5559 12.0252 25.5636 11.5864Z" fill="#D51E25"/>
<path d="M25.5318 13.8366C19.5734 14.1553 13.6925 13.7807 8.01129 15.9726C8.08872 16.3876 8.12716 16.5931 8.20403 17.0022C13.8008 14.9364 19.645 15.0959 25.5153 14.9995C25.5217 14.5296 25.5249 14.2969 25.5318 13.8366Z" fill="#D51E25"/>
<path d="M25.5012 16.1851C19.7278 16.0481 13.9107 16.0908 8.39716 18.0192C8.47388 18.4243 8.51229 18.6259 8.58956 19.0289C14.0184 17.248 19.8217 17.0105 25.4871 17.3919C25.4925 16.9053 25.4954 16.6637 25.5012 16.1851Z" fill="#D51E25"/>
<path d="M25.472 18.6178C19.9226 17.9869 14.1283 18.414 8.78136 20.0359C8.85959 20.4387 8.89888 20.6402 8.97843 21.0447C14.2372 19.5816 20.0415 18.978 25.4603 19.8602C25.4648 19.3601 25.4671 19.1115 25.472 18.6178Z" fill="#D51E25"/>
<path d="M25.4518 21.1179C20.1731 19.9874 14.3518 20.7596 9.1819 22.0603C9.26339 22.4685 9.30467 22.6736 9.38861 23.0873C14.4695 21.9481 20.3114 21.0177 25.4425 22.3879C25.446 21.8776 25.4478 21.6235 25.4518 21.1179Z" fill="#D51E25"/>
<path d="M25.6551 7.45163C21.2611 8.12265 17.124 7.10725 12.3611 7.83284C12.698 10.5482 13.0052 13.2264 13.3135 15.9452C17.3688 15.3282 21.4219 15.3579 25.5112 15.3371C25.5471 12.7083 25.5924 10.0798 25.6551 7.45163Z" fill="#1F3259"/>
<path d="M24.6959 7.87458C24.7362 7.97723 24.7563 8.02866 24.7961 8.13202C24.9288 8.11613 24.9946 8.10762 25.125 8.0891C25.0185 8.17119 24.965 8.21178 24.8575 8.29236C24.8969 8.39627 24.9165 8.44847 24.9555 8.55337C24.8506 8.49888 24.7977 8.47142 24.6908 8.41607C24.5826 8.4957 24.5282 8.53512 24.4192 8.61343C24.4613 8.49978 24.4824 8.44302 24.5246 8.32999C24.4165 8.27393 24.3619 8.24563 24.2519 8.18849C24.3881 8.17642 24.4558 8.16977 24.5899 8.1554C24.6322 8.04269 24.6534 7.98661 24.6959 7.87458Z" fill="white"/>
<path d="M22.7309 8.00051C22.7777 8.10761 22.8011 8.16121 22.8473 8.26869C22.9916 8.26424 23.0633 8.26166 23.2056 8.25557C23.0913 8.3277 23.0339 8.36356 22.9188 8.43505C22.9648 8.54277 22.9875 8.59675 23.033 8.70485C22.9169 8.64143 22.8584 8.60946 22.7406 8.54515C22.625 8.61636 22.567 8.65189 22.4508 8.72272C22.4935 8.61143 22.5149 8.55594 22.5577 8.44533C22.4388 8.38036 22.3788 8.34765 22.2582 8.28177C22.4054 8.27964 22.4785 8.27823 22.6237 8.27481C22.6666 8.16474 22.6879 8.10989 22.7309 8.00051Z" fill="white"/>
<path d="M20.6152 8.00101C20.6676 8.11326 20.694 8.16923 20.746 8.28134C20.8992 8.28309 20.9756 8.28388 21.1274 8.28496C21.0071 8.35269 20.9469 8.38678 20.8261 8.45487C20.8779 8.56695 20.9037 8.62301 20.9549 8.73512C20.8295 8.66549 20.7663 8.63045 20.6394 8.56001C20.5184 8.62835 20.4578 8.66271 20.3365 8.73138C20.3788 8.61895 20.4002 8.5627 20.4427 8.45088C20.3149 8.37998 20.2506 8.34434 20.1213 8.27256C20.2768 8.27513 20.3543 8.27635 20.5085 8.27844C20.5511 8.16708 20.5724 8.11156 20.6152 8.00101Z" fill="white"/>
<path d="M18.3954 7.95117C18.453 8.0683 18.4817 8.12667 18.5387 8.24341C18.6987 8.24607 18.7785 8.2474 18.9375 8.25037C18.8133 8.31917 18.7512 8.35377 18.6268 8.42351C18.6836 8.54002 18.7118 8.59833 18.7681 8.71449C18.6352 8.6417 18.5685 8.60506 18.4345 8.53183C18.31 8.60229 18.2476 8.63785 18.123 8.70945C18.1644 8.59277 18.1852 8.53444 18.2268 8.41844C18.092 8.3449 18.0243 8.30795 17.8885 8.23383C18.0499 8.23583 18.1306 8.23702 18.2912 8.23944C18.3328 8.12385 18.3536 8.06616 18.3954 7.95117Z" fill="white"/>
<path d="M16.0955 7.92948C16.1574 8.05043 16.1883 8.11075 16.2498 8.23108C16.4142 8.22939 16.4963 8.22887 16.6601 8.22831C16.5339 8.30297 16.4707 8.34055 16.3446 8.41679C16.4057 8.53676 16.4361 8.59667 16.4968 8.71608C16.3584 8.64379 16.289 8.60768 16.1496 8.53526C16.0235 8.61255 15.9606 8.65142 15.8347 8.73028C15.8742 8.60734 15.8941 8.54596 15.934 8.42346C15.7941 8.35106 15.7238 8.31487 15.5831 8.24241C15.7484 8.23846 15.8308 8.23684 15.9956 8.23431C16.0354 8.11208 16.0554 8.05117 16.0955 7.92948Z" fill="white"/>
<path d="M14.0271 8.50619C14.0919 8.62806 14.1244 8.68889 14.1888 8.81008C14.0467 8.74237 13.9755 8.70852 13.8327 8.64127C13.707 8.7294 13.6442 8.77397 13.519 8.86419C13.556 8.73349 13.5746 8.66814 13.6118 8.53769C13.4686 8.47073 13.3967 8.4374 13.2528 8.37104C13.4194 8.3559 13.5027 8.34904 13.6692 8.33629C13.7065 8.20589 13.7252 8.1408 13.7627 8.01071C13.8284 8.13384 13.8613 8.19522 13.9265 8.31753C14.093 8.30618 14.1762 8.30108 14.3425 8.29173C14.2161 8.37654 14.153 8.41935 14.0271 8.50619Z" fill="white"/>
<path d="M23.6333 8.92754C23.6756 8.81463 23.6969 8.75833 23.7392 8.64605C23.7825 8.75275 23.8039 8.80632 23.8467 8.91367C23.9841 8.90413 24.0524 8.89883 24.1877 8.88727C24.0781 8.96484 24.0231 9.00345 23.9126 9.07997C23.955 9.18774 23.9761 9.24184 24.0181 9.35024C23.9084 9.28961 23.853 9.25908 23.7414 9.19772C23.6303 9.27364 23.5746 9.31146 23.4628 9.38652C23.5049 9.27267 23.526 9.21584 23.5682 9.10253C23.4554 9.04066 23.3988 9.0095 23.2841 8.94675C23.4249 8.93995 23.4947 8.93609 23.6333 8.92754Z" fill="white"/>
<path d="M21.6006 8.99033C21.6432 8.87835 21.6645 8.82254 21.7071 8.71124C21.7564 8.82187 21.7808 8.87723 21.8297 8.98806C21.9774 8.98633 22.0509 8.98512 22.1969 8.98241C22.0804 9.05329 22.0219 9.08878 21.9048 9.15954C21.9532 9.27043 21.9775 9.32598 22.0255 9.43721C21.9056 9.37018 21.8451 9.33643 21.7236 9.26874C21.6061 9.33943 21.547 9.3748 21.429 9.44551C21.4713 9.33246 21.4926 9.27616 21.535 9.16379C21.4125 9.09564 21.3509 9.06131 21.2269 8.99243C21.3771 8.99196 21.4519 8.99159 21.6006 8.99033Z" fill="white"/>
<path d="M19.45 8.98472C19.492 8.87039 19.5131 8.81355 19.5552 8.69991C19.6099 8.81467 19.6371 8.87188 19.6912 8.98646C19.8468 8.98753 19.9244 8.98818 20.0787 8.98912C19.9571 9.05867 19.8962 9.09351 19.7744 9.16359C19.8282 9.27821 19.855 9.33543 19.9083 9.44991C19.7801 9.37908 19.7155 9.34362 19.5859 9.27224C19.4638 9.34279 19.4028 9.3782 19.2805 9.44948C19.3223 9.33414 19.3433 9.27663 19.3851 9.16183C19.2548 9.09023 19.1894 9.05428 19.0578 8.98212C19.2152 8.98311 19.2936 8.98362 19.45 8.98472Z" fill="white"/>
<path d="M17.2135 8.98229C17.2543 8.86306 17.2746 8.8035 17.3156 8.68479C17.3747 8.80321 17.4042 8.86222 17.4629 8.98022C17.6241 8.97926 17.7046 8.97893 17.8649 8.97874C17.7404 9.05158 17.678 9.08841 17.5533 9.16252C17.6117 9.2803 17.6408 9.3391 17.6987 9.45653C17.564 9.38501 17.4966 9.3492 17.3609 9.27757C17.2362 9.35245 17.1738 9.39027 17.0492 9.46646C17.0897 9.34638 17.11 9.28639 17.1507 9.16683C17.0143 9.09503 16.9458 9.05904 16.8085 8.98713C16.9708 8.98459 17.0519 8.98375 17.2135 8.98229Z" fill="white"/>
<path d="M14.915 9.05086C14.9536 8.92486 14.973 8.86208 15.0119 8.73645C15.0751 8.85722 15.1065 8.91744 15.1692 9.03772C15.3335 9.02973 15.4155 9.02609 15.5795 9.01964C15.4538 9.10021 15.391 9.14109 15.2656 9.22329C15.3279 9.34321 15.3591 9.40292 15.421 9.52234C15.282 9.45372 15.2122 9.41941 15.0722 9.35109C14.9469 9.43439 14.8843 9.47663 14.7594 9.56169C14.7977 9.43518 14.817 9.37193 14.8555 9.24575C14.715 9.17757 14.6447 9.14363 14.5035 9.07585C14.6683 9.06486 14.7505 9.05985 14.915 9.05086Z" fill="white"/>
<path d="M24.5819 9.55789C24.6234 9.44092 24.6441 9.38262 24.6857 9.26613C24.7252 9.3738 24.745 9.42778 24.7841 9.53645C24.9142 9.52196 24.9787 9.51415 25.1065 9.49753C25.0021 9.58115 24.9495 9.62265 24.8441 9.70476C24.883 9.81395 24.9023 9.86877 24.9407 9.97902C24.8377 9.92001 24.7857 9.89045 24.6809 9.83105C24.5749 9.91229 24.5217 9.95254 24.4147 10.0325C24.4559 9.91485 24.4765 9.85614 24.5179 9.73885C24.4119 9.67908 24.3584 9.64906 24.2504 9.58872C24.3841 9.57735 24.4504 9.57113 24.5819 9.55789Z" fill="white"/>
<path d="M22.6472 9.67966C22.6895 9.56585 22.7105 9.5091 22.7527 9.39599C22.7987 9.5061 22.8215 9.56125 22.867 9.67186C23.0087 9.66645 23.079 9.66334 23.2188 9.65669C23.1065 9.73147 23.05 9.76866 22.9369 9.84288C22.9821 9.95376 23.0046 10.0093 23.0492 10.1208C22.9351 10.0556 22.8777 10.0228 22.7619 9.95722C22.6484 10.0312 22.5915 10.0681 22.4773 10.1416C22.5192 10.0269 22.5402 9.96973 22.5823 9.8556C22.4654 9.78959 22.4065 9.75656 22.2881 9.68996C22.4327 9.68638 22.5045 9.68427 22.6472 9.67966Z" fill="white"/>
<path d="M20.5716 9.71099C20.6137 9.59685 20.6348 9.53989 20.6769 9.4263C20.7285 9.53961 20.7541 9.59625 20.8051 9.70965C20.9558 9.70875 21.0309 9.70821 21.1801 9.70685C21.0618 9.77796 21.0025 9.81358 20.8837 9.88483C20.9344 9.99829 20.9596 10.0551 21.0099 10.1687C20.8866 10.0995 20.8246 10.0648 20.6999 9.99522C20.5809 10.0667 20.5212 10.1026 20.4018 10.1745C20.4436 10.0594 20.4646 10.002 20.5066 9.88748C20.3811 9.81761 20.3179 9.78263 20.1909 9.71229C20.3438 9.71185 20.4201 9.71167 20.5716 9.71099Z" fill="white"/>
<path d="M18.394 9.72003C18.4353 9.60267 18.4561 9.54408 18.4975 9.42726C18.5538 9.54371 18.5819 9.60197 18.6377 9.71821C18.7951 9.71718 18.8736 9.7169 19.03 9.71624C18.9077 9.78844 18.8464 9.82466 18.7238 9.89773C18.7793 10.0139 18.8071 10.072 18.8623 10.1881C18.7317 10.1174 18.6661 10.0819 18.5343 10.0111C18.4117 10.0847 18.3504 10.1217 18.2276 10.1964C18.2686 10.0781 18.2891 10.0193 18.3303 9.90165C18.1979 9.83066 18.1314 9.79503 17.9979 9.72396C18.1569 9.7221 18.236 9.7213 18.394 9.72003Z" fill="white"/>
<path d="M16.1387 9.76897C16.1784 9.64636 16.1983 9.58512 16.2381 9.46282C16.2987 9.58178 16.3288 9.64118 16.3888 9.75958C16.5505 9.75393 16.6313 9.75138 16.7924 9.7468C16.668 9.82437 16.6056 9.86343 16.4812 9.94239C16.5411 10.0606 16.571 10.1196 16.6303 10.2375C16.4944 10.1684 16.4261 10.134 16.2893 10.065C16.1651 10.1449 16.103 10.1851 15.9788 10.2663C16.0183 10.143 16.0379 10.0815 16.0774 9.95863C15.9401 9.88986 15.8713 9.85561 15.733 9.78706C15.8955 9.77917 15.9766 9.77546 16.1387 9.76897Z" fill="white"/>
<path d="M13.8375 9.92481C13.8747 9.79555 13.8933 9.73095 13.9307 9.60187C13.9948 9.72163 14.0266 9.78144 14.0903 9.90064C14.2539 9.88558 14.3357 9.87861 14.4991 9.86568C14.3747 9.95235 14.3125 9.99612 14.1884 10.0845C14.2517 10.2034 14.2832 10.2628 14.3462 10.3812C14.2068 10.3171 14.1369 10.2853 13.9969 10.222C13.873 10.3116 13.8112 10.3568 13.6878 10.4481C13.7246 10.3185 13.7432 10.254 13.7802 10.1246C13.6397 10.0617 13.5693 10.0305 13.4282 9.96831C13.5919 9.94981 13.6738 9.94114 13.8375 9.92481Z" fill="white"/>
<path d="M23.6408 10.3065C23.6822 10.19 23.703 10.1318 23.7446 10.0158C23.7872 10.1265 23.8083 10.182 23.8504 10.2935C23.9854 10.2845 24.0524 10.2798 24.1854 10.2694C24.0776 10.3485 24.0237 10.3877 23.9152 10.4658C23.9569 10.5777 23.9776 10.6339 24.0188 10.7466C23.9109 10.6826 23.8566 10.6504 23.747 10.5861C23.6378 10.6638 23.5831 10.7024 23.4732 10.7792C23.5145 10.662 23.5352 10.6035 23.5766 10.4868C23.4659 10.4222 23.4101 10.3898 23.2977 10.325C23.4358 10.3182 23.5045 10.3145 23.6408 10.3065Z" fill="white"/>
<path d="M21.6474 10.3767C21.6892 10.2619 21.7102 10.2045 21.7523 10.0902C21.8007 10.2029 21.8246 10.2594 21.8726 10.3724C22.0179 10.3693 22.0902 10.3676 22.234 10.3638C22.1192 10.4372 22.0617 10.4738 21.9464 10.5471C21.9941 10.6603 22.0178 10.717 22.065 10.8307C21.947 10.7627 21.8876 10.7284 21.768 10.6602C21.6524 10.7334 21.5945 10.77 21.4782 10.8432C21.5199 10.7274 21.5408 10.6697 21.5826 10.5545C21.4622 10.486 21.4016 10.4517 21.2796 10.3829C21.4275 10.3806 21.501 10.3794 21.6474 10.3767Z" fill="white"/>
<path d="M19.5288 10.402C19.5703 10.2856 19.5912 10.2276 19.6329 10.1118C19.6864 10.227 19.7131 10.2845 19.7662 10.3997C19.9194 10.3981 19.9956 10.3974 20.1475 10.396C20.0278 10.4684 19.9679 10.5047 19.8478 10.5776C19.9007 10.6928 19.9269 10.7505 19.9793 10.8658C19.8531 10.7958 19.7897 10.7607 19.6622 10.6906C19.5419 10.764 19.4817 10.8007 19.3611 10.8746C19.4025 10.7573 19.4231 10.6989 19.4647 10.5822C19.3364 10.5119 19.2721 10.4767 19.1427 10.4063C19.2976 10.4045 19.3749 10.4036 19.5288 10.402Z" fill="white"/>
<path d="M17.3243 10.4414C17.3647 10.3211 17.385 10.261 17.4255 10.1413C17.4835 10.2586 17.5124 10.3173 17.5698 10.4344C17.7285 10.4302 17.8078 10.4283 17.9657 10.4248C17.8428 10.5005 17.7813 10.5387 17.6585 10.6153C17.7157 10.7323 17.7442 10.7908 17.801 10.9076C17.6686 10.8382 17.6021 10.8036 17.4686 10.7342C17.3457 10.8116 17.2843 10.8507 17.1614 10.9292C17.2015 10.8083 17.2217 10.7478 17.262 10.6273C17.1279 10.5581 17.0607 10.5236 16.9257 10.4545C17.0855 10.4487 17.1652 10.4461 17.3243 10.4414Z" fill="white"/>
<path d="M15.0584 10.5567C15.0969 10.431 15.116 10.3682 15.1546 10.2428C15.2163 10.3614 15.2472 10.4204 15.3084 10.5386C15.4702 10.5274 15.5509 10.5221 15.7122 10.5125C15.5884 10.5951 15.5264 10.6368 15.4028 10.7209C15.4638 10.8388 15.4942 10.8977 15.5549 11.0153C15.4181 10.9495 15.3495 10.9169 15.2121 10.8516C15.0886 10.9366 15.0269 10.9795 14.9037 11.0661C14.9418 10.94 14.9608 10.877 14.9991 10.7512C14.8612 10.6862 14.7921 10.6539 14.6534 10.5895C14.8155 10.5755 14.8965 10.5689 15.0584 10.5567Z" fill="white"/>
<path d="M24.5737 10.971C24.6144 10.8506 24.6347 10.7906 24.6754 10.6705C24.7144 10.783 24.7337 10.8396 24.7722 10.9532C24.8999 10.9412 24.9632 10.9347 25.0886 10.9211C24.9862 11.005 24.9348 11.0467 24.8314 11.1293C24.8697 11.2435 24.8886 11.3009 24.9263 11.4163C24.8253 11.3522 24.7744 11.3202 24.6713 11.2562C24.5673 11.3379 24.5148 11.3785 24.4099 11.4591C24.4503 11.3382 24.4705 11.2779 24.5111 11.1573C24.4069 11.0933 24.3544 11.0611 24.2482 10.9969C24.3796 10.9873 24.4446 10.9821 24.5737 10.971Z" fill="white"/>
<path d="M22.6705 11.0774C22.712 10.9607 22.7327 10.9024 22.7742 10.7862C22.8193 10.8994 22.8418 10.9559 22.8865 11.0696C23.0258 11.0644 23.095 11.0616 23.2324 11.0555C23.122 11.1318 23.0666 11.1698 22.9554 11.2457C22.9999 11.3598 23.0219 11.4169 23.0659 11.5317C22.9536 11.4641 22.8971 11.4303 22.7833 11.3626C22.6716 11.4381 22.6156 11.4758 22.5032 11.551C22.5445 11.4336 22.5652 11.375 22.6065 11.258C22.4915 11.1902 22.4336 11.1563 22.3172 11.0883C22.4593 11.0844 22.5301 11.0822 22.6705 11.0774Z" fill="white"/>
<path d="M20.634 11.1226C20.6755 11.0062 20.6964 10.948 20.7381 10.8321C20.7886 10.9468 20.8138 11.0041 20.864 11.119C21.0124 11.1166 21.0861 11.1154 21.2331 11.1128C21.1166 11.1862 21.0581 11.2229 20.9411 11.2966C20.991 11.4116 21.0159 11.4692 21.0653 11.5846C20.944 11.5149 20.8829 11.4801 20.7602 11.4105C20.6429 11.4843 20.5842 11.5212 20.4665 11.5953C20.5078 11.478 20.5284 11.4196 20.5698 11.3028C20.4464 11.2331 20.3842 11.1981 20.2593 11.1283C20.4098 11.1261 20.4848 11.1249 20.634 11.1226Z" fill="white"/>
<path d="M18.4808 11.1605C18.5216 11.0417 18.5421 10.9824 18.583 10.8642C18.6383 10.9805 18.6658 11.0387 18.7206 11.155C18.8757 11.1515 18.953 11.1499 19.107 11.1469C18.9864 11.2216 18.926 11.2592 18.8052 11.3347C18.8598 11.4509 18.8869 11.5091 18.9411 11.6254C18.8126 11.5558 18.7482 11.5211 18.6186 11.4517C18.4978 11.5276 18.4371 11.5659 18.3161 11.6427C18.3566 11.5232 18.377 11.4635 18.4177 11.3444C18.2875 11.2751 18.222 11.2403 18.0906 11.171C18.2471 11.1665 18.3251 11.1643 18.4808 11.1605Z" fill="white"/>
<path d="M16.2577 11.2489C16.2971 11.1259 16.3167 11.0644 16.3562 10.9419C16.4155 11.0593 16.4451 11.1179 16.504 11.2353C16.6632 11.2268 16.7427 11.2229 16.9013 11.2155C16.7787 11.2952 16.7173 11.3354 16.5948 11.4164C16.6535 11.5335 16.6826 11.592 16.7408 11.709C16.607 11.642 16.54 11.6085 16.4054 11.5419C16.2829 11.6236 16.2216 11.6647 16.0993 11.7477C16.1384 11.6241 16.1579 11.5624 16.1971 11.4392C16.062 11.3728 15.9942 11.3398 15.8583 11.2738C16.0182 11.2632 16.0982 11.2582 16.2577 11.2489Z" fill="white"/>
<path d="M14.0046 11.4405C14.0415 11.3122 14.0601 11.248 14.0972 11.1198C14.1599 11.2371 14.1912 11.2957 14.2534 11.4126C14.4144 11.3952 14.4948 11.3869 14.6557 11.3714C14.533 11.4593 14.4718 11.5037 14.3494 11.5931C14.4114 11.7099 14.4423 11.7683 14.504 11.8848C14.3669 11.8233 14.2983 11.7928 14.1607 11.7321C14.0387 11.8225 13.9776 11.8681 13.8561 11.9601C13.8926 11.8315 13.911 11.7673 13.9479 11.6388C13.8098 11.5787 13.7406 11.5488 13.6021 11.4896C13.7631 11.4689 13.8435 11.4591 14.0046 11.4405Z" fill="white"/>
<path d="M23.6481 11.7286C23.6889 11.6091 23.7092 11.5494 23.75 11.4303C23.792 11.545 23.8127 11.6025 23.8541 11.718C23.9868 11.7108 24.0527 11.7068 24.1833 11.6986C24.0776 11.7783 24.0245 11.8179 23.9179 11.8967C23.959 12.0127 23.9794 12.0709 24.0201 12.1878C23.914 12.1198 23.8605 12.0859 23.7526 12.018C23.6455 12.0963 23.5917 12.1353 23.4837 12.2128C23.5242 12.0928 23.5445 12.033 23.5852 11.9133C23.4763 11.8456 23.4214 11.8117 23.3108 11.7439C23.4467 11.7383 23.5142 11.7352 23.6481 11.7286Z" fill="white"/>
<path d="M21.6862 11.7929C21.7274 11.6756 21.7481 11.617 21.7896 11.5C21.8372 11.615 21.8609 11.6726 21.908 11.788C22.0511 11.7847 22.1221 11.7829 22.2635 11.7792C22.1507 11.8542 22.094 11.8917 21.9806 11.9665C22.0275 12.0823 22.0509 12.1401 22.0974 12.2563C21.9813 12.1866 21.9227 12.1518 21.805 12.0821C21.6912 12.1569 21.6342 12.1944 21.5197 12.2692C21.5608 12.1511 21.5813 12.0922 21.6225 11.9745C21.504 11.9049 21.4443 11.8701 21.3242 11.8005C21.4698 11.7976 21.5421 11.7961 21.6862 11.7929Z" fill="white"/>
<path d="M19.5992 11.834C19.6403 11.7158 19.6608 11.6568 19.702 11.539C19.7546 11.655 19.7809 11.7129 19.8331 11.829C19.9839 11.8259 20.059 11.8245 20.2087 11.8216C20.0908 11.8961 20.0317 11.9334 19.9133 12.0085C19.9653 12.1247 19.9913 12.1828 20.0428 12.2992C19.9184 12.2293 19.8559 12.1943 19.7304 12.1245C19.6119 12.1998 19.5526 12.2376 19.4338 12.3135C19.4747 12.1946 19.495 12.1353 19.536 12.0167C19.4098 11.9471 19.3464 11.9122 19.2189 11.8426C19.3716 11.839 19.4477 11.8373 19.5992 11.834Z" fill="white"/>
<path d="M17.4268 11.9025C17.4669 11.7813 17.4869 11.7208 17.5271 11.6C17.584 11.7169 17.6123 11.7753 17.6687 11.8921C17.8251 11.8856 17.9031 11.8826 18.0586 11.8771C17.9375 11.9547 17.877 11.9938 17.7558 12.0725C17.8119 12.1892 17.8401 12.2476 17.8959 12.3644C17.7656 12.2963 17.7002 12.2623 17.5688 12.1944C17.4476 12.2737 17.387 12.3135 17.2659 12.3938C17.3056 12.272 17.3254 12.2113 17.3652 12.0899C17.2333 12.0223 17.1671 11.9886 17.0343 11.9214C17.1916 11.9133 17.2702 11.9095 17.4268 11.9025Z" fill="white"/>
<path d="M15.2011 12.0493C15.2391 11.9238 15.2582 11.8611 15.2966 11.7358C15.3571 11.8527 15.3872 11.9111 15.4472 12.0279C15.6064 12.0145 15.6861 12.0081 15.8449 11.9962C15.7227 12.0803 15.6618 12.1227 15.5399 12.2081C15.5997 12.3247 15.6296 12.383 15.6891 12.4995C15.5545 12.4357 15.4871 12.4038 15.3518 12.3406C15.2301 12.4268 15.1694 12.4703 15.048 12.5579C15.0857 12.4319 15.1045 12.3691 15.1424 12.2435C15.0067 12.1807 14.9387 12.1494 14.8024 12.0874C14.962 12.0713 15.0416 12.0637 15.2011 12.0493Z" fill="white"/>
<path d="M24.5655 12.4317C24.6053 12.3085 24.6251 12.247 24.665 12.1239C24.7034 12.2413 24.7225 12.3003 24.7604 12.4189C24.8858 12.4103 24.9479 12.4057 25.0711 12.3959C24.9706 12.4793 24.9202 12.5206 24.8187 12.6027C24.8563 12.7219 24.8751 12.7819 24.9123 12.9024C24.813 12.8328 24.7627 12.7981 24.6615 12.729C24.5594 12.8103 24.508 12.8506 24.405 12.9309C24.4446 12.8073 24.4644 12.7456 24.5041 12.6222C24.4017 12.5533 24.35 12.5191 24.2457 12.4505C24.3747 12.4435 24.4387 12.4397 24.5655 12.4317Z" fill="white"/>
<path d="M22.6935 12.5114C22.7342 12.3921 22.7546 12.3326 22.7954 12.2136C22.8399 12.3299 22.862 12.3883 22.906 12.5053C23.043 12.5011 23.1111 12.4988 23.2463 12.4941C23.1377 12.5712 23.0833 12.6096 22.9739 12.6861C23.0177 12.8036 23.0394 12.8626 23.0827 12.9807C22.9723 12.9101 22.9167 12.8748 22.8045 12.8044C22.6948 12.8808 22.6396 12.9189 22.5291 12.9949C22.5696 12.8751 22.59 12.8152 22.6306 12.6957C22.5175 12.6255 22.4605 12.5906 22.3459 12.5206C22.4857 12.5171 22.5553 12.5152 22.6935 12.5114Z" fill="white"/>
<path d="M20.6886 12.5563C20.7296 12.4378 20.7499 12.3786 20.791 12.2605C20.8408 12.3769 20.8656 12.435 20.9149 12.5517C21.0611 12.5487 21.1338 12.5473 21.2786 12.5444C21.1637 12.6194 21.1062 12.6569 20.9909 12.732C21.04 12.849 21.0645 12.9075 21.1132 13.0248C20.9937 12.9541 20.9336 12.9189 20.8128 12.8484C20.6972 12.9237 20.6395 12.9615 20.5236 13.0371C20.5642 12.9179 20.5846 12.8583 20.6254 12.7396C20.5037 12.6693 20.4424 12.6342 20.3194 12.5641C20.4677 12.5609 20.5416 12.5593 20.6886 12.5563Z" fill="white"/>
<path d="M18.5672 12.6116C18.6075 12.4914 18.6277 12.4314 18.6681 12.3117C18.7224 12.4283 18.7495 12.4867 18.8034 12.6036C18.9563 12.5985 19.0323 12.5961 19.1841 12.5918C19.0652 12.6684 19.0059 12.7068 18.8868 12.784C18.9405 12.9009 18.9673 12.9594 19.0206 13.0764C18.894 13.0072 18.8304 12.9725 18.7028 12.9036C18.5836 12.9813 18.524 13.0204 18.4047 13.0989C18.4447 12.9781 18.4648 12.9178 18.505 12.7975C18.3767 12.7287 18.3122 12.6945 18.1828 12.6261C18.337 12.6199 18.4139 12.617 18.5672 12.6116Z" fill="white"/>
<path d="M16.3839 12.7243C16.4228 12.6008 16.4422 12.539 16.4813 12.4159C16.5395 12.5326 16.5687 12.591 16.6265 12.7076C16.7833 12.6974 16.8617 12.6925 17.018 12.6833C16.8971 12.7647 16.8365 12.8056 16.7157 12.8879C16.7733 13.0046 16.8021 13.0629 16.8594 13.1794C16.7277 13.1136 16.6618 13.0809 16.5292 13.0156C16.4085 13.0987 16.348 13.1405 16.2274 13.2246C16.266 13.1007 16.2852 13.0388 16.324 12.9151C16.191 12.8502 16.1243 12.8179 15.9905 12.7536C16.1481 12.7411 16.2267 12.7354 16.3839 12.7243Z" fill="white"/>
<path d="M14.1556 12.939C14.1921 12.8113 14.2105 12.7475 14.2472 12.6199C14.3088 12.7355 14.3394 12.7934 14.4005 12.9089C14.559 12.89 14.6382 12.881 14.7965 12.8639C14.6757 12.9526 14.6153 12.9973 14.4948 13.0873C14.5556 13.2028 14.586 13.2604 14.6467 13.3757C14.5118 13.3157 14.4442 13.286 14.3088 13.2269C14.1886 13.3177 14.1285 13.3635 14.0087 13.4556C14.0449 13.3277 14.063 13.2639 14.0994 13.1362C13.9636 13.0778 13.8957 13.0489 13.7595 12.9914C13.9179 12.9695 13.9971 12.959 14.1556 12.939Z" fill="white"/>
<path d="M23.6554 13.1911C23.6954 13.0692 23.7154 13.0083 23.7554 12.8866C23.7966 13.0052 23.8173 13.0647 23.8581 13.1842C23.9885 13.1796 24.0532 13.1771 24.1817 13.1718C24.0778 13.2513 24.0255 13.2908 23.9208 13.3694C23.9613 13.4895 23.9814 13.5498 24.0214 13.671C23.9172 13.5985 23.8645 13.5624 23.7584 13.4905C23.6531 13.5687 23.6003 13.6076 23.4941 13.6851C23.5339 13.5629 23.5538 13.5018 23.5937 13.3797C23.4866 13.3081 23.4326 13.2723 23.3237 13.2012C23.4573 13.1974 23.5237 13.1955 23.6554 13.1911Z" fill="white"/>
<path d="M21.7249 13.2374C21.7654 13.1178 21.7858 13.058 21.8264 12.9388C21.8734 13.0563 21.8968 13.1149 21.9432 13.2329C22.084 13.2302 22.154 13.2288 22.2932 13.2259C22.1822 13.3018 22.1265 13.3398 22.0148 13.4156C22.0611 13.5339 22.0841 13.5931 22.1299 13.7121C22.0154 13.6401 21.958 13.6041 21.8421 13.5326C21.7299 13.6083 21.6739 13.6462 21.5612 13.722C21.6016 13.6018 21.6218 13.5419 21.6622 13.4221C21.5454 13.3507 21.4867 13.3152 21.3685 13.2441C21.5118 13.2414 21.583 13.2401 21.7249 13.2374Z" fill="white"/>
<path d="M19.6696 13.2827C19.71 13.1628 19.7303 13.103 19.7709 12.9836C19.8227 13.1006 19.8485 13.1592 19.9 13.2765C20.0486 13.2726 20.1226 13.2709 20.27 13.2675C20.1539 13.3434 20.0957 13.3816 19.9791 13.458C20.0303 13.5755 20.0558 13.6342 20.1066 13.7522C19.984 13.6816 19.9225 13.6465 19.7988 13.5763C19.682 13.653 19.6237 13.6915 19.5066 13.7687C19.5468 13.6482 19.5669 13.5881 19.6072 13.468C19.4828 13.3981 19.4203 13.3632 19.2948 13.2936C19.4453 13.2889 19.5203 13.2868 19.6696 13.2827Z" fill="white"/>
<path d="M17.5292 13.3681C17.5687 13.246 17.5884 13.1851 17.628 13.0633C17.684 13.1803 17.7119 13.2386 17.7675 13.3556C17.9215 13.3478 17.9983 13.344 18.1516 13.3371C18.0322 13.4163 17.9726 13.4562 17.8532 13.5362C17.9086 13.6532 17.9362 13.7118 17.9911 13.829C17.8627 13.7613 17.7981 13.7275 17.6688 13.6604C17.5494 13.7409 17.4897 13.7815 17.3703 13.863C17.4095 13.7403 17.429 13.6791 17.4683 13.5568C17.3384 13.49 17.2731 13.4567 17.1423 13.3905C17.2973 13.381 17.3747 13.3765 17.5292 13.3681Z" fill="white"/>
<path d="M15.3355 13.5338C15.3731 13.4084 15.3921 13.3457 15.4299 13.2204C15.4894 13.3364 15.519 13.3944 15.5781 13.5104C15.7348 13.4956 15.8132 13.4885 15.9697 13.4753C15.8493 13.5604 15.7892 13.6033 15.6692 13.6895C15.728 13.8055 15.7575 13.8636 15.8161 13.9796C15.6835 13.9168 15.6171 13.8854 15.4839 13.8234C15.364 13.9103 15.3041 13.9541 15.1845 14.0423C15.2216 13.9164 15.2403 13.8535 15.2777 13.7279C15.1441 13.6664 15.0773 13.6357 14.943 13.5751C15.1001 13.5578 15.1786 13.5495 15.3355 13.5338Z" fill="white"/>
<path d="M24.5574 13.9376C24.5964 13.8121 24.6159 13.7495 24.6549 13.624C24.6927 13.7462 24.7115 13.8077 24.7489 13.9311C24.8721 13.9267 24.933 13.9244 25.054 13.9192C24.9554 14.001 24.9058 14.0417 24.8063 14.1224C24.8433 14.2466 24.8618 14.309 24.8984 14.4343C24.8008 14.3588 24.7516 14.3213 24.652 14.2467C24.5518 14.3267 24.5013 14.3665 24.4002 14.4457C24.4389 14.3201 24.4584 14.2572 24.4972 14.1317C24.3965 14.0576 24.3457 14.0206 24.2431 13.9472C24.37 13.9437 24.4328 13.9417 24.5574 13.9376Z" fill="white"/>
<path d="M22.7243 13.9791C22.7643 13.8576 22.7843 13.797 22.8243 13.6759C22.8682 13.7953 22.8899 13.8553 22.9333 13.9757C23.0681 13.9733 23.1353 13.9721 23.2682 13.9696C23.1615 14.0467 23.1078 14.0852 23.0003 14.1619C23.0435 14.2827 23.065 14.3432 23.1078 14.4648C22.999 14.3906 22.9442 14.3538 22.8337 14.2802C22.7258 14.3567 22.6716 14.3948 22.5629 14.471C22.6027 14.3492 22.6226 14.2885 22.6626 14.1669C22.5511 14.0937 22.495 14.0572 22.3821 13.9846C22.5198 13.9824 22.5883 13.9813 22.7243 13.9791Z" fill="white"/>
<path d="M20.7429 14.0123C20.7831 13.892 20.8033 13.8319 20.8437 13.712C20.8928 13.8301 20.9172 13.8892 20.966 14.0078C21.11 14.0051 21.1816 14.0039 21.3241 14.0014C21.2111 14.0773 21.1545 14.1153 21.041 14.1914C21.0894 14.3104 21.1136 14.3699 21.1617 14.4894C21.044 14.417 20.9847 14.3809 20.8655 14.3091C20.7518 14.3854 20.6948 14.4234 20.5807 14.5C20.6206 14.3792 20.6407 14.3188 20.6808 14.1983C20.5608 14.1268 20.5005 14.0911 20.3793 14.0201C20.5254 14.0167 20.5981 14.0152 20.7429 14.0123Z" fill="white"/>
<path d="M18.6533 14.0735C18.6929 13.952 18.7128 13.8914 18.7526 13.7704C18.8062 13.8878 18.8329 13.9465 18.886 14.0642C19.0366 14.0584 19.1116 14.0558 19.2612 14.0506C19.1441 14.1285 19.0855 14.1676 18.9682 14.2461C19.0212 14.3638 19.0475 14.4229 19.1002 14.541C18.9754 14.4713 18.9127 14.4368 18.7868 14.3676C18.6694 14.4465 18.6107 14.4862 18.4932 14.5658C18.5326 14.4438 18.5524 14.3828 18.5919 14.2612C18.4654 14.1925 18.4019 14.1583 18.2745 14.0901C18.4264 14.083 18.5022 14.0797 18.6533 14.0735Z" fill="white"/>
<path d="M16.5022 14.1996C16.5405 14.0757 16.5598 14.0137 16.5982 13.8901C16.6555 14.0066 16.6841 14.0648 16.7412 14.1815C16.8957 14.1701 16.9729 14.1648 17.1269 14.1546C17.0078 14.237 16.9481 14.2784 16.829 14.3618C16.8858 14.4785 16.9143 14.5368 16.9708 14.6537C16.841 14.5883 16.7757 14.5557 16.6452 14.491C16.5262 14.5749 16.4669 14.6172 16.348 14.7021C16.3859 14.5776 16.4049 14.5156 16.4431 14.3914C16.312 14.3272 16.2464 14.2952 16.1147 14.2317C16.2699 14.2183 16.3473 14.2118 16.5022 14.1996Z" fill="white"/>
<path d="M14.3061 14.4284C14.3421 14.3013 14.3602 14.2375 14.3964 14.1105C14.4569 14.2252 14.487 14.2826 14.5473 14.3973C14.7033 14.3777 14.7813 14.3684 14.9372 14.3505C14.8181 14.4397 14.7585 14.4845 14.6399 14.5747C14.6998 14.6895 14.7298 14.7468 14.7895 14.8617C14.6567 14.8023 14.5902 14.773 14.4568 14.7147C14.3385 14.8057 14.2794 14.8514 14.1615 14.9435C14.1971 14.8161 14.2148 14.7523 14.2507 14.625C14.117 14.5673 14.0501 14.5388 13.9161 14.4822C14.072 14.4598 14.1501 14.4491 14.3061 14.4284Z" fill="white"/>
<path d="M25.1124 6.38809C25.1047 6.881 25.4981 7.28663 25.991 7.29422C26.4839 7.30189 26.8896 6.90856 26.8972 6.41565C26.9048 5.92281 26.5115 5.51712 26.0186 5.50952C25.5257 5.50185 25.12 5.89519 25.1124 6.38809Z" fill="#3F3E40"/>
<path d="M25.0637 38.0025L25.553 6.38786L26.3804 6.40068L25.8935 37.8651L25.0637 38.0025Z" fill="#3F3E40"/>
</g>
<defs>
<radialGradient id="paint0_radial_136_1893" cx="0" cy="0" r="1" gradientUnits="userSpaceOnUse" gradientTransform="translate(13.2298 17.8022) rotate(120.322) scale(21.7413 16.8104)">
<stop stop-color="#D2D2D0"/>
<stop offset="1" stop-color="#B6B6BA"/>
</radialGradient>
<radialGradient id="paint1_radial_136_1893" cx="0" cy="0" r="1" gradientUnits="userSpaceOnUse" gradientTransform="translate(18.9237 16.6202) rotate(161.17) scale(22.6493 19.4404)">
<stop stop-color="#D2D2D0"/>
<stop offset="1" stop-color="#B6B6BA"/>
</radialGradient>
<clipPath id="clip0_136_1893">
<rect width="32" height="32" fill="white"/>
</clipPath>
</defs>
</svg>
