<svg width="135" height="72" viewBox="0 0 135 72" fill="none" xmlns="http://www.w3.org/2000/svg">
<mask id="path-1-outside-1_135_808" maskUnits="userSpaceOnUse" x="11" y="14" width="112" height="46" fill="black">
<rect fill="white" x="11" y="14" width="112" height="46"/>
<path d="M21.68 53.224C21.68 54.616 21.296 55 19.904 55H16.832C15.44 55 15.056 54.616 15.056 53.224V40.936C15.056 38.824 15.152 37.96 15.728 36.04L20.096 21.4C20.672 19.384 21.152 19 23.648 19H25.376C27.872 19 28.352 19.384 28.928 21.4L33.296 36.04C33.872 37.912 33.968 38.824 33.968 40.936V53.224C33.968 54.616 33.584 55 32.192 55H29.12C27.728 55 27.344 54.616 27.344 53.224V46.888C27.344 46.216 27.152 46.024 26.48 46.024H22.544C21.872 46.024 21.68 46.216 21.68 46.888V53.224ZM26.624 39.304C27.152 39.304 27.44 39.112 27.44 38.68C27.44 38.44 27.392 38.2 27.344 37.96L25.136 28.696C25.04 28.216 24.944 28.12 24.512 28.12C24.08 28.12 23.984 28.216 23.888 28.696L21.68 37.96C21.632 38.2 21.584 38.44 21.584 38.68C21.584 39.112 21.872 39.304 22.4 39.304H26.624ZM38.6525 55C37.2605 55 36.8765 54.616 36.8765 53.224V20.776C36.8765 19.384 37.2605 19 38.6525 19H45.4685C52.4285 19 55.5965 21.592 55.5965 27.4V30.184C55.5965 32.68 54.7805 34.456 53.1005 35.992C52.9565 36.136 52.9085 36.184 52.9085 36.28C52.9085 36.376 52.9565 36.424 53.1005 36.568C54.9245 38.056 55.8365 39.64 55.8365 42.184V46.84C55.8365 52.408 52.5245 55 45.2285 55H38.6525ZM43.5005 26.584V32.104C43.5005 32.776 43.6925 32.968 44.3645 32.968H45.3725C47.7245 32.968 48.7805 32.152 48.7805 30.04V28.648C48.7805 26.536 47.7245 25.72 45.3725 25.72H44.3645C43.6925 25.72 43.5005 25.912 43.5005 26.584ZM45.6125 48.28C47.9645 48.28 49.0205 47.464 49.0205 45.352V42.616C49.0205 40.504 47.9645 39.688 45.6125 39.688H44.3645C43.6925 39.688 43.5005 39.88 43.5005 40.552V47.416C43.5005 48.088 43.6925 48.28 44.3645 48.28H45.6125ZM77.1433 44.44C77.1433 52.552 74.8393 55.48 67.8793 55.48C60.9193 55.48 58.6152 52.552 58.6152 44.44V29.56C58.6152 21.496 60.9193 18.52 67.8793 18.52C74.8393 18.52 77.1433 21.496 77.1433 29.56V44.44ZM65.4313 46.072C65.4313 47.992 66.1993 48.76 67.8793 48.76C69.5593 48.76 70.3273 47.992 70.3273 46.072V28.168C70.3273 26.056 69.5593 25.24 67.8793 25.24C66.1993 25.24 65.4313 26.056 65.4313 28.168V46.072ZM92.4624 20.776C92.4624 19.384 92.8464 19 94.2384 19H97.3104C98.7024 19 99.0864 19.384 99.0864 20.776V44.92C99.0864 52.648 96.7824 55.48 89.8224 55.48C82.8624 55.48 80.5584 52.648 80.5584 44.92V20.776C80.5584 19.384 80.9424 19 82.3344 19H85.4064C86.7984 19 87.1824 19.384 87.1824 20.776V46.072C87.1824 47.992 87.9984 48.76 89.8224 48.76C91.5984 48.76 92.4624 47.992 92.4624 46.072V20.776ZM116.662 25.72H113.686C113.014 25.72 112.822 25.912 112.822 26.584V53.224C112.822 54.616 112.438 55 111.046 55H107.974C106.582 55 106.198 54.616 106.198 53.224V26.584C106.198 25.912 106.006 25.72 105.334 25.72H102.358C100.966 25.72 100.582 25.336 100.582 23.944V20.776C100.582 19.384 100.966 19 102.358 19H116.662C118.054 19 118.438 19.384 118.438 20.776V23.944C118.438 25.336 118.054 25.72 116.662 25.72Z"/>
</mask>
<path d="M21.68 53.224C21.68 54.616 21.296 55 19.904 55H16.832C15.44 55 15.056 54.616 15.056 53.224V40.936C15.056 38.824 15.152 37.96 15.728 36.04L20.096 21.4C20.672 19.384 21.152 19 23.648 19H25.376C27.872 19 28.352 19.384 28.928 21.4L33.296 36.04C33.872 37.912 33.968 38.824 33.968 40.936V53.224C33.968 54.616 33.584 55 32.192 55H29.12C27.728 55 27.344 54.616 27.344 53.224V46.888C27.344 46.216 27.152 46.024 26.48 46.024H22.544C21.872 46.024 21.68 46.216 21.68 46.888V53.224ZM26.624 39.304C27.152 39.304 27.44 39.112 27.44 38.68C27.44 38.44 27.392 38.2 27.344 37.96L25.136 28.696C25.04 28.216 24.944 28.12 24.512 28.12C24.08 28.12 23.984 28.216 23.888 28.696L21.68 37.96C21.632 38.2 21.584 38.44 21.584 38.68C21.584 39.112 21.872 39.304 22.4 39.304H26.624ZM38.6525 55C37.2605 55 36.8765 54.616 36.8765 53.224V20.776C36.8765 19.384 37.2605 19 38.6525 19H45.4685C52.4285 19 55.5965 21.592 55.5965 27.4V30.184C55.5965 32.68 54.7805 34.456 53.1005 35.992C52.9565 36.136 52.9085 36.184 52.9085 36.28C52.9085 36.376 52.9565 36.424 53.1005 36.568C54.9245 38.056 55.8365 39.64 55.8365 42.184V46.84C55.8365 52.408 52.5245 55 45.2285 55H38.6525ZM43.5005 26.584V32.104C43.5005 32.776 43.6925 32.968 44.3645 32.968H45.3725C47.7245 32.968 48.7805 32.152 48.7805 30.04V28.648C48.7805 26.536 47.7245 25.72 45.3725 25.72H44.3645C43.6925 25.72 43.5005 25.912 43.5005 26.584ZM45.6125 48.28C47.9645 48.28 49.0205 47.464 49.0205 45.352V42.616C49.0205 40.504 47.9645 39.688 45.6125 39.688H44.3645C43.6925 39.688 43.5005 39.88 43.5005 40.552V47.416C43.5005 48.088 43.6925 48.28 44.3645 48.28H45.6125ZM77.1433 44.44C77.1433 52.552 74.8393 55.48 67.8793 55.48C60.9193 55.48 58.6152 52.552 58.6152 44.44V29.56C58.6152 21.496 60.9193 18.52 67.8793 18.52C74.8393 18.52 77.1433 21.496 77.1433 29.56V44.44ZM65.4313 46.072C65.4313 47.992 66.1993 48.76 67.8793 48.76C69.5593 48.76 70.3273 47.992 70.3273 46.072V28.168C70.3273 26.056 69.5593 25.24 67.8793 25.24C66.1993 25.24 65.4313 26.056 65.4313 28.168V46.072ZM92.4624 20.776C92.4624 19.384 92.8464 19 94.2384 19H97.3104C98.7024 19 99.0864 19.384 99.0864 20.776V44.92C99.0864 52.648 96.7824 55.48 89.8224 55.48C82.8624 55.48 80.5584 52.648 80.5584 44.92V20.776C80.5584 19.384 80.9424 19 82.3344 19H85.4064C86.7984 19 87.1824 19.384 87.1824 20.776V46.072C87.1824 47.992 87.9984 48.76 89.8224 48.76C91.5984 48.76 92.4624 47.992 92.4624 46.072V20.776ZM116.662 25.72H113.686C113.014 25.72 112.822 25.912 112.822 26.584V53.224C112.822 54.616 112.438 55 111.046 55H107.974C106.582 55 106.198 54.616 106.198 53.224V26.584C106.198 25.912 106.006 25.72 105.334 25.72H102.358C100.966 25.72 100.582 25.336 100.582 23.944V20.776C100.582 19.384 100.966 19 102.358 19H116.662C118.054 19 118.438 19.384 118.438 20.776V23.944C118.438 25.336 118.054 25.72 116.662 25.72Z" fill="black"/>
<path d="M15.728 36.04L19.5593 37.1894L19.561 37.1836L15.728 36.04ZM20.096 21.4L23.929 22.5436L23.9357 22.5213L23.9421 22.4989L20.096 21.4ZM28.928 21.4L25.0819 22.4989L25.0883 22.5213L25.095 22.5436L28.928 21.4ZM33.296 36.04L29.463 37.1836L29.4679 37.2L29.4729 37.2163L33.296 36.04ZM27.344 37.96L31.2663 37.1755L31.252 37.1038L31.235 37.0326L27.344 37.96ZM25.136 28.696L21.2137 29.4805L21.228 29.5522L21.245 29.6234L25.136 28.696ZM23.888 28.696L27.779 29.6234L27.796 29.5522L27.8103 29.4805L23.888 28.696ZM21.68 37.96L17.789 37.0326L17.772 37.1038L17.7577 37.1755L21.68 37.96ZM17.68 53.224C17.68 53.4295 17.6613 53.345 17.7169 53.1216C17.7835 52.8543 17.9757 52.3155 18.4856 51.8056C18.9955 51.2957 19.5343 51.1035 19.8016 51.0369C20.025 50.9813 20.1095 51 19.904 51V59C20.6535 59 22.6268 58.978 24.1424 57.4624C25.658 55.9468 25.68 53.9735 25.68 53.224H17.68ZM19.904 51H16.832V59H19.904V51ZM16.832 51C16.6265 51 16.711 50.9813 16.9344 51.0369C17.2017 51.1035 17.7405 51.2957 18.2504 51.8056C18.7603 52.3155 18.9525 52.8543 19.0191 53.1216C19.0747 53.345 19.056 53.4295 19.056 53.224H11.056C11.056 53.9735 11.078 55.9468 12.5936 57.4624C14.1092 58.978 16.0825 59 16.832 59V51ZM19.056 53.224V40.936H11.056V53.224H19.056ZM19.056 40.936C19.056 39.1391 19.1147 38.6715 19.5593 37.1894L11.8967 34.8906C11.1893 37.2485 11.056 38.5089 11.056 40.936H19.056ZM19.561 37.1836L23.929 22.5436L16.263 20.2564L11.895 34.8964L19.561 37.1836ZM23.9421 22.4989C24.0002 22.2956 24.0435 22.1611 24.0758 22.0711C24.1083 21.9808 24.1171 21.9712 24.097 22.0099C24.0751 22.0525 24.0128 22.1644 23.896 22.3055C23.7736 22.4533 23.6157 22.6038 23.4248 22.7356C23.0383 23.0024 22.7341 23.0445 22.7786 23.0371C22.8003 23.0335 22.876 23.0227 23.0302 23.0139C23.1831 23.0052 23.3829 23 23.648 23V15C22.519 15 20.541 15.005 18.8792 16.1524C17.0736 17.3991 16.5205 19.3539 16.2499 20.3011L23.9421 22.4989ZM23.648 23H25.376V15H23.648V23ZM25.376 23C25.6411 23 25.8409 23.0052 25.9938 23.0139C26.148 23.0227 26.2237 23.0335 26.2454 23.0371C26.2899 23.0445 25.9857 23.0024 25.5992 22.7356C25.4083 22.6038 25.2504 22.4533 25.128 22.3055C25.0112 22.1644 24.9489 22.0525 24.927 22.0099C24.9069 21.9712 24.9157 21.9808 24.9482 22.0711C24.9805 22.1611 25.0238 22.2956 25.0819 22.4989L32.7741 20.3011C32.5035 19.3539 31.9504 17.3991 30.1448 16.1524C28.483 15.005 26.505 15 25.376 15V23ZM25.095 22.5436L29.463 37.1836L37.129 34.8964L32.761 20.2564L25.095 22.5436ZM29.4729 37.2163C29.9051 38.621 29.968 39.1212 29.968 40.936H37.968C37.968 38.5268 37.8389 37.203 37.1191 34.8637L29.4729 37.2163ZM29.968 40.936V53.224H37.968V40.936H29.968ZM29.968 53.224C29.968 53.4295 29.9493 53.345 30.0049 53.1216C30.0715 52.8543 30.2637 52.3155 30.7736 51.8056C31.2835 51.2957 31.8223 51.1035 32.0896 51.0369C32.313 50.9813 32.3975 51 32.192 51V59C32.9415 59 34.9148 58.978 36.4304 57.4624C37.946 55.9468 37.968 53.9735 37.968 53.224H29.968ZM32.192 51H29.12V59H32.192V51ZM29.12 51C28.9145 51 28.999 50.9813 29.2224 51.0369C29.4897 51.1035 30.0285 51.2957 30.5384 51.8056C31.0483 52.3155 31.2405 52.8543 31.3071 53.1216C31.3627 53.345 31.344 53.4295 31.344 53.224H23.344C23.344 53.9735 23.366 55.9468 24.8816 57.4624C26.3972 58.978 28.3705 59 29.12 59V51ZM31.344 53.224V46.888H23.344V53.224H31.344ZM31.344 46.888C31.344 46.4683 31.3599 44.743 29.9924 43.3756C28.625 42.0081 26.8997 42.024 26.48 42.024V50.024C26.4731 50.024 26.4199 50.0239 26.3344 50.0159C26.2499 50.0079 26.103 49.9893 25.9162 49.942C25.527 49.8434 24.9059 49.6027 24.3356 49.0324C23.7653 48.4621 23.5246 47.841 23.426 47.4518C23.3787 47.265 23.3601 47.1181 23.3521 47.0336C23.3441 46.9481 23.344 46.8949 23.344 46.888H31.344ZM26.48 42.024H22.544V50.024H26.48V42.024ZM22.544 42.024C22.1243 42.024 20.399 42.0081 19.0316 43.3756C17.6641 44.743 17.68 46.4683 17.68 46.888H25.68C25.68 46.8949 25.6799 46.9481 25.6719 47.0336C25.6639 47.1181 25.6453 47.265 25.598 47.4518C25.4994 47.841 25.2587 48.4621 24.6884 49.0324C24.1181 49.6027 23.497 49.8434 23.1078 49.942C22.921 49.9893 22.7741 50.0079 22.6896 50.0159C22.6041 50.0239 22.5509 50.024 22.544 50.024V42.024ZM17.68 46.888V53.224H25.68V46.888H17.68ZM26.624 43.304C27.251 43.304 28.4693 43.212 29.6076 42.3707C30.978 41.3578 31.44 39.8759 31.44 38.68H23.44C23.44 38.3483 23.4953 37.8628 23.7358 37.3255C23.9873 36.7638 24.3788 36.2874 24.8524 35.9373C25.7147 35.3 26.525 35.304 26.624 35.304V43.304ZM31.44 38.68C31.44 37.9759 31.2999 37.3433 31.2663 37.1755L23.4217 38.7445C23.4279 38.7754 23.4327 38.7995 23.4372 38.8227C23.4417 38.8451 23.445 38.8626 23.4478 38.8771C23.4534 38.907 23.4547 38.9164 23.4543 38.9134C23.4537 38.9098 23.4503 38.8866 23.447 38.8487C23.4436 38.8104 23.44 38.7529 23.44 38.68H31.44ZM31.235 37.0326L29.027 27.7686L21.245 29.6234L23.453 38.8874L31.235 37.0326ZM29.0583 27.9115C29.0384 27.8117 28.8357 26.3831 27.6793 25.3038C26.3471 24.0604 24.7376 24.12 24.512 24.12V32.12C24.4975 32.12 24.4329 32.1198 24.3372 32.1121C24.2422 32.1044 24.0795 32.0865 23.8758 32.0394C23.4312 31.9364 22.8016 31.6943 22.2207 31.1522C21.6733 30.6413 21.425 30.1001 21.3225 29.8321C21.2294 29.5884 21.2016 29.42 21.2137 29.4805L29.0583 27.9115ZM24.512 24.12C24.2864 24.12 22.6769 24.0604 21.3447 25.3038C20.1883 26.3831 19.9856 27.8117 19.9657 27.9115L27.8103 29.4805C27.8224 29.42 27.7946 29.5884 27.7015 29.832C27.599 30.1001 27.3507 30.6413 26.8033 31.1522C26.2224 31.6943 25.5928 31.9364 25.1482 32.0394C24.9445 32.0865 24.7818 32.1044 24.6868 32.1121C24.5911 32.1198 24.5265 32.12 24.512 32.12V24.12ZM19.997 27.7686L17.789 37.0326L25.571 38.8874L27.779 29.6234L19.997 27.7686ZM17.7577 37.1755C17.7241 37.3433 17.584 37.9759 17.584 38.68H25.584C25.584 38.7529 25.5804 38.8104 25.577 38.8487C25.5737 38.8866 25.5703 38.9098 25.5697 38.9134C25.5693 38.9164 25.5706 38.907 25.5762 38.8772C25.579 38.8626 25.5823 38.8451 25.5868 38.8227C25.5913 38.7996 25.5961 38.7755 25.6023 38.7445L17.7577 37.1755ZM17.584 38.68C17.584 39.8759 18.046 41.3578 19.4164 42.3707C20.5547 43.212 21.773 43.304 22.4 43.304V35.304C22.499 35.304 23.3093 35.3 24.1716 35.9373C24.6452 36.2874 25.0367 36.7638 25.2882 37.3255C25.5287 37.8628 25.584 38.3483 25.584 38.68H17.584ZM22.4 43.304H26.624V35.304H22.4V43.304ZM53.1005 35.992L50.4014 33.0399L50.3354 33.1003L50.2721 33.1636L53.1005 35.992ZM53.1005 36.568L50.2721 39.3964L50.4152 39.5395L50.572 39.6675L53.1005 36.568ZM38.6525 51C38.447 51 38.5315 50.9813 38.7549 51.0369C39.0222 51.1035 39.561 51.2957 40.0709 51.8056C40.5808 52.3155 40.773 52.8543 40.8396 53.1216C40.8952 53.345 40.8765 53.4295 40.8765 53.224H32.8765C32.8765 53.9735 32.8985 55.9468 34.4141 57.4624C35.9297 58.978 37.903 59 38.6525 59V51ZM40.8765 53.224V20.776H32.8765V53.224H40.8765ZM40.8765 20.776C40.8765 20.5705 40.8952 20.655 40.8396 20.8784C40.773 21.1457 40.5808 21.6845 40.0709 22.1944C39.561 22.7043 39.0222 22.8965 38.7549 22.9631C38.5315 23.0187 38.447 23 38.6525 23V15C37.903 15 35.9297 15.022 34.4141 16.5376C32.8985 18.0532 32.8765 20.0265 32.8765 20.776H40.8765ZM38.6525 23H45.4685V15H38.6525V23ZM45.4685 23C48.588 23 49.9909 23.6064 50.5938 24.1049C51.0259 24.4621 51.5965 25.2163 51.5965 27.4H59.5965C59.5965 23.7757 58.5831 20.3299 55.6912 17.9391C52.9701 15.6896 49.309 15 45.4685 15V23ZM51.5965 27.4V30.184H59.5965V27.4H51.5965ZM51.5965 30.184C51.5965 31.5764 51.2383 32.2747 50.4014 33.0399L55.7996 38.9441C58.3227 36.6373 59.5965 33.7836 59.5965 30.184H51.5965ZM50.2721 33.1636C50.2498 33.1858 50.1732 33.2619 50.0994 33.3402C50.0275 33.4165 49.8654 33.5912 49.6956 33.829C49.2195 34.4955 48.9085 35.3344 48.9085 36.28H56.9085C56.9085 36.6064 56.8653 37.0229 56.713 37.4797C56.5641 37.9264 56.3607 38.2615 56.2054 38.479C56.0656 38.6748 55.9425 38.8045 55.9201 38.8283C55.8958 38.8541 55.8792 38.8702 55.9289 38.8204L50.2721 33.1636ZM48.9085 36.28C48.9085 37.2256 49.2195 38.0645 49.6956 38.731C49.8654 38.9688 50.0275 39.1435 50.0994 39.2198C50.1732 39.2981 50.2498 39.3742 50.2721 39.3964L55.9289 33.7396C55.8792 33.6898 55.8958 33.7059 55.9201 33.7317C55.9425 33.7555 56.0656 33.8852 56.2054 34.081C56.3607 34.2985 56.5641 34.6336 56.713 35.0803C56.8653 35.5371 56.9085 35.9536 56.9085 36.28H48.9085ZM50.572 39.6675C51.2001 40.1798 51.4553 40.5332 51.5844 40.7879C51.7035 41.023 51.8365 41.4115 51.8365 42.184H59.8365C59.8365 40.4125 59.5135 38.737 58.7206 37.1721C57.9377 35.6268 56.8249 34.4442 55.629 33.4685L50.572 39.6675ZM51.8365 42.184V46.84H59.8365V42.184H51.8365ZM51.8365 46.84C51.8365 48.7914 51.3005 49.4738 50.8233 49.8424C50.121 50.3849 48.5421 51 45.2285 51V59C49.2109 59 52.936 58.3191 55.7137 56.1736C58.7165 53.8542 59.8365 50.4566 59.8365 46.84H51.8365ZM45.2285 51H38.6525V59H45.2285V51ZM39.5005 26.584V32.104H47.5005V26.584H39.5005ZM39.5005 32.104C39.5005 32.5237 39.4846 34.249 40.8521 35.6164C42.2195 36.9839 43.9448 36.968 44.3645 36.968V28.968C44.3714 28.968 44.4246 28.968 44.5101 28.9761C44.5946 28.9841 44.7415 29.0027 44.9283 29.05C45.3175 29.1486 45.9386 29.3893 46.5089 29.9596C47.0792 30.5299 47.3199 31.151 47.4185 31.5402C47.4658 31.727 47.4844 31.8739 47.4924 31.9584C47.5004 32.0439 47.5005 32.0971 47.5005 32.104H39.5005ZM44.3645 36.968H45.3725V28.968H44.3645V36.968ZM45.3725 36.968C46.848 36.968 48.8779 36.7455 50.529 35.3608C52.3514 33.8323 52.7805 31.7138 52.7805 30.04H44.7805C44.7805 30.2549 44.751 30.2103 44.8194 30.0221C44.9027 29.7928 45.083 29.4871 45.3881 29.2312C45.6706 28.9943 45.9012 28.9335 45.9096 28.9313C45.9131 28.9305 45.874 28.9405 45.7801 28.9503C45.6865 28.9601 45.5532 28.968 45.3725 28.968V36.968ZM52.7805 30.04V28.648H44.7805V30.04H52.7805ZM52.7805 28.648C52.7805 26.9742 52.3514 24.8557 50.5289 23.3272C48.8779 21.9425 46.848 21.72 45.3725 21.72V29.72C45.5532 29.72 45.6865 29.7279 45.7801 29.7377C45.874 29.7475 45.9131 29.7575 45.9096 29.7567C45.9012 29.7545 45.6706 29.6937 45.3881 29.4568C45.083 29.2009 44.9027 28.8952 44.8194 28.6659C44.751 28.4777 44.7805 28.4331 44.7805 28.648H52.7805ZM45.3725 21.72H44.3645V29.72H45.3725V21.72ZM44.3645 21.72C43.9448 21.72 42.2195 21.7041 40.8521 23.0716C39.4846 24.439 39.5005 26.1643 39.5005 26.584H47.5005C47.5005 26.5909 47.5004 26.6441 47.4924 26.7296C47.4844 26.8141 47.4658 26.961 47.4185 27.1478C47.3199 27.537 47.0792 28.1581 46.5089 28.7284C45.9386 29.2987 45.3175 29.5394 44.9283 29.638C44.7415 29.6853 44.5946 29.7039 44.5101 29.7119C44.4246 29.7199 44.3714 29.72 44.3645 29.72V21.72ZM45.6125 52.28C47.088 52.28 49.1179 52.0575 50.769 50.6728C52.5914 49.1443 53.0205 47.0258 53.0205 45.352H45.0205C45.0205 45.5669 44.991 45.5223 45.0594 45.3341C45.1427 45.1048 45.323 44.7991 45.6281 44.5432C45.9106 44.3063 46.1412 44.2455 46.1496 44.2433C46.1531 44.2425 46.114 44.2525 46.0201 44.2623C45.9265 44.2721 45.7932 44.28 45.6125 44.28V52.28ZM53.0205 45.352V42.616H45.0205V45.352H53.0205ZM53.0205 42.616C53.0205 40.9422 52.5914 38.8237 50.7689 37.2952C49.1179 35.9105 47.088 35.688 45.6125 35.688V43.688C45.7932 43.688 45.9265 43.6959 46.0201 43.7057C46.114 43.7155 46.1531 43.7255 46.1496 43.7247C46.1412 43.7225 45.9106 43.6617 45.6281 43.4248C45.323 43.1689 45.1427 42.8632 45.0594 42.6339C44.991 42.4457 45.0205 42.4011 45.0205 42.616H53.0205ZM45.6125 35.688H44.3645V43.688H45.6125V35.688ZM44.3645 35.688C43.9448 35.688 42.2195 35.6721 40.8521 37.0396C39.4846 38.407 39.5005 40.1323 39.5005 40.552H47.5005C47.5005 40.5589 47.5004 40.6121 47.4924 40.6976C47.4844 40.7821 47.4658 40.929 47.4185 41.1158C47.3199 41.505 47.0792 42.1261 46.5089 42.6964C45.9386 43.2667 45.3175 43.5074 44.9283 43.606C44.7415 43.6533 44.5946 43.6719 44.5101 43.6799C44.4246 43.6879 44.3714 43.688 44.3645 43.688V35.688ZM39.5005 40.552V47.416H47.5005V40.552H39.5005ZM39.5005 47.416C39.5005 47.8357 39.4846 49.561 40.8521 50.9284C42.2195 52.2959 43.9448 52.28 44.3645 52.28V44.28C44.3714 44.28 44.4246 44.2801 44.5101 44.2881C44.5946 44.2961 44.7415 44.3147 44.9283 44.362C45.3175 44.4606 45.9386 44.7013 46.5089 45.2716C47.0792 45.8419 47.3199 46.463 47.4185 46.8522C47.4658 47.039 47.4844 47.1859 47.4924 47.2704C47.5004 47.3559 47.5005 47.4091 47.5005 47.416H39.5005ZM44.3645 52.28H45.6125V44.28H44.3645V52.28ZM73.1433 44.44C73.1433 48.3584 72.531 49.8585 72.0406 50.4506C71.7346 50.8201 70.9309 51.48 67.8793 51.48V59.48C71.7876 59.48 75.6159 58.6759 78.2019 55.5534C80.6035 52.6535 81.1433 48.6336 81.1433 44.44H73.1433ZM67.8793 51.48C64.8276 51.48 64.0239 50.8201 63.7179 50.4506C63.2275 49.8585 62.6152 48.3584 62.6152 44.44H54.6152C54.6152 48.6336 55.155 52.6535 57.5566 55.5534C60.1426 58.6759 63.9709 59.48 67.8793 59.48V51.48ZM62.6152 44.44V29.56H54.6152V44.44H62.6152ZM62.6152 29.56C62.6152 25.6722 63.2252 24.1643 63.7222 23.5622C64.0344 23.184 64.8442 22.52 67.8793 22.52V14.52C63.9543 14.52 60.1321 15.344 57.5523 18.4698C55.1573 21.3717 54.6152 25.3838 54.6152 29.56H62.6152ZM67.8793 22.52C70.9143 22.52 71.7242 23.184 72.0363 23.5622C72.5333 24.1643 73.1433 25.6722 73.1433 29.56H81.1433C81.1433 25.3838 80.6012 21.3717 78.2062 18.4698C75.6264 15.344 71.8042 14.52 67.8793 14.52V22.52ZM73.1433 29.56V44.44H81.1433V29.56H73.1433ZM61.4313 46.072C61.4313 47.434 61.6807 49.3389 63.097 50.8609C64.5785 52.453 66.5132 52.76 67.8793 52.76V44.76C67.5653 44.76 68.276 44.683 68.9535 45.4111C69.5658 46.0691 69.4313 46.63 69.4313 46.072H61.4313ZM67.8793 52.76C69.2453 52.76 71.18 52.453 72.6615 50.8609C74.0778 49.3389 74.3273 47.434 74.3273 46.072H66.3273C66.3273 46.63 66.1927 46.0691 66.805 45.4111C67.4825 44.683 68.1932 44.76 67.8793 44.76V52.76ZM74.3273 46.072V28.168H66.3273V46.072H74.3273ZM74.3273 28.168C74.3273 26.7831 74.1062 24.8641 72.7675 23.3056C71.298 21.5948 69.3116 21.24 67.8793 21.24V29.24C67.9958 29.24 67.8768 29.2569 67.6315 29.1697C67.3461 29.0683 66.9938 28.8616 66.699 28.5184C66.4216 28.1954 66.3321 27.9113 66.3126 27.8371C66.2973 27.7788 66.3273 27.8623 66.3273 28.168H74.3273ZM67.8793 21.24C66.4469 21.24 64.4605 21.5948 62.991 23.3056C61.6523 24.8641 61.4313 26.7831 61.4313 28.168H69.4313C69.4313 27.8623 69.4612 27.7788 69.4459 27.8371C69.4264 27.9113 69.3369 28.1954 69.0595 28.5184C68.7647 28.8616 68.4124 29.0683 68.127 29.1697C67.8817 29.2569 67.7627 29.24 67.8793 29.24V21.24ZM61.4313 28.168V46.072H69.4313V28.168H61.4313ZM96.4624 20.776C96.4624 20.5705 96.4811 20.655 96.4254 20.8784C96.3588 21.1457 96.1667 21.6845 95.6568 22.1944C95.1469 22.7043 94.608 22.8965 94.3408 22.9631C94.1174 23.0187 94.0329 23 94.2384 23V15C93.4889 15 91.5155 15.022 89.9999 16.5376C88.4844 18.0532 88.4624 20.0265 88.4624 20.776H96.4624ZM94.2384 23H97.3104V15H94.2384V23ZM97.3104 23C97.5158 23 97.4314 23.0187 97.2079 22.9631C96.9407 22.8965 96.4018 22.7043 95.8919 22.1944C95.3821 21.6845 95.1899 21.1457 95.1233 20.8784C95.0676 20.655 95.0864 20.5705 95.0864 20.776H103.086C103.086 20.0265 103.064 18.0532 101.549 16.5376C100.033 15.022 98.0599 15 97.3104 15V23ZM95.0864 20.776V44.92H103.086V20.776H95.0864ZM95.0864 44.92C95.0864 48.6191 94.481 49.9697 94.0373 50.4832C93.74 50.8275 92.9086 51.48 89.8224 51.48V59.48C93.6962 59.48 97.4968 58.7165 100.091 55.7128C102.54 52.8783 103.086 48.9489 103.086 44.92H95.0864ZM89.8224 51.48C86.7362 51.48 85.9048 50.8275 85.6074 50.4832C85.1638 49.9697 84.5584 48.6191 84.5584 44.92H76.5584C76.5584 48.9489 77.105 52.8783 79.5533 55.7128C82.148 58.7165 85.9486 59.48 89.8224 59.48V51.48ZM84.5584 44.92V20.776H76.5584V44.92H84.5584ZM84.5584 20.776C84.5584 20.5705 84.5771 20.655 84.5214 20.8784C84.4548 21.1457 84.2627 21.6845 83.7528 22.1944C83.2429 22.7043 82.704 22.8965 82.4368 22.9631C82.2134 23.0187 82.1289 23 82.3344 23V15C81.5849 15 79.6115 15.022 78.0959 16.5376C76.5804 18.0532 76.5584 20.0265 76.5584 20.776H84.5584ZM82.3344 23H85.4064V15H82.3344V23ZM85.4064 23C85.6118 23 85.5274 23.0187 85.3039 22.9631C85.0367 22.8965 84.4978 22.7043 83.9879 22.1944C83.4781 21.6845 83.2859 21.1457 83.2193 20.8784C83.1636 20.655 83.1824 20.5705 83.1824 20.776H91.1824C91.1824 20.0265 91.1604 18.0532 89.6448 16.5376C88.1292 15.022 86.1559 15 85.4064 15V23ZM83.1824 20.776V46.072H91.1824V20.776H83.1824ZM83.1824 46.072C83.1824 47.4837 83.4656 49.4401 84.9899 50.9644C86.5163 52.4908 88.4632 52.76 89.8224 52.76V44.76C89.3575 44.76 89.9844 44.6452 90.6468 45.3076C91.3071 45.9679 91.1824 46.5803 91.1824 46.072H83.1824ZM89.8224 52.76C91.1859 52.76 93.102 52.4784 94.6172 50.9839C96.1419 49.4801 96.4624 47.5389 96.4624 46.072H88.4624C88.4624 46.5251 88.3509 45.9279 88.9995 45.2881C89.6388 44.6576 90.2349 44.76 89.8224 44.76V52.76ZM96.4624 46.072V20.776H88.4624V46.072H96.4624ZM116.662 21.72H113.686V29.72H116.662V21.72ZM113.686 21.72C113.266 21.72 111.541 21.7041 110.173 23.0716C108.806 24.439 108.822 26.1643 108.822 26.584H116.822C116.822 26.5909 116.821 26.6441 116.813 26.7296C116.805 26.8141 116.787 26.961 116.74 27.1478C116.641 27.537 116.4 28.1581 115.83 28.7284C115.26 29.2987 114.639 29.5394 114.249 29.638C114.063 29.6853 113.916 29.7039 113.831 29.7119C113.746 29.7199 113.692 29.72 113.686 29.72V21.72ZM108.822 26.584V53.224H116.822V26.584H108.822ZM108.822 53.224C108.822 53.4295 108.803 53.345 108.858 53.1216C108.925 52.8543 109.117 52.3155 109.627 51.8056C110.137 51.2957 110.676 51.1035 110.943 51.0369C111.166 50.9813 111.251 51 111.046 51V59C111.795 59 113.768 58.978 115.284 57.4624C116.8 55.9468 116.822 53.9735 116.822 53.224H108.822ZM111.046 51H107.974V59H111.046V51ZM107.974 51C107.768 51 107.853 50.9813 108.076 51.0369C108.343 51.1035 108.882 51.2957 109.392 51.8056C109.902 52.3155 110.094 52.8543 110.161 53.1216C110.216 53.345 110.198 53.4295 110.198 53.224H102.198C102.198 53.9735 102.219 55.9468 103.735 57.4624C105.251 58.978 107.224 59 107.974 59V51ZM110.198 53.224V26.584H102.198V53.224H110.198ZM110.198 26.584C110.198 26.1643 110.213 24.439 108.846 23.0716C107.478 21.7041 105.753 21.72 105.334 21.72V29.72C105.327 29.72 105.273 29.7199 105.188 29.7119C105.103 29.7039 104.956 29.6853 104.77 29.638C104.38 29.5394 103.759 29.2987 103.189 28.7284C102.619 28.1581 102.378 27.537 102.279 27.1478C102.232 26.961 102.214 26.8141 102.206 26.7296C102.198 26.6441 102.198 26.5909 102.198 26.584H110.198ZM105.334 21.72H102.358V29.72H105.334V21.72ZM102.358 21.72C102.152 21.72 102.237 21.7013 102.46 21.7569C102.727 21.8235 103.266 22.0157 103.776 22.5256C104.286 23.0355 104.478 23.5743 104.545 23.8416C104.6 24.065 104.582 24.1495 104.582 23.944H96.5815C96.5815 24.6935 96.6035 26.6668 98.1191 28.1824C99.6347 29.698 101.608 29.72 102.358 29.72V21.72ZM104.582 23.944V20.776H96.5815V23.944H104.582ZM104.582 20.776C104.582 20.5705 104.6 20.655 104.545 20.8784C104.478 21.1457 104.286 21.6845 103.776 22.1944C103.266 22.7043 102.727 22.8965 102.46 22.9631C102.237 23.0187 102.152 23 102.358 23V15C101.608 15 99.6347 15.022 98.1191 16.5376C96.6035 18.0532 96.5815 20.0265 96.5815 20.776H104.582ZM102.358 23H116.662V15H102.358V23ZM116.662 23C116.867 23 116.782 23.0187 116.559 22.9631C116.292 22.8965 115.753 22.7043 115.243 22.1944C114.733 21.6845 114.541 21.1457 114.474 20.8784C114.419 20.655 114.438 20.5705 114.438 20.776H122.438C122.438 20.0265 122.416 18.0532 120.9 16.5376C119.384 15.022 117.411 15 116.662 15V23ZM114.438 20.776V23.944H122.438V20.776H114.438ZM114.438 23.944C114.438 24.1495 114.419 24.065 114.474 23.8416C114.541 23.5743 114.733 23.0355 115.243 22.5256C115.753 22.0157 116.292 21.8235 116.559 21.7569C116.782 21.7013 116.867 21.72 116.662 21.72V29.72C117.411 29.72 119.384 29.698 120.9 28.1824C122.416 26.6668 122.438 24.6935 122.438 23.944H114.438Z" fill="black" mask="url(#path-1-outside-1_135_808)"/>
<mask id="path-3-outside-2_135_808" maskUnits="userSpaceOnUse" x="13" y="11" width="112" height="46" fill="black">
<rect fill="white" x="13" y="11" width="112" height="46"/>
<path d="M23.68 50.224C23.68 51.616 23.296 52 21.904 52H18.832C17.44 52 17.056 51.616 17.056 50.224V37.936C17.056 35.824 17.152 34.96 17.728 33.04L22.096 18.4C22.672 16.384 23.152 16 25.648 16H27.376C29.872 16 30.352 16.384 30.928 18.4L35.296 33.04C35.872 34.912 35.968 35.824 35.968 37.936V50.224C35.968 51.616 35.584 52 34.192 52H31.12C29.728 52 29.344 51.616 29.344 50.224V43.888C29.344 43.216 29.152 43.024 28.48 43.024H24.544C23.872 43.024 23.68 43.216 23.68 43.888V50.224ZM28.624 36.304C29.152 36.304 29.44 36.112 29.44 35.68C29.44 35.44 29.392 35.2 29.344 34.96L27.136 25.696C27.04 25.216 26.944 25.12 26.512 25.12C26.08 25.12 25.984 25.216 25.888 25.696L23.68 34.96C23.632 35.2 23.584 35.44 23.584 35.68C23.584 36.112 23.872 36.304 24.4 36.304H28.624ZM40.6525 52C39.2605 52 38.8765 51.616 38.8765 50.224V17.776C38.8765 16.384 39.2605 16 40.6525 16H47.4685C54.4285 16 57.5965 18.592 57.5965 24.4V27.184C57.5965 29.68 56.7805 31.456 55.1005 32.992C54.9565 33.136 54.9085 33.184 54.9085 33.28C54.9085 33.376 54.9565 33.424 55.1005 33.568C56.9245 35.056 57.8365 36.64 57.8365 39.184V43.84C57.8365 49.408 54.5245 52 47.2285 52H40.6525ZM45.5005 23.584V29.104C45.5005 29.776 45.6925 29.968 46.3645 29.968H47.3725C49.7245 29.968 50.7805 29.152 50.7805 27.04V25.648C50.7805 23.536 49.7245 22.72 47.3725 22.72H46.3645C45.6925 22.72 45.5005 22.912 45.5005 23.584ZM47.6125 45.28C49.9645 45.28 51.0205 44.464 51.0205 42.352V39.616C51.0205 37.504 49.9645 36.688 47.6125 36.688H46.3645C45.6925 36.688 45.5005 36.88 45.5005 37.552V44.416C45.5005 45.088 45.6925 45.28 46.3645 45.28H47.6125ZM79.1433 41.44C79.1433 49.552 76.8393 52.48 69.8793 52.48C62.9193 52.48 60.6152 49.552 60.6152 41.44V26.56C60.6152 18.496 62.9193 15.52 69.8793 15.52C76.8393 15.52 79.1433 18.496 79.1433 26.56V41.44ZM67.4313 43.072C67.4313 44.992 68.1993 45.76 69.8793 45.76C71.5593 45.76 72.3273 44.992 72.3273 43.072V25.168C72.3273 23.056 71.5593 22.24 69.8793 22.24C68.1993 22.24 67.4313 23.056 67.4313 25.168V43.072ZM94.4624 17.776C94.4624 16.384 94.8464 16 96.2384 16H99.3104C100.702 16 101.086 16.384 101.086 17.776V41.92C101.086 49.648 98.7824 52.48 91.8224 52.48C84.8624 52.48 82.5584 49.648 82.5584 41.92V17.776C82.5584 16.384 82.9424 16 84.3344 16H87.4064C88.7984 16 89.1824 16.384 89.1824 17.776V43.072C89.1824 44.992 89.9984 45.76 91.8224 45.76C93.5984 45.76 94.4624 44.992 94.4624 43.072V17.776ZM118.662 22.72H115.686C115.014 22.72 114.822 22.912 114.822 23.584V50.224C114.822 51.616 114.438 52 113.046 52H109.974C108.582 52 108.198 51.616 108.198 50.224V23.584C108.198 22.912 108.006 22.72 107.334 22.72H104.358C102.966 22.72 102.582 22.336 102.582 20.944V17.776C102.582 16.384 102.966 16 104.358 16H118.662C120.054 16 120.438 16.384 120.438 17.776V20.944C120.438 22.336 120.054 22.72 118.662 22.72Z"/>
</mask>
<path d="M23.68 50.224C23.68 51.616 23.296 52 21.904 52H18.832C17.44 52 17.056 51.616 17.056 50.224V37.936C17.056 35.824 17.152 34.96 17.728 33.04L22.096 18.4C22.672 16.384 23.152 16 25.648 16H27.376C29.872 16 30.352 16.384 30.928 18.4L35.296 33.04C35.872 34.912 35.968 35.824 35.968 37.936V50.224C35.968 51.616 35.584 52 34.192 52H31.12C29.728 52 29.344 51.616 29.344 50.224V43.888C29.344 43.216 29.152 43.024 28.48 43.024H24.544C23.872 43.024 23.68 43.216 23.68 43.888V50.224ZM28.624 36.304C29.152 36.304 29.44 36.112 29.44 35.68C29.44 35.44 29.392 35.2 29.344 34.96L27.136 25.696C27.04 25.216 26.944 25.12 26.512 25.12C26.08 25.12 25.984 25.216 25.888 25.696L23.68 34.96C23.632 35.2 23.584 35.44 23.584 35.68C23.584 36.112 23.872 36.304 24.4 36.304H28.624ZM40.6525 52C39.2605 52 38.8765 51.616 38.8765 50.224V17.776C38.8765 16.384 39.2605 16 40.6525 16H47.4685C54.4285 16 57.5965 18.592 57.5965 24.4V27.184C57.5965 29.68 56.7805 31.456 55.1005 32.992C54.9565 33.136 54.9085 33.184 54.9085 33.28C54.9085 33.376 54.9565 33.424 55.1005 33.568C56.9245 35.056 57.8365 36.64 57.8365 39.184V43.84C57.8365 49.408 54.5245 52 47.2285 52H40.6525ZM45.5005 23.584V29.104C45.5005 29.776 45.6925 29.968 46.3645 29.968H47.3725C49.7245 29.968 50.7805 29.152 50.7805 27.04V25.648C50.7805 23.536 49.7245 22.72 47.3725 22.72H46.3645C45.6925 22.72 45.5005 22.912 45.5005 23.584ZM47.6125 45.28C49.9645 45.28 51.0205 44.464 51.0205 42.352V39.616C51.0205 37.504 49.9645 36.688 47.6125 36.688H46.3645C45.6925 36.688 45.5005 36.88 45.5005 37.552V44.416C45.5005 45.088 45.6925 45.28 46.3645 45.28H47.6125ZM79.1433 41.44C79.1433 49.552 76.8393 52.48 69.8793 52.48C62.9193 52.48 60.6152 49.552 60.6152 41.44V26.56C60.6152 18.496 62.9193 15.52 69.8793 15.52C76.8393 15.52 79.1433 18.496 79.1433 26.56V41.44ZM67.4313 43.072C67.4313 44.992 68.1993 45.76 69.8793 45.76C71.5593 45.76 72.3273 44.992 72.3273 43.072V25.168C72.3273 23.056 71.5593 22.24 69.8793 22.24C68.1993 22.24 67.4313 23.056 67.4313 25.168V43.072ZM94.4624 17.776C94.4624 16.384 94.8464 16 96.2384 16H99.3104C100.702 16 101.086 16.384 101.086 17.776V41.92C101.086 49.648 98.7824 52.48 91.8224 52.48C84.8624 52.48 82.5584 49.648 82.5584 41.92V17.776C82.5584 16.384 82.9424 16 84.3344 16H87.4064C88.7984 16 89.1824 16.384 89.1824 17.776V43.072C89.1824 44.992 89.9984 45.76 91.8224 45.76C93.5984 45.76 94.4624 44.992 94.4624 43.072V17.776ZM118.662 22.72H115.686C115.014 22.72 114.822 22.912 114.822 23.584V50.224C114.822 51.616 114.438 52 113.046 52H109.974C108.582 52 108.198 51.616 108.198 50.224V23.584C108.198 22.912 108.006 22.72 107.334 22.72H104.358C102.966 22.72 102.582 22.336 102.582 20.944V17.776C102.582 16.384 102.966 16 104.358 16H118.662C120.054 16 120.438 16.384 120.438 17.776V20.944C120.438 22.336 120.054 22.72 118.662 22.72Z" fill="white"/>
<path d="M17.728 33.04L21.5593 34.1894L21.561 34.1836L17.728 33.04ZM22.096 18.4L25.929 19.5436L25.9357 19.5213L25.9421 19.4989L22.096 18.4ZM30.928 18.4L27.0819 19.4989L27.0883 19.5213L27.095 19.5436L30.928 18.4ZM35.296 33.04L31.463 34.1836L31.4679 34.2L31.4729 34.2163L35.296 33.04ZM29.344 34.96L33.2663 34.1755L33.252 34.1038L33.235 34.0326L29.344 34.96ZM27.136 25.696L23.2137 26.4805L23.228 26.5522L23.245 26.6234L27.136 25.696ZM25.888 25.696L29.779 26.6234L29.796 26.5522L29.8103 26.4805L25.888 25.696ZM23.68 34.96L19.789 34.0326L19.772 34.1038L19.7577 34.1755L23.68 34.96ZM19.68 50.224C19.68 50.4295 19.6613 50.345 19.7169 50.1216C19.7835 49.8543 19.9757 49.3155 20.4856 48.8056C20.9955 48.2957 21.5343 48.1035 21.8016 48.0369C22.025 47.9813 22.1095 48 21.904 48V56C22.6535 56 24.6268 55.978 26.1424 54.4624C27.658 52.9468 27.68 50.9735 27.68 50.224H19.68ZM21.904 48H18.832V56H21.904V48ZM18.832 48C18.6265 48 18.711 47.9813 18.9344 48.0369C19.2017 48.1035 19.7405 48.2957 20.2504 48.8056C20.7603 49.3155 20.9525 49.8543 21.0191 50.1216C21.0747 50.345 21.056 50.4295 21.056 50.224H13.056C13.056 50.9735 13.078 52.9468 14.5936 54.4624C16.1092 55.978 18.0825 56 18.832 56V48ZM21.056 50.224V37.936H13.056V50.224H21.056ZM21.056 37.936C21.056 36.1391 21.1147 35.6715 21.5593 34.1894L13.8967 31.8906C13.1893 34.2485 13.056 35.5089 13.056 37.936H21.056ZM21.561 34.1836L25.929 19.5436L18.263 17.2564L13.895 31.8964L21.561 34.1836ZM25.9421 19.4989C26.0002 19.2956 26.0435 19.1611 26.0758 19.0711C26.1083 18.9808 26.1171 18.9712 26.097 19.0099C26.0751 19.0525 26.0128 19.1644 25.896 19.3055C25.7736 19.4533 25.6157 19.6038 25.4248 19.7356C25.0383 20.0024 24.7341 20.0445 24.7786 20.0371C24.8003 20.0335 24.876 20.0227 25.0302 20.0139C25.1831 20.0052 25.3829 20 25.648 20V12C24.519 12 22.541 12.005 20.8792 13.1524C19.0736 14.3991 18.5205 16.3539 18.2499 17.3011L25.9421 19.4989ZM25.648 20H27.376V12H25.648V20ZM27.376 20C27.6411 20 27.8409 20.0052 27.9938 20.0139C28.148 20.0227 28.2237 20.0335 28.2454 20.0371C28.2899 20.0445 27.9857 20.0024 27.5992 19.7356C27.4083 19.6038 27.2504 19.4533 27.128 19.3055C27.0112 19.1644 26.9489 19.0525 26.927 19.0099C26.9069 18.9712 26.9157 18.9808 26.9482 19.0711C26.9805 19.1611 27.0238 19.2956 27.0819 19.4989L34.7741 17.3011C34.5035 16.3539 33.9504 14.3991 32.1448 13.1524C30.483 12.005 28.505 12 27.376 12V20ZM27.095 19.5436L31.463 34.1836L39.129 31.8964L34.761 17.2564L27.095 19.5436ZM31.4729 34.2163C31.9051 35.621 31.968 36.1212 31.968 37.936H39.968C39.968 35.5268 39.8389 34.203 39.1191 31.8637L31.4729 34.2163ZM31.968 37.936V50.224H39.968V37.936H31.968ZM31.968 50.224C31.968 50.4295 31.9493 50.345 32.0049 50.1216C32.0715 49.8543 32.2637 49.3155 32.7736 48.8056C33.2835 48.2957 33.8223 48.1035 34.0896 48.0369C34.313 47.9813 34.3975 48 34.192 48V56C34.9415 56 36.9148 55.978 38.4304 54.4624C39.946 52.9468 39.968 50.9735 39.968 50.224H31.968ZM34.192 48H31.12V56H34.192V48ZM31.12 48C30.9145 48 30.999 47.9813 31.2224 48.0369C31.4897 48.1035 32.0285 48.2957 32.5384 48.8056C33.0483 49.3155 33.2405 49.8543 33.3071 50.1216C33.3627 50.345 33.344 50.4295 33.344 50.224H25.344C25.344 50.9735 25.366 52.9468 26.8816 54.4624C28.3972 55.978 30.3705 56 31.12 56V48ZM33.344 50.224V43.888H25.344V50.224H33.344ZM33.344 43.888C33.344 43.4683 33.3599 41.743 31.9924 40.3756C30.625 39.0081 28.8997 39.024 28.48 39.024V47.024C28.4731 47.024 28.4199 47.0239 28.3344 47.0159C28.2499 47.0079 28.103 46.9893 27.9162 46.942C27.527 46.8434 26.9059 46.6027 26.3356 46.0324C25.7653 45.4621 25.5246 44.841 25.426 44.4518C25.3787 44.265 25.3601 44.1181 25.3521 44.0336C25.3441 43.9481 25.344 43.8949 25.344 43.888H33.344ZM28.48 39.024H24.544V47.024H28.48V39.024ZM24.544 39.024C24.1243 39.024 22.399 39.0081 21.0316 40.3756C19.6641 41.743 19.68 43.4683 19.68 43.888H27.68C27.68 43.8949 27.6799 43.9481 27.6719 44.0336C27.6639 44.1181 27.6453 44.265 27.598 44.4518C27.4994 44.841 27.2587 45.4621 26.6884 46.0324C26.1181 46.6027 25.497 46.8434 25.1078 46.942C24.921 46.9893 24.7741 47.0079 24.6896 47.0159C24.6041 47.0239 24.5509 47.024 24.544 47.024V39.024ZM19.68 43.888V50.224H27.68V43.888H19.68ZM28.624 40.304C29.251 40.304 30.4693 40.212 31.6076 39.3707C32.978 38.3578 33.44 36.8759 33.44 35.68H25.44C25.44 35.3483 25.4953 34.8628 25.7358 34.3255C25.9873 33.7638 26.3788 33.2874 26.8524 32.9373C27.7147 32.3 28.525 32.304 28.624 32.304V40.304ZM33.44 35.68C33.44 34.9759 33.2999 34.3433 33.2663 34.1755L25.4217 35.7445C25.4279 35.7754 25.4327 35.7995 25.4372 35.8227C25.4417 35.8451 25.445 35.8626 25.4478 35.8771C25.4534 35.907 25.4547 35.9164 25.4543 35.9134C25.4537 35.9098 25.4503 35.8866 25.447 35.8487C25.4436 35.8104 25.44 35.7529 25.44 35.68H33.44ZM33.235 34.0326L31.027 24.7686L23.245 26.6234L25.453 35.8874L33.235 34.0326ZM31.0583 24.9115C31.0384 24.8117 30.8357 23.3831 29.6793 22.3038C28.3471 21.0604 26.7376 21.12 26.512 21.12V29.12C26.4975 29.12 26.4329 29.1198 26.3372 29.1121C26.2422 29.1044 26.0795 29.0865 25.8758 29.0394C25.4312 28.9364 24.8016 28.6943 24.2207 28.1522C23.6733 27.6413 23.425 27.1001 23.3225 26.8321C23.2294 26.5884 23.2016 26.42 23.2137 26.4805L31.0583 24.9115ZM26.512 21.12C26.2864 21.12 24.6769 21.0604 23.3447 22.3038C22.1883 23.3831 21.9856 24.8117 21.9657 24.9115L29.8103 26.4805C29.8224 26.42 29.7946 26.5884 29.7015 26.832C29.599 27.1001 29.3507 27.6413 28.8033 28.1522C28.2224 28.6943 27.5928 28.9364 27.1482 29.0394C26.9445 29.0865 26.7818 29.1044 26.6868 29.1121C26.5911 29.1198 26.5265 29.12 26.512 29.12V21.12ZM21.997 24.7686L19.789 34.0326L27.571 35.8874L29.779 26.6234L21.997 24.7686ZM19.7577 34.1755C19.7241 34.3433 19.584 34.9759 19.584 35.68H27.584C27.584 35.7529 27.5804 35.8104 27.577 35.8487C27.5737 35.8866 27.5703 35.9098 27.5697 35.9134C27.5693 35.9164 27.5706 35.907 27.5762 35.8772C27.579 35.8626 27.5823 35.8451 27.5868 35.8227C27.5913 35.7996 27.5961 35.7755 27.6023 35.7445L19.7577 34.1755ZM19.584 35.68C19.584 36.8759 20.046 38.3578 21.4164 39.3707C22.5547 40.212 23.773 40.304 24.4 40.304V32.304C24.499 32.304 25.3093 32.3 26.1716 32.9373C26.6452 33.2874 27.0367 33.7638 27.2882 34.3255C27.5287 34.8628 27.584 35.3483 27.584 35.68H19.584ZM24.4 40.304H28.624V32.304H24.4V40.304ZM55.1005 32.992L52.4014 30.0399L52.3354 30.1003L52.2721 30.1636L55.1005 32.992ZM55.1005 33.568L52.2721 36.3964L52.4152 36.5395L52.572 36.6675L55.1005 33.568ZM40.6525 48C40.447 48 40.5315 47.9813 40.7549 48.0369C41.0222 48.1035 41.561 48.2957 42.0709 48.8056C42.5808 49.3155 42.773 49.8543 42.8396 50.1216C42.8952 50.345 42.8765 50.4295 42.8765 50.224H34.8765C34.8765 50.9735 34.8985 52.9468 36.4141 54.4624C37.9297 55.978 39.903 56 40.6525 56V48ZM42.8765 50.224V17.776H34.8765V50.224H42.8765ZM42.8765 17.776C42.8765 17.5705 42.8952 17.655 42.8396 17.8784C42.773 18.1457 42.5808 18.6845 42.0709 19.1944C41.561 19.7043 41.0222 19.8965 40.7549 19.9631C40.5315 20.0187 40.447 20 40.6525 20V12C39.903 12 37.9297 12.022 36.4141 13.5376C34.8985 15.0532 34.8765 17.0265 34.8765 17.776H42.8765ZM40.6525 20H47.4685V12H40.6525V20ZM47.4685 20C50.588 20 51.9909 20.6064 52.5938 21.1049C53.0259 21.4621 53.5965 22.2163 53.5965 24.4H61.5965C61.5965 20.7757 60.5831 17.3299 57.6912 14.9391C54.9701 12.6896 51.309 12 47.4685 12V20ZM53.5965 24.4V27.184H61.5965V24.4H53.5965ZM53.5965 27.184C53.5965 28.5764 53.2383 29.2747 52.4014 30.0399L57.7996 35.9441C60.3227 33.6373 61.5965 30.7836 61.5965 27.184H53.5965ZM52.2721 30.1636C52.2498 30.1858 52.1732 30.2619 52.0994 30.3402C52.0275 30.4165 51.8654 30.5912 51.6956 30.829C51.2195 31.4955 50.9085 32.3344 50.9085 33.28H58.9085C58.9085 33.6064 58.8653 34.0229 58.713 34.4797C58.5641 34.9264 58.3607 35.2615 58.2054 35.479C58.0656 35.6748 57.9425 35.8045 57.9201 35.8283C57.8958 35.8541 57.8792 35.8702 57.9289 35.8204L52.2721 30.1636ZM50.9085 33.28C50.9085 34.2256 51.2195 35.0645 51.6956 35.731C51.8654 35.9688 52.0275 36.1435 52.0994 36.2198C52.1732 36.2981 52.2498 36.3742 52.2721 36.3964L57.9289 30.7396C57.8792 30.6898 57.8958 30.7059 57.9201 30.7317C57.9425 30.7555 58.0656 30.8852 58.2054 31.081C58.3607 31.2985 58.5641 31.6336 58.713 32.0803C58.8653 32.5371 58.9085 32.9536 58.9085 33.28H50.9085ZM52.572 36.6675C53.2001 37.1798 53.4553 37.5332 53.5844 37.7879C53.7035 38.023 53.8365 38.4115 53.8365 39.184H61.8365C61.8365 37.4125 61.5135 35.737 60.7206 34.1721C59.9377 32.6268 58.8249 31.4442 57.629 30.4685L52.572 36.6675ZM53.8365 39.184V43.84H61.8365V39.184H53.8365ZM53.8365 43.84C53.8365 45.7914 53.3005 46.4738 52.8233 46.8424C52.121 47.3849 50.5421 48 47.2285 48V56C51.2109 56 54.936 55.3191 57.7137 53.1736C60.7165 50.8542 61.8365 47.4566 61.8365 43.84H53.8365ZM47.2285 48H40.6525V56H47.2285V48ZM41.5005 23.584V29.104H49.5005V23.584H41.5005ZM41.5005 29.104C41.5005 29.5237 41.4846 31.249 42.8521 32.6164C44.2195 33.9839 45.9448 33.968 46.3645 33.968V25.968C46.3714 25.968 46.4246 25.968 46.5101 25.9761C46.5946 25.9841 46.7415 26.0027 46.9283 26.05C47.3175 26.1486 47.9386 26.3893 48.5089 26.9596C49.0792 27.5299 49.3199 28.151 49.4185 28.5402C49.4658 28.727 49.4844 28.8739 49.4924 28.9584C49.5004 29.0439 49.5005 29.0971 49.5005 29.104H41.5005ZM46.3645 33.968H47.3725V25.968H46.3645V33.968ZM47.3725 33.968C48.848 33.968 50.8779 33.7455 52.529 32.3608C54.3514 30.8323 54.7805 28.7138 54.7805 27.04H46.7805C46.7805 27.2549 46.751 27.2103 46.8194 27.0221C46.9027 26.7928 47.083 26.4871 47.3881 26.2312C47.6706 25.9943 47.9012 25.9335 47.9096 25.9313C47.9131 25.9305 47.874 25.9405 47.7801 25.9503C47.6865 25.9601 47.5532 25.968 47.3725 25.968V33.968ZM54.7805 27.04V25.648H46.7805V27.04H54.7805ZM54.7805 25.648C54.7805 23.9742 54.3514 21.8557 52.5289 20.3272C50.8779 18.9425 48.848 18.72 47.3725 18.72V26.72C47.5532 26.72 47.6865 26.7279 47.7801 26.7377C47.874 26.7475 47.9131 26.7575 47.9096 26.7567C47.9012 26.7545 47.6706 26.6937 47.3881 26.4568C47.083 26.2009 46.9027 25.8952 46.8194 25.6659C46.751 25.4777 46.7805 25.4331 46.7805 25.648H54.7805ZM47.3725 18.72H46.3645V26.72H47.3725V18.72ZM46.3645 18.72C45.9448 18.72 44.2195 18.7041 42.8521 20.0716C41.4846 21.439 41.5005 23.1643 41.5005 23.584H49.5005C49.5005 23.5909 49.5004 23.6441 49.4924 23.7296C49.4844 23.8141 49.4658 23.961 49.4185 24.1478C49.3199 24.537 49.0792 25.1581 48.5089 25.7284C47.9386 26.2987 47.3175 26.5394 46.9283 26.638C46.7415 26.6853 46.5946 26.7039 46.5101 26.7119C46.4246 26.7199 46.3714 26.72 46.3645 26.72V18.72ZM47.6125 49.28C49.088 49.28 51.1179 49.0575 52.769 47.6728C54.5914 46.1443 55.0205 44.0258 55.0205 42.352H47.0205C47.0205 42.5669 46.991 42.5223 47.0594 42.3341C47.1427 42.1048 47.323 41.7991 47.6281 41.5432C47.9106 41.3063 48.1412 41.2455 48.1496 41.2433C48.1531 41.2425 48.114 41.2525 48.0201 41.2623C47.9265 41.2721 47.7932 41.28 47.6125 41.28V49.28ZM55.0205 42.352V39.616H47.0205V42.352H55.0205ZM55.0205 39.616C55.0205 37.9422 54.5914 35.8237 52.7689 34.2952C51.1179 32.9105 49.088 32.688 47.6125 32.688V40.688C47.7932 40.688 47.9265 40.6959 48.0201 40.7057C48.114 40.7155 48.1531 40.7255 48.1496 40.7247C48.1412 40.7225 47.9106 40.6617 47.6281 40.4248C47.323 40.1689 47.1427 39.8632 47.0594 39.6339C46.991 39.4457 47.0205 39.4011 47.0205 39.616H55.0205ZM47.6125 32.688H46.3645V40.688H47.6125V32.688ZM46.3645 32.688C45.9448 32.688 44.2195 32.6721 42.8521 34.0396C41.4846 35.407 41.5005 37.1323 41.5005 37.552H49.5005C49.5005 37.5589 49.5004 37.6121 49.4924 37.6976C49.4844 37.7821 49.4658 37.929 49.4185 38.1158C49.3199 38.505 49.0792 39.1261 48.5089 39.6964C47.9386 40.2667 47.3175 40.5074 46.9283 40.606C46.7415 40.6533 46.5946 40.6719 46.5101 40.6799C46.4246 40.6879 46.3714 40.688 46.3645 40.688V32.688ZM41.5005 37.552V44.416H49.5005V37.552H41.5005ZM41.5005 44.416C41.5005 44.8357 41.4846 46.561 42.8521 47.9284C44.2195 49.2959 45.9448 49.28 46.3645 49.28V41.28C46.3714 41.28 46.4246 41.2801 46.5101 41.2881C46.5946 41.2961 46.7415 41.3147 46.9283 41.362C47.3175 41.4606 47.9386 41.7013 48.5089 42.2716C49.0792 42.8419 49.3199 43.463 49.4185 43.8522C49.4658 44.039 49.4844 44.1859 49.4924 44.2704C49.5004 44.3559 49.5005 44.4091 49.5005 44.416H41.5005ZM46.3645 49.28H47.6125V41.28H46.3645V49.28ZM75.1433 41.44C75.1433 45.3584 74.531 46.8585 74.0406 47.4506C73.7346 47.8201 72.9309 48.48 69.8793 48.48V56.48C73.7876 56.48 77.6159 55.6759 80.2019 52.5534C82.6035 49.6535 83.1433 45.6336 83.1433 41.44H75.1433ZM69.8793 48.48C66.8276 48.48 66.0239 47.8201 65.7179 47.4506C65.2275 46.8585 64.6152 45.3584 64.6152 41.44H56.6152C56.6152 45.6336 57.155 49.6535 59.5566 52.5534C62.1426 55.6759 65.9709 56.48 69.8793 56.48V48.48ZM64.6152 41.44V26.56H56.6152V41.44H64.6152ZM64.6152 26.56C64.6152 22.6722 65.2252 21.1643 65.7222 20.5622C66.0344 20.184 66.8442 19.52 69.8793 19.52V11.52C65.9543 11.52 62.1321 12.344 59.5523 15.4698C57.1573 18.3717 56.6152 22.3838 56.6152 26.56H64.6152ZM69.8793 19.52C72.9143 19.52 73.7242 20.184 74.0363 20.5622C74.5333 21.1643 75.1433 22.6722 75.1433 26.56H83.1433C83.1433 22.3838 82.6012 18.3717 80.2062 15.4698C77.6264 12.344 73.8042 11.52 69.8793 11.52V19.52ZM75.1433 26.56V41.44H83.1433V26.56H75.1433ZM63.4313 43.072C63.4313 44.434 63.6807 46.3389 65.097 47.8609C66.5785 49.453 68.5132 49.76 69.8793 49.76V41.76C69.5653 41.76 70.276 41.683 70.9535 42.4111C71.5658 43.0691 71.4313 43.63 71.4313 43.072H63.4313ZM69.8793 49.76C71.2453 49.76 73.18 49.453 74.6615 47.8609C76.0778 46.3389 76.3273 44.434 76.3273 43.072H68.3273C68.3273 43.63 68.1927 43.0691 68.805 42.4111C69.4825 41.683 70.1932 41.76 69.8793 41.76V49.76ZM76.3273 43.072V25.168H68.3273V43.072H76.3273ZM76.3273 25.168C76.3273 23.7831 76.1062 21.8641 74.7675 20.3056C73.298 18.5948 71.3116 18.24 69.8793 18.24V26.24C69.9958 26.24 69.8768 26.2569 69.6315 26.1697C69.3461 26.0683 68.9938 25.8616 68.699 25.5184C68.4216 25.1954 68.3321 24.9113 68.3126 24.8371C68.2973 24.7788 68.3273 24.8623 68.3273 25.168H76.3273ZM69.8793 18.24C68.4469 18.24 66.4605 18.5948 64.991 20.3056C63.6523 21.8641 63.4313 23.7831 63.4313 25.168H71.4313C71.4313 24.8623 71.4612 24.7788 71.4459 24.8371C71.4264 24.9113 71.3369 25.1954 71.0595 25.5184C70.7647 25.8616 70.4124 26.0683 70.127 26.1697C69.8817 26.2569 69.7627 26.24 69.8793 26.24V18.24ZM63.4313 25.168V43.072H71.4313V25.168H63.4313ZM98.4624 17.776C98.4624 17.5705 98.4811 17.655 98.4254 17.8784C98.3588 18.1457 98.1667 18.6845 97.6568 19.1944C97.1469 19.7043 96.608 19.8965 96.3408 19.9631C96.1174 20.0187 96.0329 20 96.2384 20V12C95.4889 12 93.5155 12.022 91.9999 13.5376C90.4844 15.0532 90.4624 17.0265 90.4624 17.776H98.4624ZM96.2384 20H99.3104V12H96.2384V20ZM99.3104 20C99.5158 20 99.4314 20.0187 99.2079 19.9631C98.9407 19.8965 98.4018 19.7043 97.8919 19.1944C97.3821 18.6845 97.1899 18.1457 97.1233 17.8784C97.0676 17.655 97.0864 17.5705 97.0864 17.776H105.086C105.086 17.0265 105.064 15.0532 103.549 13.5376C102.033 12.022 100.06 12 99.3104 12V20ZM97.0864 17.776V41.92H105.086V17.776H97.0864ZM97.0864 41.92C97.0864 45.6191 96.481 46.9697 96.0373 47.4832C95.74 47.8275 94.9086 48.48 91.8224 48.48V56.48C95.6962 56.48 99.4968 55.7165 102.091 52.7128C104.54 49.8783 105.086 45.9489 105.086 41.92H97.0864ZM91.8224 48.48C88.7362 48.48 87.9048 47.8275 87.6074 47.4832C87.1638 46.9697 86.5584 45.6191 86.5584 41.92H78.5584C78.5584 45.9489 79.105 49.8783 81.5533 52.7128C84.148 55.7165 87.9486 56.48 91.8224 56.48V48.48ZM86.5584 41.92V17.776H78.5584V41.92H86.5584ZM86.5584 17.776C86.5584 17.5705 86.5771 17.655 86.5214 17.8784C86.4548 18.1457 86.2627 18.6845 85.7528 19.1944C85.2429 19.7043 84.704 19.8965 84.4368 19.9631C84.2134 20.0187 84.1289 20 84.3344 20V12C83.5849 12 81.6115 12.022 80.0959 13.5376C78.5804 15.0532 78.5584 17.0265 78.5584 17.776H86.5584ZM84.3344 20H87.4064V12H84.3344V20ZM87.4064 20C87.6118 20 87.5274 20.0187 87.3039 19.9631C87.0367 19.8965 86.4978 19.7043 85.9879 19.1944C85.4781 18.6845 85.2859 18.1457 85.2193 17.8784C85.1636 17.655 85.1824 17.5705 85.1824 17.776H93.1824C93.1824 17.0265 93.1604 15.0532 91.6448 13.5376C90.1292 12.022 88.1559 12 87.4064 12V20ZM85.1824 17.776V43.072H93.1824V17.776H85.1824ZM85.1824 43.072C85.1824 44.4837 85.4656 46.4401 86.9899 47.9644C88.5163 49.4908 90.4632 49.76 91.8224 49.76V41.76C91.3575 41.76 91.9844 41.6452 92.6468 42.3076C93.3071 42.9679 93.1824 43.5803 93.1824 43.072H85.1824ZM91.8224 49.76C93.1859 49.76 95.102 49.4784 96.6172 47.9839C98.1419 46.4801 98.4624 44.5389 98.4624 43.072H90.4624C90.4624 43.5251 90.3509 42.9279 90.9995 42.2881C91.6388 41.6576 92.2349 41.76 91.8224 41.76V49.76ZM98.4624 43.072V17.776H90.4624V43.072H98.4624ZM118.662 18.72H115.686V26.72H118.662V18.72ZM115.686 18.72C115.266 18.72 113.541 18.7041 112.173 20.0716C110.806 21.439 110.822 23.1643 110.822 23.584H118.822C118.822 23.5909 118.821 23.6441 118.813 23.7296C118.805 23.8141 118.787 23.961 118.74 24.1478C118.641 24.537 118.4 25.1581 117.83 25.7284C117.26 26.2987 116.639 26.5394 116.249 26.638C116.063 26.6853 115.916 26.7039 115.831 26.7119C115.746 26.7199 115.692 26.72 115.686 26.72V18.72ZM110.822 23.584V50.224H118.822V23.584H110.822ZM110.822 50.224C110.822 50.4295 110.803 50.345 110.858 50.1216C110.925 49.8543 111.117 49.3155 111.627 48.8056C112.137 48.2957 112.676 48.1035 112.943 48.0369C113.166 47.9813 113.251 48 113.046 48V56C113.795 56 115.768 55.978 117.284 54.4624C118.8 52.9468 118.822 50.9735 118.822 50.224H110.822ZM113.046 48H109.974V56H113.046V48ZM109.974 48C109.768 48 109.853 47.9813 110.076 48.0369C110.343 48.1035 110.882 48.2957 111.392 48.8056C111.902 49.3155 112.094 49.8543 112.161 50.1216C112.216 50.345 112.198 50.4295 112.198 50.224H104.198C104.198 50.9735 104.219 52.9468 105.735 54.4624C107.251 55.978 109.224 56 109.974 56V48ZM112.198 50.224V23.584H104.198V50.224H112.198ZM112.198 23.584C112.198 23.1643 112.213 21.439 110.846 20.0716C109.478 18.7041 107.753 18.72 107.334 18.72V26.72C107.327 26.72 107.273 26.7199 107.188 26.7119C107.103 26.7039 106.956 26.6853 106.77 26.638C106.38 26.5394 105.759 26.2987 105.189 25.7284C104.619 25.1581 104.378 24.537 104.279 24.1478C104.232 23.961 104.214 23.8141 104.206 23.7296C104.198 23.6441 104.198 23.5909 104.198 23.584H112.198ZM107.334 18.72H104.358V26.72H107.334V18.72ZM104.358 18.72C104.152 18.72 104.237 18.7013 104.46 18.7569C104.727 18.8235 105.266 19.0157 105.776 19.5256C106.286 20.0355 106.478 20.5743 106.545 20.8416C106.6 21.065 106.582 21.1495 106.582 20.944H98.5815C98.5815 21.6935 98.6035 23.6668 100.119 25.1824C101.635 26.698 103.608 26.72 104.358 26.72V18.72ZM106.582 20.944V17.776H98.5815V20.944H106.582ZM106.582 17.776C106.582 17.5705 106.6 17.655 106.545 17.8784C106.478 18.1457 106.286 18.6845 105.776 19.1944C105.266 19.7043 104.727 19.8965 104.46 19.9631C104.237 20.0187 104.152 20 104.358 20V12C103.608 12 101.635 12.022 100.119 13.5376C98.6035 15.0532 98.5815 17.0265 98.5815 17.776H106.582ZM104.358 20H118.662V12H104.358V20ZM118.662 20C118.867 20 118.782 20.0187 118.559 19.9631C118.292 19.8965 117.753 19.7043 117.243 19.1944C116.733 18.6845 116.541 18.1457 116.474 17.8784C116.419 17.655 116.438 17.5705 116.438 17.776H124.438C124.438 17.0265 124.416 15.0532 122.9 13.5376C121.384 12.022 119.411 12 118.662 12V20ZM116.438 17.776V20.944H124.438V17.776H116.438ZM116.438 20.944C116.438 21.1495 116.419 21.065 116.474 20.8416C116.541 20.5743 116.733 20.0355 117.243 19.5256C117.753 19.0157 118.292 18.8235 118.559 18.7569C118.782 18.7013 118.867 18.72 118.662 18.72V26.72C119.411 26.72 121.384 26.698 122.9 25.1824C124.416 23.6668 124.438 21.6935 124.438 20.944H116.438Z" fill="black" mask="url(#path-3-outside-2_135_808)"/>
</svg>
