<svg width="1920" height="2000" viewBox="0 0 1920 2000" fill="none" xmlns="http://www.w3.org/2000/svg">
<g clip-path="url(#clip0_136_872)">
<rect width="1920" height="2000" fill="white"/>
<path d="M600.144 166.063L1932.69 -287.923L1909.77 -394.938L565.071 63.1995L600.144 166.063Z" fill="#E71731"/>
<path d="M670.236 371.805L1978.54 -73.8912L1955.62 -180.906L635.196 268.935L670.236 371.805Z" fill="#E71731"/>
<path d="M-188.68 894.066L2024.36 140.106L2001.45 33.124L-211.598 787.051L-188.68 894.066Z" fill="#E71731"/>
<path d="M-142.852 1108.06L2070.2 354.134L2047.28 247.119L-165.763 1001.08L-142.852 1108.06Z" fill="#E71731"/>
<path d="M1091.19 917.291L2116.03 568.13L2093.12 461.148L183.707 1111.64L1091.19 917.291Z" fill="#E71731"/>
<path d="M-128.055 514.716L-119.564 526.079L-109.111 540.016L-79.1835 529.821L-97.4003 555.646L-78.4493 580.979L-108.675 571.621L-126.885 597.478L-127.328 565.841L-157.547 556.516L-127.619 546.32L-127.843 528.884L-128.055 514.716ZM-187.221 537.677L-217.447 528.319L-235.657 554.177L-236.1 522.54L-266.319 513.214L-236.391 503.019L-236.834 471.381L-217.883 496.715L-187.956 486.519L-206.172 512.345L-187.221 537.677ZM-204.466 411.999L-174.538 401.804L-174.981 370.166L-156.03 395.499L-126.103 385.304L-144.353 411.136L-139.244 417.957L-125.401 436.469L-155.594 427.103L-173.804 452.961L-174.145 429.837L-174.28 421.331L-204.466 411.999ZM-116.748 270.208L-101.696 290.353L-97.7969 295.541L-67.8696 285.346L-86.0865 311.17L-67.1424 336.471L-97.3613 327.145L-115.578 352.97L-116.014 321.365L-146.233 312.04L-116.305 301.845L-116.387 295.357L-116.748 270.208ZM-175.383 294.845L-205.609 285.487L-223.819 311.345L-224.262 279.707L-254.481 270.381L-224.553 260.186L-224.989 228.582L-206.045 253.882L-176.118 243.687L-194.335 269.512L-175.383 294.845ZM-195.089 170.209L-165.162 160.014L-165.63 128.417L-146.686 153.717L-116.759 143.522L-134.969 169.379L-124.515 183.317L-116.025 194.68L-137.991 187.889L-146.211 185.347L-151.204 192.405L-164.46 211.179L-164.647 196.971L-164.896 179.575L-195.089 170.209ZM-301.21 128.68L-306.108 127.182L-276.181 116.987L-276.649 85.39L-257.706 110.69L-227.778 100.495L-230.705 104.667L-245.995 126.32L-227.044 151.653L-257.237 142.288L-275.447 168.145L-275.922 136.515L-301.21 128.68ZM-216.978 -15.5653L-216.541 -14.9706L-198.027 9.76815L-168.099 -0.426932L-186.349 25.4052L-167.405 50.7052L-197.591 41.3724L-215.808 67.1976L-216.276 35.6003L-246.462 26.2676L-216.535 16.0725L-216.987 -14.8057L-216.978 -15.5653ZM-107.681 59.5971L-108.123 27.96L-89.1794 53.26L-59.2521 43.0649L-62.2048 47.2767L-77.4619 68.9228L-58.5178 94.2235L-88.7366 84.8978L-106.954 110.722L-107.389 79.1179L-132.71 71.2902L-137.608 69.7922L-107.681 59.5971ZM-48.4776 -72.9547L-48.0404 -72.36L-29.5337 -47.6547L0.393946 -57.8499L-17.8158 -31.992L1.12812 -6.69197L-29.0906 -16.017L-47.3075 9.80746L-47.7435 -21.7968L-77.9694 -31.1553L-48.0417 -41.3504L-48.4611 -72.2356L-48.4776 -72.9547ZM60.8454 2.16717L60.3767 -29.4301L79.3208 -4.12945L109.248 -14.3245L106.289 -10.1462L91.0312 11.5L109.983 36.8333L79.7895 27.4678L61.5468 53.3321L61.1109 21.7278L35.7832 13.8673L30.9181 12.3623L60.8454 2.16717ZM229.345 -55.2229L228.87 -86.853L247.821 -61.5196L277.749 -71.7147L274.821 -67.5433L259.532 -45.8902L278.476 -20.5896L248.29 -29.9223L230.073 -4.0978L229.604 -35.6951L204.316 -43.5299L199.418 -45.0278L229.345 -55.2229ZM397.839 -112.646L397.403 -144.25L416.347 -118.95L446.274 -129.145L443.314 -124.966L428.057 -103.32L447.009 -77.9867L416.79 -87.3124L398.573 -61.4873L398.13 -93.125L372.809 -100.953L367.911 -102.451L397.839 -112.646ZM389.502 22.47L367.535 15.679L359.309 13.1045L354.323 20.1952L341.066 38.9694L340.88 24.7607L340.623 7.33163L310.437 -2.00045L340.365 -12.1955L339.896 -43.7934L358.84 -18.4929L388.768 -28.6879L370.551 -2.86345L381.004 11.0737L389.502 22.47ZM498.636 65.2121L468.41 55.8536L450.2 81.7115L449.765 50.1072L419.572 40.7417L449.499 30.5466L449.03 -1.05068L467.974 24.2492L497.902 14.0542L479.692 39.9121L498.636 65.2121ZM407.722 123.298L437.65 113.103L419.44 138.96L438.384 164.261L408.165 154.935L389.948 180.76L389.512 149.155L359.287 139.797L389.214 129.602L389.139 123.148L388.778 97.9974L403.823 118.11L407.722 123.298ZM548.651 206.83L518.425 197.471L500.215 223.328L499.875 200.204L499.772 191.691L469.554 182.366L499.481 172.17L499.045 140.566L517.989 165.866L547.917 155.671L529.7 181.496L534.809 188.318L548.651 206.83ZM564.909 310.384L594.836 300.189L576.626 326.046L595.57 351.347L565.384 342.014L547.167 367.838L546.699 336.241L516.506 326.875L546.433 316.68L546.177 299.252L545.997 285.076L554.488 296.439L564.909 310.384ZM40.914 488.923L40.6573 471.494L40.471 457.286L48.962 468.649L59.3892 482.626L89.3165 472.431L71.0998 498.256L90.0438 523.556L59.8581 514.224L41.6411 540.048L41.1724 508.451L10.9863 499.118L40.914 488.923ZM-67.8981 445.596L-68.334 413.992L-49.3898 439.292L-19.4625 429.097L-37.6722 454.954L-18.7283 480.254L-48.947 470.929L-67.1639 496.754L-67.5995 465.15L-97.7927 455.784L-67.8981 445.596ZM51.7521 212.817L66.8303 232.923L70.6962 238.118L100.623 227.923L82.4136 253.78L101.358 279.081L71.1388 269.755L52.9219 295.58L52.4863 263.975L22.2932 254.61L52.2208 244.415L52.1061 237.934L51.7521 212.817ZM-56.0604 202.763L-56.4963 171.159L-37.5449 196.492L-7.61754 186.297L-25.8345 212.122L-6.89038 237.422L-37.1093 228.097L-55.326 253.922L-55.7618 222.317L-85.9549 212.951L-56.0604 202.763ZM330.136 122.602L299.917 113.276L281.7 139.102L281.264 107.497L251.045 98.1716L280.973 87.9765L280.53 56.3388L299.481 81.6722L329.409 71.477L311.192 97.3022L330.136 122.602ZM239.196 180.728L269.124 170.533L250.907 196.357L269.858 221.691L239.665 212.325L221.455 238.183L220.979 206.553L190.794 197.22L220.721 187.025L220.607 180.545L220.285 155.42L235.33 175.533L239.196 180.728ZM366.283 245.748L380.118 264.226L349.932 254.894L331.715 280.718L331.382 257.627L331.247 249.121L301.053 239.756L330.981 229.561L330.545 197.956L349.489 223.256L379.416 213.061L361.174 238.926L366.283 245.748ZM486.798 308.045L456.572 298.686L438.362 324.544L437.92 292.907L407.734 283.574L437.661 273.379L437.192 241.782L456.137 267.082L486.064 256.887L467.847 282.712L486.798 308.045ZM100.635 388.199L100.192 356.562L119.11 381.902L149.038 371.706L130.821 397.532L149.772 422.865L119.579 413.499L101.369 439.357L100.894 407.727L70.7074 398.394L100.635 388.199ZM318.298 365.435L288.079 356.109L269.862 381.934L269.426 350.33L239.2 340.971L269.128 330.776L268.692 299.172L287.636 324.472L317.564 314.276L299.354 340.134L318.298 365.435ZM161.61 180.032L131.417 170.667L113.207 196.524L112.731 164.894L82.5453 155.562L112.473 145.367L112.037 113.762L130.981 139.062L160.876 128.874L142.659 154.699L161.61 180.032ZM132.56 297.179L162.488 286.983L162.012 255.353L180.963 280.686L210.891 270.491L192.674 296.316L197.783 303.138L211.625 321.649L181.432 312.283L163.189 338.148L162.882 315.017L162.747 306.511L132.56 297.179ZM227.915 425.196L257.843 415.001L239.633 440.859L258.577 466.16L228.351 456.801L210.141 482.658L209.706 451.054L179.48 441.695L209.407 431.5L209.15 414.071L208.971 399.896L217.462 411.259L227.915 425.196ZM396.416 367.807L426.343 357.612L408.126 383.436L427.07 408.737L396.851 399.411L378.634 425.235L378.199 393.631L348.013 384.298L377.94 374.103L377.684 356.675L377.464 342.473L385.988 353.829L396.416 367.807ZM141.904 55.3961L171.832 45.2009L171.396 13.5967L190.347 38.9301L220.268 28.7021L202.058 54.5594L212.478 68.5037L221.002 79.8601L199.035 73.0692L190.783 70.5343L185.823 77.5853L172.566 96.3595L172.38 82.1508L172.13 64.7546L141.904 55.3961ZM-26.5889 112.819L3.33837 102.624L2.90278 71.0195L21.8469 96.3202L51.7742 86.1251L33.5572 111.95L43.9777 125.894L52.4756 137.29L30.5418 130.492L22.2828 127.924L17.2894 134.982L4.073 153.782L3.85348 139.581L3.62993 122.145L-26.5889 112.819ZM-35.9727 354.576L-6.0451 344.381L-6.48115 312.776L12.4629 338.076L42.3906 327.881L24.1808 353.739L29.2826 360.527L43.1247 379.039L12.9059 369.713L-5.31092 395.538L-5.64452 372.447L-5.74684 363.934L-35.9727 354.576ZM635.19 268.934L600.15 166.064L565.077 63.201L530.037 -39.6688L494.989 -142.572L474.977 -201.303L336.766 -171.704L319.177 -146.805L338.121 -121.504L307.936 -130.837L289.719 -105.013L289.25 -136.61L259.057 -145.975L288.984 -156.17L288.919 -161.457L123.296 -125.987L138.967 -105.045L168.894 -115.24L150.677 -89.4148L169.628 -64.0814L139.435 -73.4469L121.193 -47.5826L120.75 -79.2198L90.5638 -88.5525L120.491 -98.7476L120.104 -125.303L85.8474 -117.967L57.5471 -111.906L59.6717 -109.057L60.7738 -107.607L57.97 -108.486L51.2291 -110.553L21.6125 -104.21L14.0543 -93.5398L12.3382 -91.1073L12.3268 -92.9292L12.2008 -102.195L-124.727 -72.8702L-108.828 -51.6671L-107.726 -50.2166L-110.563 -51.0892L-137.945 -59.5423L-154.472 -36.1099L-156.162 -33.7172L-156.174 -35.539L-156.598 -65.3222L-158.029 -65.7382L-280.017 -39.6133L-295.203 -18.12L-277.321 5.75576L-276.252 7.21336L-279.056 6.33366L-306.445 -2.15221L-322.972 21.2803L-324.655 23.7057L-324.699 21.8909L-325.131 -7.92497L-355.317 -17.2577L-325.389 -27.4528L-325.429 -29.8878L-383.872 -17.3715L-372.012 38.0119L-365.817 66.9376L-336.632 56.9702L-354.842 82.8281L-335.898 108.128L-358.495 101.128L-349.1 144.994L-333.673 217.028L-334.123 185.84L-315.179 211.14L-285.252 200.945L-303.469 226.77L-293.048 240.714L-284.518 252.103L-306.484 245.312L-314.743 242.745L-319.704 249.795L-325.033 257.372L-303.264 359.024L-301.967 365.079L-284.805 359.235L-284.92 352.754L-285.274 327.638L-270.196 347.743L-266.33 352.938L-236.403 342.742L-254.613 368.6L-235.668 393.901L-265.854 384.568L-284.071 410.393L-284.54 378.795L-300.064 373.964L-280.345 466.038L-257.427 573.053L-253.931 589.375L-247.677 587.244L-252.825 594.541L-234.516 680.035L670.23 371.805L635.19 268.934Z" fill="#304F7D"/>
<path d="M-165.762 1001.08L2047.28 247.119L2024.36 140.104L-188.68 894.064L-165.762 1001.08Z" fill="white"/>
<path d="M635.181 268.933L1955.61 -180.909L1932.69 -287.923L600.141 166.063L635.181 268.933Z" fill="white"/>
<path d="M530.039 -39.67L565.08 63.1998L1909.78 -394.937L1886.87 -501.92L530.039 -39.67Z" fill="white"/>
<path d="M670.226 371.804L-234.52 680.034L-211.602 787.049L2001.45 33.1219L1978.53 -73.8927L670.226 371.804Z" fill="white"/>
<path d="M-127.801 1178.35L183.7 1111.64L2093.11 461.148L2070.19 354.133L-142.854 1108.06L-127.801 1178.35Z" fill="white"/>
<path d="M-47.3129 9.80391L-29.096 -16.0206L1.12276 -6.69553L-17.8212 -31.9955L0.388587 -57.8534L-29.539 -47.6583L-48.0457 -72.3636L-48.483 -72.9583L-48.4665 -72.2392L-48.0471 -41.354L-77.9747 -31.1589L-47.7488 -21.8004L-47.3129 9.80391Z" fill="white"/>
<path d="M61.1048 21.7258L61.5407 53.33L79.7834 27.4657L109.977 36.8312L91.0251 11.4979L106.282 -10.1483L109.242 -14.3266L79.3147 -4.13152L60.3706 -29.4321L60.8393 2.16511L30.912 12.3602L35.7771 13.8653L61.1048 21.7258Z" fill="white"/>
<path d="M229.597 -35.6956L230.066 -4.09837L248.283 -29.9229L278.469 -20.5901L259.525 -45.8908L274.814 -67.5439L277.742 -71.7153L247.814 -61.5201L228.863 -86.8535L229.339 -55.2235L199.411 -45.0284L204.309 -43.5304L229.597 -35.6956Z" fill="white"/>
<path d="M21.8438 96.3178L2.89969 71.0172L3.33528 102.622L-26.592 112.817L3.62685 122.142L3.85039 139.578L4.06992 153.78L17.2863 134.98L22.2797 127.922L30.5387 130.49L52.4725 137.288L43.9747 125.891L33.5542 111.947L51.7711 86.1227L21.8438 96.3178Z" fill="white"/>
<path d="M190.343 38.9297L171.392 13.5963L171.828 45.2005L141.9 55.3957L172.126 64.7542L172.376 82.1504L172.562 96.3591L185.819 77.5849L190.779 70.5339L199.031 73.0688L220.998 79.8596L212.474 68.5033L202.054 54.559L220.264 28.7017L190.343 38.9297Z" fill="white"/>
<path d="M358.838 -18.496L339.894 -43.7965L340.363 -12.1987L310.435 -2.00357L340.621 7.32851L340.878 24.7576L341.064 38.9663L354.321 20.1921L359.307 13.1013L367.533 15.6759L389.5 22.4668L381.002 11.0706L370.549 -2.86657L388.766 -28.6911L358.838 -18.496Z" fill="white"/>
<path d="M-56.5045 171.158L-56.0686 202.762L-85.9631 212.95L-55.77 222.315L-55.3343 253.92L-37.1175 228.095L-6.89862 237.421L-25.8427 212.12L-7.62577 186.296L-37.5531 196.491L-56.5045 171.158Z" fill="white"/>
<path d="M112.036 113.758L112.472 145.363L82.5448 155.558L112.731 164.89L113.207 196.521L131.416 170.663L161.609 180.028L142.658 154.695L160.875 128.87L130.98 139.059L112.036 113.758Z" fill="white"/>
<path d="M280.529 56.3365L280.972 87.9742L251.044 98.1693L281.263 107.495L281.699 139.099L299.916 113.274L330.134 122.6L311.191 97.2999L329.407 71.4748L299.48 81.6699L280.529 56.3365Z" fill="white"/>
<path d="M467.975 24.2486L449.031 -1.05129L449.499 30.546L419.572 40.741L449.765 50.1066L450.201 81.7109L468.411 55.853L498.637 65.2115L479.693 39.9115L497.902 14.0536L467.975 24.2486Z" fill="white"/>
<path d="M-5.64649 372.445L-5.31289 395.536L12.9039 369.711L43.1228 379.037L29.2806 360.525L24.1788 353.737L42.3886 327.879L12.461 338.074L-6.48312 312.774L-6.04707 344.378L-35.9747 354.574L-5.74881 363.932L-5.64649 372.445Z" fill="white"/>
<path d="M162.878 315.017L163.185 338.148L181.428 312.283L211.621 321.648L197.779 303.137L192.67 296.316L210.887 270.491L180.959 280.686L162.008 255.352L162.484 286.983L132.557 297.178L162.743 306.511L162.878 315.017Z" fill="white"/>
<path d="M331.377 257.628L331.711 280.719L349.927 254.895L380.113 264.227L366.278 245.749L361.169 238.927L379.412 213.062L349.484 223.257L330.54 197.957L330.976 229.562L301.049 239.757L331.242 249.122L331.377 257.628Z" fill="white"/>
<path d="M517.992 165.867L499.048 140.567L499.484 172.171L469.557 182.366L499.775 191.692L499.878 200.205L500.218 223.329L518.428 197.472L548.654 206.83L534.812 188.318L529.703 181.497L547.92 155.671L517.992 165.867Z" fill="white"/>
<path d="M59.3883 482.624L48.9611 468.647L40.4701 457.284L40.6564 471.492L40.9131 488.921L10.9854 499.117L41.1715 508.449L41.6402 540.047L59.8572 514.222L90.0429 523.555L71.0988 498.254L89.3156 472.429L59.3883 482.624Z" fill="white"/>
<path d="M227.91 425.193L217.457 411.256L208.966 399.893L209.145 414.069L209.402 431.498L179.475 441.693L209.7 451.051L210.136 482.656L228.346 456.798L258.572 466.157L239.628 440.856L257.837 414.998L227.91 425.193Z" fill="white"/>
<path d="M396.42 367.806L385.992 353.829L377.469 342.473L377.688 356.675L377.944 374.103L348.017 384.298L378.203 393.631L378.638 425.235L396.855 399.411L427.074 408.737L408.13 383.436L426.347 357.611L396.42 367.806Z" fill="white"/>
<path d="M564.905 310.385L554.485 296.44L545.994 285.077L546.173 299.253L546.429 316.681L516.502 326.876L546.695 336.242L547.164 367.839L565.381 342.015L595.566 351.347L576.622 326.047L594.832 300.189L564.905 310.385Z" fill="white"/>
<path d="M66.8202 232.923L51.742 212.818L52.0961 237.935L52.2107 244.415L22.2831 254.61L52.4762 263.976L52.9118 295.58L71.1287 269.756L101.348 279.081L82.4035 253.781L100.613 227.923L70.6861 238.118L66.8202 232.923Z" fill="white"/>
<path d="M235.328 175.53L220.282 155.417L220.604 180.542L220.718 187.021L190.791 197.216L220.977 206.549L221.452 238.18L239.662 212.322L269.855 221.688L250.904 196.354L269.121 170.53L239.193 180.725L235.328 175.53Z" fill="white"/>
<path d="M407.723 123.296L403.824 118.108L388.779 97.9957L389.14 123.146L389.214 129.6L359.287 139.795L389.513 149.154L389.949 180.759L408.165 154.933L438.384 164.259L419.44 138.959L437.65 113.101L407.723 123.296Z" fill="white"/>
<path d="M119.112 381.901L100.194 356.561L100.636 388.198L70.7089 398.393L100.895 407.726L101.371 439.356L119.581 413.499L149.773 422.864L130.822 397.531L149.039 371.706L119.112 381.901Z" fill="white"/>
<path d="M287.633 324.474L268.689 299.174L269.125 330.778L239.197 340.973L269.423 350.331L269.859 381.936L288.076 356.111L318.295 365.437L299.351 340.136L317.56 314.278L287.633 324.474Z" fill="white"/>
<path d="M456.139 267.08L437.195 241.779L437.664 273.377L407.736 283.572L437.922 292.904L438.365 324.541L456.575 298.684L486.801 308.043L467.85 282.709L486.067 256.885L456.139 267.08Z" fill="white"/>
<path d="M226.364 1120.2C81.8857 1196.86 -12.1458 1306.57 -105.077 1415.68C-200.058 1527.19 -293.879 1638.09 -439.218 1712.47C-158.517 2200.54 133.588 2618.43 384.983 3006.24C549.99 2946.11 639.332 2887.99 754.509 2769.08C836.813 2684.1 897.406 2635.88 1010.91 2584.92C776.76 2147.77 516.76 1662.36 226.364 1120.2Z" fill="white"/>
<path d="M226.33 1120.19C81.8516 1196.86 -12.1799 1306.56 -105.111 1415.68C-200.092 1527.19 -293.913 1638.09 -439.252 1712.47C-406.631 1769.87 -390.856 1797.23 -360.154 1849.78C-73.5464 1701.4 9.47311 1412.59 298.466 1254.87C270.082 1201.88 255.67 1174.97 226.33 1120.19Z" fill="#D51E25"/>
<path d="M367.604 1383.93C81.8676 1541.93 -0.51008 1827.14 -286.297 1974.52C-257.815 2021.93 -243.943 2044.7 -216.756 2088.81C68.2626 1944.31 151.582 1664.3 434.086 1508.06C407.848 1459.07 394.562 1434.27 367.604 1383.93Z" fill="#D51E25"/>
<path d="M498.24 1627.82C218.993 1780.79 133.512 2054.23 -150.698 2194.57C-124.991 2235.22 -112.375 2254.92 -87.4186 2293.53C195.852 2158.3 284.282 1892.29 560.345 1743.77C535.76 1697.86 523.348 1674.69 498.24 1627.82Z" fill="#D51E25"/>
<path d="M620.648 1856.38C489.985 1924.99 400.824 2019.9 312.409 2114.41C216.163 2217.3 120.795 2319.72 -26.2958 2387.23C-2.28618 2423.72 9.60328 2441.63 33.304 2477.19C180.308 2412.5 276.515 2313.27 373.496 2213.63C461.832 2122.85 550.813 2031.74 679.413 1966.09C656.071 1922.51 644.33 1900.59 620.648 1856.38Z" fill="#D51E25"/>
<mask id="mask0_136_872" style="mask-type:luminance" maskUnits="userSpaceOnUse" x="224" y="1120" width="782" height="1650">
<path d="M1005.8 2587.2C985.943 2596.22 967.74 2605.17 950.726 2614.29C967.733 2605.18 985.954 2596.23 1005.8 2587.2ZM224.794 1121C224.773 1121.02 224.753 1121.03 224.732 1121.04C224.753 1121.03 224.766 1121.02 224.794 1121Z" fill="white"/>
</mask>
<g mask="url(#mask0_136_872)">
<path d="M1005.8 2587.2C985.943 2596.22 967.74 2605.17 950.726 2614.29C967.733 2605.18 985.954 2596.23 1005.8 2587.2ZM224.794 1121C224.773 1121.02 224.753 1121.03 224.732 1121.04C224.753 1121.03 224.766 1121.02 224.794 1121Z" fill="url(#paint0_radial_136_872)"/>
</g>
<path d="M625.359 2741.21C648.023 2720.88 670.891 2698.49 694.925 2673.44C748.763 2617.36 793.93 2577.01 850.11 2541.48C764.014 2541.61 690.278 2562.02 690.278 2562.02L675.912 2537.29C662.741 2550.15 649.344 2563.88 635.414 2578.69C615.651 2599.69 596.706 2618.88 578.014 2636.59L625.359 2741.21ZM941.836 2456.05C929.043 2432.16 916.187 2408.16 903.245 2384C881.623 2393.87 861.806 2403.62 843.301 2413.53C830.989 2420.13 819.274 2426.78 808.019 2433.59C884.53 2437.64 941.836 2456.05 941.836 2456.05ZM530.566 2531.74C545.27 2516.94 560.223 2501.17 575.685 2484.27C647.373 2405.92 705.782 2356.46 793.652 2309.39C810.743 2300.24 828.971 2291.17 848.611 2282C830.288 2247.79 811.823 2213.32 793.201 2178.55C782.825 2183.53 772.697 2188.68 762.797 2193.98C653.717 2252.41 572.583 2329.31 491.811 2406.02C487.578 2410.03 483.356 2414.05 479.119 2418.06L530.566 2531.74ZM431.306 2312.41C431.919 2311.81 432.527 2311.21 433.133 2310.61C516.207 2228.61 599.751 2146.37 714.885 2084.7C722.082 2080.84 729.409 2077.06 736.865 2073.37C717.863 2037.9 698.722 2002.16 679.41 1966.11C674.881 1968.41 670.4 1970.76 665.969 1973.13C548.801 2035.89 464.77 2119.94 382.452 2204.44L431.306 2312.41ZM332.17 2093.34C413.054 2007.28 497.07 1922.55 615.088 1859.34C616.927 1858.36 618.784 1857.37 620.645 1856.39C600.698 1819.15 580.598 1781.63 560.323 1743.77C442.728 1807.04 359.189 1891.62 280.123 1978.33L332.17 2093.34ZM225.961 1858.64C302.2 1773.12 384.005 1690.39 498.218 1627.82C477.029 1588.26 455.623 1548.3 434.076 1508.07C323.225 1569.38 243.057 1649.73 169.325 1733.49L225.961 1858.64ZM109.859 1602.09C181.432 1520.78 260.133 1443.37 367.593 1383.95C344.754 1341.31 321.688 1298.25 298.454 1254.87C194.351 1311.69 116.991 1385.49 47.1994 1463.63L109.859 1602.09Z" fill="#D3D2D0"/>
<path d="M47.2005 1463.62C116.992 1385.48 194.352 1311.68 298.455 1254.86C274.612 1210.34 250.583 1165.48 226.319 1120.18C226.124 1120.29 225.936 1120.39 225.741 1120.49C225.692 1120.52 225.622 1120.55 225.573 1120.58C225.441 1120.65 225.322 1120.72 225.197 1120.78C225.051 1120.86 224.918 1120.93 224.779 1121.01C224.751 1121.02 224.737 1121.03 224.716 1121.04C224.41 1121.2 224.103 1121.37 223.797 1121.53C124.792 1174.56 49.1179 1243.81 -18.8827 1317.6L47.2005 1463.62Z" fill="#AC1C22"/>
<path d="M169.325 1733.47C243.057 1649.72 323.225 1569.37 434.076 1508.06C412.095 1467.02 389.951 1425.68 367.593 1383.94C260.133 1443.36 181.432 1520.77 109.859 1602.08L169.325 1733.47Z" fill="#AC1C22"/>
<path d="M280.134 1978.31C359.2 1891.61 442.739 1807.03 560.335 1743.76C539.802 1705.43 519.105 1666.79 498.23 1627.81C384.016 1690.38 302.211 1773.11 225.972 1858.63L280.134 1978.31Z" fill="#AC1C22"/>
<path d="M382.452 2204.43C464.769 2119.93 548.8 2035.88 665.968 1973.13C670.4 1970.75 674.881 1968.41 679.409 1966.1C659.989 1929.84 640.382 1893.23 620.644 1856.38C618.784 1857.36 616.927 1858.35 615.087 1859.33C497.069 1922.55 413.054 2007.28 332.169 2093.33L382.452 2204.43Z" fill="#AC1C22"/>
<path d="M1878.68 265.506C1591.39 424.908 1263.79 498.943 953.588 599.94C564.795 726.532 205.269 885.669 -103.571 1159.32C159.475 1627.79 420.289 2097.5 690.295 2562.01C1185.39 2224.25 1799.13 1934.57 2406.42 1893.99C2226.74 1352.39 2049.39 810.007 1878.68 265.506Z" fill="white"/>
<path d="M1878.7 265.505C1591.41 424.907 1263.81 498.942 953.605 599.939C564.812 726.532 205.286 885.668 -103.554 1159.32C-75.5565 1209.13 -61.8394 1233.57 -34.8805 1281.64C533.917 773.807 1267.33 724.256 1912.43 373.051C1898.65 329.262 1891.9 307.739 1878.7 265.505Z" fill="#D51E25"/>
<path d="M1947.57 484.37C1306.47 821.999 590.79 900.292 31.3821 1399.84C57.4419 1446.37 70.2522 1469.25 95.534 1514.39C647.754 1025.54 1345.42 920.307 1984.06 599.207C1969.21 552.595 1961.9 529.609 1947.57 484.37Z" fill="#D51E25"/>
<path d="M2021.78 717.363C1385.02 1019.04 703.388 1148.78 157.903 1625.75C182.523 1669.72 194.692 1691.42 218.799 1734.4C758.578 1271.2 1425.19 1117.73 2060.75 838.634C2044.94 789.538 2037.14 765.259 2021.78 717.363Z" fill="#D51E25"/>
<path d="M2100.83 962.77C1466.07 1217.13 814.146 1393.39 278.554 1840.77C302.26 1882.94 314.014 1903.83 337.441 1945.37C868.526 1514.79 1508.54 1316.54 2141.93 1089.56C2125.29 1038.34 2117.06 1012.97 2100.83 962.77Z" fill="#D51E25"/>
<path d="M2184.04 1218.82C1552.54 1416.91 922.933 1636.1 395.809 2048.7C419.076 2089.82 430.68 2110.28 453.929 2151.16C977.294 1757.69 1598.23 1517.87 2227.02 1350.29C2209.66 1297.29 2201.06 1270.97 2184.04 1218.82Z" fill="#D51E25"/>
<path d="M2270.78 1483.77C1645.37 1620 1032.41 1880.07 512.068 2253.26C535.414 2294.09 547.108 2314.5 570.66 2355.45C1087.3 2002.74 1694.83 1723.16 2315.34 1619.02C2297.38 1564.59 2288.45 1537.52 2270.78 1483.77Z" fill="#D51E25"/>
<path d="M2360.61 1755.85C1746.14 1827.89 1142.99 2126.38 630.004 2458.21C653.9 2499.49 665.943 2520.22 690.31 2562.01C1199.6 2251 1799.15 1934.58 2406.44 1894C2388 1838.5 2378.82 1810.85 2360.61 1755.85Z" fill="#D51E25"/>
<path d="M1878.69 265.498C1426.67 500.378 940.325 542.792 450.29 797.197C587.003 1079.4 719.11 1358.67 852.847 1642.3C1270.1 1425.78 1710.98 1279.51 2153.93 1126.41C2060.86 839.861 1968.82 552.982 1878.69 265.498Z" fill="#1F3259"/>
<path d="M1790.57 346.574C1798.73 356.224 1802.8 361.065 1810.94 370.81C1824.75 364.19 1831.57 360.844 1845.04 354.022C1836.51 366.86 1832.21 373.234 1823.51 385.944C1831.62 395.764 1835.67 400.706 1843.77 410.651C1830.38 408.608 1823.63 407.579 1809.98 405.517C1801.19 418.146 1796.74 424.43 1787.79 436.949C1788.17 423.062 1788.37 416.128 1788.78 402.304C1774.98 400.21 1768.01 399.153 1753.97 397.011C1768.31 390.676 1775.4 387.46 1789.42 380.954C1789.86 367.162 1790.09 360.297 1790.57 346.574Z" fill="white"/>
<path d="M1581.66 432.862C1590.69 442.756 1595.2 447.711 1604.18 457.667C1619.67 451.864 1627.36 448.94 1642.58 443.028C1632.83 455.073 1627.93 461.081 1618.07 473.083C1627.04 483.075 1631.5 488.091 1640.42 498.145C1625.49 495.545 1617.95 494.236 1602.8 491.603C1592.88 503.593 1587.91 509.585 1577.91 521.556C1578.44 507.906 1578.71 501.095 1579.27 487.518C1563.97 484.854 1556.26 483.515 1540.75 480.815C1556.63 475.156 1564.51 472.307 1580.15 466.578C1580.74 453.054 1581.03 446.316 1581.66 432.862Z" fill="white"/>
<path d="M1352.62 510.759C1362.46 521.002 1367.38 526.105 1377.16 536.35C1393.85 530.888 1402.16 528.157 1418.67 522.676C1408.12 534.461 1402.84 540.38 1392.25 552.223C1402 562.476 1406.87 567.608 1416.56 577.884C1400.38 574.954 1392.23 573.482 1375.87 570.519C1365.26 582.398 1359.95 588.36 1349.32 600.286C1349.77 586.525 1350.02 579.633 1350.5 565.931C1334.02 562.954 1325.73 561.458 1309.06 558.436C1326.02 552.981 1334.48 550.254 1351.28 544.796C1351.8 531.139 1352.05 524.332 1352.62 510.759Z" fill="white"/>
<path d="M1109.87 587.335C1120.44 597.918 1125.7 603.194 1136.2 613.759C1153.66 608.144 1162.36 605.347 1179.73 599.802C1168.79 611.849 1163.33 617.894 1152.4 630.05C1162.86 640.598 1168.07 645.883 1178.46 656.411C1161.36 653.416 1152.77 651.9 1135.52 648.898C1124.61 661.135 1119.16 667.293 1108.27 679.66C1108.47 665.472 1108.57 658.375 1108.8 644.256C1091.47 641.246 1082.76 639.733 1065.29 636.702C1082.88 630.964 1091.68 628.118 1109.2 622.456C1109.45 608.379 1109.57 601.353 1109.87 587.335Z" fill="white"/>
<path d="M859.768 669.662C870.953 680.5 876.529 685.905 887.642 696.693C905.412 690.447 914.304 687.362 932.06 681.258C921.114 694.016 915.643 700.425 904.776 713.347C915.831 724.111 921.34 729.49 932.334 740.207C914.647 737.468 905.779 736.112 887.988 733.395C877.155 746.432 871.763 752.97 861.009 766.172C860.767 751.373 860.661 743.978 860.466 729.217C842.614 726.522 833.659 725.186 815.713 722.515C833.503 715.99 842.387 712.773 860.172 706.422C859.991 691.688 859.912 684.343 859.768 669.662Z" fill="white"/>
<path d="M655.724 808.793C667.255 819.625 673.019 825.029 684.474 835.803C666.561 833.697 657.582 832.651 639.611 830.621C629.222 844.82 624.059 851.97 613.799 866.378C612.994 850.831 612.595 843.056 611.82 827.53C593.811 825.546 584.785 824.58 566.726 822.687C584.244 814.9 593.023 811.085 610.626 803.557C609.861 788.034 609.484 780.283 608.759 764.784C620.434 775.718 626.266 781.166 637.852 792.032C655.502 784.658 664.339 781.037 682.031 773.892C671.451 787.753 666.184 794.726 655.724 808.793Z" fill="white"/>
<path d="M1713.62 500.232C1714.05 486.418 1714.27 479.527 1714.72 465.783C1723.36 475.763 1727.66 480.784 1736.26 490.856C1750.82 484.75 1758.04 481.656 1772.29 475.411C1763.26 487.871 1758.71 494.092 1749.54 506.47C1758.12 516.598 1762.41 521.69 1770.96 531.903C1756.82 529.372 1749.68 528.101 1735.31 525.56C1726.06 537.894 1721.41 544.054 1712.05 556.322C1712.41 542.415 1712.61 535.472 1713 521.621C1698.49 519.065 1691.19 517.775 1676.44 515.194C1691.47 509.263 1698.89 506.271 1713.62 500.232Z" fill="white"/>
<path d="M1496.13 581.741C1496.62 568.022 1496.87 561.18 1497.4 547.53C1506.82 557.718 1511.51 562.823 1520.9 573.047C1536.86 567.411 1544.8 564.568 1560.54 558.888C1550.52 570.874 1545.47 576.886 1535.38 588.881C1544.72 599.128 1549.4 604.261 1558.72 614.558C1543.23 611.708 1535.43 610.276 1519.74 607.414C1509.6 619.418 1504.5 625.435 1494.3 637.461C1494.72 623.634 1494.95 616.739 1495.41 602.981C1479.61 600.105 1471.65 598.653 1455.66 595.753C1471.94 590.162 1480.04 587.363 1496.13 581.741Z" fill="white"/>
<path d="M1262.62 660.494C1262.97 646.538 1263.16 639.591 1263.54 625.709C1273.7 636.145 1278.77 641.349 1288.86 651.786C1305.78 646.162 1314.22 643.372 1331.01 637.78C1320.38 649.812 1315.06 655.838 1304.42 667.937C1314.48 678.389 1319.5 683.609 1329.51 694.063C1312.98 691.108 1304.68 689.641 1287.98 686.677C1277.33 698.836 1272.02 704.929 1261.38 717.173C1261.66 703.116 1261.81 696.103 1262.12 682.103C1245.34 679.141 1236.92 677.652 1219.97 674.677C1237.09 668.976 1245.62 666.141 1262.62 660.494Z" fill="white"/>
<path d="M1019.38 742.829C1019.41 728.387 1019.41 721.177 1019.49 706.783C1030.27 717.452 1035.64 722.768 1046.36 733.407C1063.81 727.358 1072.54 724.351 1089.93 718.417C1079.11 730.914 1073.69 737.212 1062.9 749.852C1073.58 760.479 1078.9 765.785 1089.51 776.392C1072.26 773.599 1063.63 772.201 1046.26 769.432C1035.5 782.157 1030.11 788.563 1019.41 801.424C1019.37 786.903 1019.36 779.643 1019.37 765.17C1001.92 762.411 993.167 761.03 975.607 758.295C993.126 752.032 1001.89 748.95 1019.38 742.829Z" fill="white"/>
<path d="M772.502 835.063C772.039 819.97 771.834 812.44 771.422 797.374C782.725 808.149 788.357 813.524 799.596 824.262C817.134 817.334 825.893 813.916 843.447 807.168C832.787 820.544 827.474 827.298 816.904 840.841C828.085 851.556 833.673 856.883 844.797 867.557C827.176 865.241 818.339 864.093 800.627 861.843C790.109 875.501 784.871 882.395 774.457 896.231C773.951 881.09 773.713 873.515 773.232 858.405C755.475 856.188 746.597 855.098 728.772 852.954C746.245 845.684 754.981 842.107 772.502 835.063Z" fill="white"/>
<path d="M1840.03 533.599C1840.22 519.378 1840.32 512.288 1840.53 498.115C1848.8 508.338 1852.93 513.468 1861.18 523.817C1874.77 517.443 1881.47 514.22 1894.73 507.7C1886.49 520.624 1882.31 527.067 1873.9 539.863C1882.15 550.279 1886.27 555.512 1894.49 566.062C1881.15 563.456 1874.42 562.166 1860.85 559.589C1852.34 572.314 1848.06 578.641 1839.4 591.271C1839.53 576.977 1839.6 569.848 1839.76 555.596C1826.05 553.022 1819.15 551.735 1805.2 549.172C1819.29 543.008 1826.25 539.888 1840.03 533.599Z" fill="white"/>
<path d="M1634.77 618.018C1635.16 604.111 1635.35 597.178 1635.76 583.348C1644.81 593.599 1649.32 598.741 1658.33 609.064C1673.5 603.252 1681.02 600.322 1695.94 594.443C1686.52 606.699 1681.76 612.819 1672.23 625.042C1681.21 635.408 1685.7 640.608 1694.66 651.053C1679.88 648.194 1672.43 646.755 1657.45 643.905C1647.86 656.116 1643.05 662.216 1633.37 674.405C1633.69 660.418 1633.86 653.44 1634.21 639.505C1619.1 636.652 1611.49 635.239 1596.19 632.381C1611.74 626.661 1619.46 623.781 1634.77 618.018Z" fill="white"/>
<path d="M1410.87 698.044C1411.23 684.105 1411.41 677.148 1411.79 663.269C1421.57 673.663 1426.44 678.862 1436.16 689.285C1452.48 683.629 1460.6 680.801 1476.74 675.15C1466.53 687.229 1461.4 693.282 1451.14 705.395C1460.82 715.838 1465.66 721.066 1475.3 731.537C1459.38 728.583 1451.37 727.104 1435.28 724.151C1424.99 736.303 1419.84 742.395 1409.53 754.598C1409.83 740.569 1409.99 733.56 1410.33 719.59C1394.12 716.64 1385.98 715.175 1369.61 712.227C1386.19 706.538 1394.45 703.707 1410.87 698.044Z" fill="white"/>
<path d="M1174.4 779.426C1174.56 765.168 1174.65 758.044 1174.83 743.841C1185.23 754.401 1190.43 759.687 1200.77 770.241C1217.81 764.324 1226.33 761.397 1243.27 755.557C1232.66 767.903 1227.34 774.095 1216.74 786.543C1227.05 797.098 1232.21 802.378 1242.47 812.938C1225.7 810.085 1217.27 808.657 1200.36 805.832C1189.77 818.347 1184.49 824.62 1173.92 837.247C1174 822.903 1174.05 815.766 1174.18 801.483C1157.2 798.665 1148.68 797.25 1131.57 794.463C1148.75 788.397 1157.31 785.391 1174.4 779.426Z" fill="white"/>
<path d="M931.532 867.989C931.315 853.221 931.21 845.844 931.026 831.104C941.98 841.779 947.438 847.114 958.323 857.745C975.656 851.169 984.33 847.913 1001.65 841.471C991.003 854.479 985.674 861.018 975.093 874.173C985.943 884.787 991.371 890.083 1002.15 900.689C984.856 898.208 976.18 896.992 958.792 894.56C948.259 907.805 943.007 914.455 932.528 927.851C932.26 913.021 932.122 905.617 931.877 890.829C914.437 888.433 905.708 887.254 888.175 884.918C905.521 878.065 914.184 874.671 931.532 867.989Z" fill="white"/>
<path d="M688.245 969.501C687.512 954.105 687.154 946.406 686.446 931.023C697.816 941.655 703.478 946.969 714.787 957.553C731.983 949.885 740.604 946.11 757.856 938.681C747.546 952.676 742.415 959.719 732.208 973.892C743.47 984.456 749.075 989.73 760.272 1000.26C742.789 998.449 734.033 997.571 716.5 995.871C706.364 1010.16 701.325 1017.34 691.3 1031.8C690.52 1016.39 690.149 1008.69 689.401 993.288C671.838 991.649 663.039 990.857 645.439 989.318C662.522 981.271 671.088 977.31 688.245 969.501Z" fill="white"/>
<path d="M1765.35 649.561C1765.54 635.386 1765.66 628.315 1765.89 614.192C1774.6 624.63 1778.93 629.876 1787.61 640.417C1801.93 634.468 1809.02 631.483 1823.07 625.449C1814.3 638.01 1809.89 644.253 1801 656.727C1809.65 667.333 1813.96 672.663 1822.6 683.372C1808.53 680.405 1801.45 678.917 1787.18 675.987C1778.21 688.435 1773.69 694.648 1764.6 707.028C1764.76 692.788 1764.84 685.685 1765.03 671.49C1750.64 668.563 1743.39 667.112 1728.8 664.223C1743.54 658.391 1750.86 655.456 1765.35 649.561Z" fill="white"/>
<path d="M1551.8 730.666C1552.11 716.658 1552.27 709.659 1552.62 695.7C1562.03 706.146 1566.71 711.393 1576.08 721.886C1591.73 716.192 1599.52 713.339 1614.97 707.625C1605.24 719.826 1600.34 725.918 1590.54 738.117C1599.89 748.646 1604.55 753.926 1613.86 764.52C1598.56 761.492 1590.84 759.969 1575.35 756.974C1565.5 769.181 1560.57 775.285 1550.66 787.516C1550.91 773.421 1551.05 766.38 1551.33 752.337C1535.74 749.349 1527.9 747.862 1512.13 744.896C1528.09 739.196 1536.02 736.357 1551.8 730.666Z" fill="white"/>
<path d="M1323.1 811.425C1323.31 797.271 1323.44 790.203 1323.69 776.097C1333.75 786.624 1338.77 791.879 1348.78 802.415C1365.34 796.599 1373.58 793.712 1390.01 787.95C1379.7 800.227 1374.54 806.38 1364.19 818.718C1374.18 829.265 1379.15 834.556 1389.09 845.136C1372.81 842.199 1364.65 840.728 1348.23 837.823C1337.87 850.217 1332.7 856.424 1322.34 868.893C1322.51 854.638 1322.59 847.539 1322.79 833.343C1306.28 830.451 1298 829.004 1281.36 826.134C1298.11 820.221 1306.46 817.274 1323.1 811.425Z" fill="white"/>
<path d="M1085.14 897.122C1085.09 882.58 1085.07 875.317 1085.06 860.827C1095.67 871.423 1100.97 876.72 1111.53 887.311C1128.59 880.997 1137.12 877.872 1154.12 871.669C1143.58 884.415 1138.32 890.822 1127.82 903.67C1138.34 914.255 1143.59 919.549 1154.06 930.125C1137.13 927.482 1128.64 926.175 1111.6 923.574C1101.12 936.503 1095.9 943.011 1085.46 956.062C1085.35 941.462 1085.31 934.161 1085.23 919.594C1068.13 917.027 1059.58 915.765 1042.38 913.249C1059.49 906.725 1068.05 903.504 1085.14 897.122Z" fill="white"/>
<path d="M843.942 993.005C843.483 977.955 843.237 970.43 842.807 955.399C853.875 965.986 859.398 971.259 870.406 981.816C887.541 974.637 896.112 971.087 913.256 964.092C902.869 977.626 897.679 984.441 887.37 998.122C898.342 1008.66 903.812 1013.94 914.73 1024.46C897.468 1022.36 888.818 1021.35 871.495 1019.34C861.232 1033.12 856.119 1040.05 845.948 1053.98C845.426 1038.9 845.171 1031.36 844.681 1016.3C827.32 1014.34 818.63 1013.38 801.208 1011.5C818.282 1004.01 826.827 1000.31 843.942 993.005Z" fill="white"/>
<path d="M1891.15 687.203C1891.12 672.643 1891.11 665.374 1891.1 650.847C1899.48 661.619 1903.67 667.044 1912.03 677.95C1925.44 671.939 1932.07 668.9 1945.18 662.796C1937.17 675.676 1933.13 682.098 1924.95 694.87C1933.31 705.856 1937.49 711.387 1945.83 722.516C1932.5 719.283 1925.8 717.69 1912.26 714.542C1903.99 727.249 1899.79 733.593 1891.38 746.206C1891.3 731.598 1891.28 724.311 1891.23 709.732C1877.56 706.627 1870.67 705.068 1856.79 702.023C1870.68 696.132 1877.56 693.169 1891.15 687.203Z" fill="white"/>
<path d="M1688.96 768.838C1689.15 754.65 1689.25 747.568 1689.47 733.421C1698.54 744.036 1703.07 749.34 1712.11 760.034C1727.03 754.328 1734.44 751.475 1749.12 745.744C1739.95 758.095 1735.35 764.264 1726.08 776.593C1735.11 787.336 1739.61 792.726 1748.62 803.559C1733.94 800.364 1726.56 798.775 1711.71 795.628C1702.38 807.941 1697.69 814.095 1688.28 826.4C1688.42 812.138 1688.51 805.018 1688.67 790.798C1673.7 787.69 1666.17 786.141 1651.03 783.058C1666.3 777.389 1673.9 774.541 1688.96 768.838Z" fill="white"/>
<path d="M1469.11 849.003C1469.32 834.839 1469.44 827.763 1469.69 813.644C1479.4 824.223 1484.25 829.515 1493.93 840.137C1509.95 834.401 1517.91 831.546 1533.76 825.843C1523.82 838.106 1518.83 844.25 1508.85 856.553C1518.5 867.198 1523.33 872.529 1532.94 883.224C1517.22 880.144 1509.31 878.616 1493.43 875.583C1483.42 887.918 1478.41 894.088 1468.38 906.474C1468.53 892.226 1468.61 885.127 1468.79 870.925C1452.83 867.919 1444.79 866.416 1428.66 863.449C1444.92 857.65 1453.01 854.76 1469.11 849.003Z" fill="white"/>
<path d="M1237.42 932.432C1237.47 918.035 1237.5 910.852 1237.58 896.508C1247.87 907.092 1253 912.393 1263.24 922.986C1279.94 916.895 1288.27 913.867 1304.86 907.856C1294.54 920.417 1289.37 926.718 1279.05 939.367C1289.26 949.964 1294.35 955.28 1304.52 965.9C1288 963.089 1279.74 961.699 1263.11 958.948C1252.8 971.642 1247.64 978.032 1237.34 990.828C1237.33 976.363 1237.33 969.142 1237.36 954.711C1220.67 951.994 1212.29 950.638 1195.47 947.963C1212.28 941.702 1220.67 938.588 1237.42 932.432Z" fill="white"/>
<path d="M999.669 1023.88C999.402 1009.09 999.268 1001.69 999.031 986.932C1009.79 997.485 1015.16 1002.76 1025.89 1013.32C1042.85 1006.52 1051.33 1003.17 1068.27 996.521C1057.91 1009.69 1052.73 1016.31 1042.42 1029.62C1053.1 1040.16 1058.42 1045.44 1069.05 1055.98C1052.07 1053.64 1043.57 1052.49 1026.5 1050.22C1016.22 1063.6 1011.09 1070.33 1000.87 1083.85C1000.56 1069 1000.4 1061.58 1000.11 1046.76C983.004 1044.54 974.427 1043.46 957.245 1041.31C974.208 1034.26 982.702 1030.77 999.669 1023.88Z" fill="white"/>
<path d="M761.611 1128.03C760.885 1112.74 760.536 1105.09 759.838 1089.81C770.965 1100.23 776.525 1105.43 787.587 1115.83C804.411 1108 812.832 1104.13 829.714 1096.52C819.646 1110.58 814.64 1117.65 804.661 1131.87C815.696 1142.26 821.202 1147.45 832.19 1157.82C815.052 1156.2 806.479 1155.42 789.308 1153.91C779.399 1168.22 774.46 1175.42 764.661 1189.88C763.888 1174.58 763.514 1166.93 762.773 1151.64C745.58 1150.21 736.971 1149.52 719.753 1148.21C736.453 1140.01 744.823 1135.99 761.611 1128.03Z" fill="white"/>
<path d="M1818.64 803.6C1818.65 789.13 1818.65 781.913 1818.69 767.481C1827.47 778.373 1831.84 783.851 1840.59 794.854C1854.72 789.177 1861.72 786.321 1875.6 780.602C1867.07 793.151 1862.76 799.411 1854.11 811.892C1862.85 822.966 1867.2 828.522 1875.93 839.709C1861.91 836.245 1854.86 834.534 1840.65 831.153C1831.91 843.598 1827.52 849.807 1818.66 862.209C1818.63 847.691 1818.62 840.449 1818.62 825.969C1804.31 822.634 1797.1 820.98 1782.6 817.71C1797.13 812.086 1804.34 809.256 1818.64 803.6Z" fill="white"/>
<path d="M1608.4 882.824C1608.54 868.57 1608.63 861.449 1608.81 847.222C1618.21 857.948 1622.91 863.322 1632.28 874.112C1647.68 868.471 1655.32 865.661 1670.53 860.035C1661.06 872.335 1656.29 878.501 1646.74 890.799C1656.11 901.625 1660.77 907.042 1670.1 917.932C1654.93 914.653 1647.3 913.032 1631.96 909.818C1622.37 922.134 1617.56 928.306 1607.9 940.642C1608 926.315 1608.05 919.16 1608.19 904.877C1592.75 901.694 1585 900.119 1569.4 896.996C1585.08 891.312 1592.88 888.479 1608.4 882.824Z" fill="white"/>
<path d="M1383.8 964.156C1383.9 949.811 1383.95 942.656 1384.07 928.363C1394.06 938.998 1399.04 944.318 1408.99 954.993C1425.24 949.094 1433.34 946.165 1449.47 940.33C1439.43 952.759 1434.39 958.996 1424.32 971.504C1434.24 982.201 1439.2 987.542 1449.09 998.279C1433.02 995.276 1424.94 993.781 1408.75 990.845C1398.67 1003.38 1393.63 1009.67 1383.54 1022.29C1383.58 1007.87 1383.6 1000.69 1383.68 986.312C1367.42 983.414 1359.25 981.967 1342.85 979.122C1359.29 973.091 1367.48 970.099 1383.8 964.156Z" fill="white"/>
<path d="M1150.54 1051.73C1150.42 1037.1 1150.36 1029.8 1150.27 1015.2C1160.75 1025.78 1165.97 1031.08 1176.4 1041.67C1193.13 1035.2 1201.49 1032 1218.16 1025.66C1207.88 1038.55 1202.75 1045.02 1192.5 1058.03C1202.9 1068.63 1208.11 1073.93 1218.47 1084.54C1201.82 1081.96 1193.47 1080.68 1176.71 1078.16C1166.49 1091.24 1161.38 1097.79 1151.2 1110.97C1151.01 1096.29 1150.93 1088.96 1150.77 1074.33C1133.96 1071.86 1125.53 1070.65 1108.65 1068.25C1125.42 1061.57 1133.81 1058.26 1150.54 1051.73Z" fill="white"/>
<path d="M914.228 1149.8C913.721 1134.77 913.481 1127.26 913.021 1112.26C923.902 1122.71 929.317 1127.94 940.145 1138.39C956.923 1131.06 965.328 1127.44 982.129 1120.29C971.971 1133.92 966.916 1140.77 956.839 1154.53C967.635 1164.97 973.026 1170.2 983.782 1180.64C966.828 1178.69 958.336 1177.71 941.321 1175.84C931.296 1189.68 926.311 1196.65 916.368 1210.63C915.818 1195.57 915.54 1188.05 915.022 1173.03C897.98 1171.22 889.444 1170.34 872.374 1168.63C889.09 1161 897.457 1157.24 914.228 1149.8Z" fill="white"/>
<path d="M1944.2 846.002C1943.97 831.164 1943.85 823.756 1943.65 808.937C1952.14 820.26 1956.39 825.954 1964.88 837.421C1978.17 831.862 1984.73 829.081 1997.73 823.471C1989.91 836.225 1985.97 842.568 1977.98 855.212C1986.46 866.764 1990.71 872.574 1999.19 884.281C1985.84 880.391 1979.11 878.482 1965.58 874.719C1957.5 887.305 1953.41 893.573 1945.19 906.082C1944.93 891.211 1944.8 883.788 1944.56 868.934C1930.91 865.237 1924.04 863.429 1910.19 859.836C1923.93 854.322 1930.73 851.55 1944.2 846.002Z" fill="white"/>
<path d="M1744.47 923.551C1744.48 909.109 1744.51 901.895 1744.55 887.485C1753.66 898.462 1758.21 903.978 1767.3 915.052C1782.02 909.547 1789.32 906.785 1803.81 901.29C1794.87 913.655 1790.39 919.831 1781.34 932.172C1790.42 943.303 1794.96 948.907 1804.01 960.124C1789.43 956.531 1782.09 954.75 1767.33 951.254C1758.23 963.592 1753.66 969.757 1744.47 982.083C1744.44 967.59 1744.44 960.337 1744.44 945.875C1729.59 942.427 1722.11 940.739 1707.09 937.37C1722.14 931.838 1729.62 929.067 1744.47 923.551Z" fill="white"/>
<path d="M1528.04 1002.5C1528.12 988.135 1528.14 980.966 1528.24 966.639C1537.94 977.424 1542.78 982.818 1552.43 993.654C1568.18 987.943 1576.02 985.106 1591.62 979.452C1581.93 991.824 1577.07 998.015 1567.33 1010.42C1576.97 1021.3 1581.79 1026.75 1591.4 1037.68C1575.83 1034.42 1568 1032.81 1552.29 1029.62C1542.53 1042.06 1537.66 1048.28 1527.87 1060.76C1527.89 1046.32 1527.91 1039.11 1527.95 1024.73C1512.15 1021.59 1504.21 1020.04 1488.27 1016.97C1504.25 1011.15 1512.2 1008.25 1528.04 1002.5Z" fill="white"/>
<path d="M1300.47 1086.6C1300.41 1072.07 1300.39 1064.82 1300.36 1050.34C1310.55 1060.99 1315.65 1066.33 1325.81 1077.02C1342.21 1070.84 1350.37 1067.77 1366.68 1061.7C1356.6 1074.39 1351.59 1080.75 1341.51 1093.52C1351.65 1104.22 1356.71 1109.58 1366.81 1120.31C1350.52 1117.47 1342.35 1116.06 1325.95 1113.29C1315.88 1126.12 1310.86 1132.55 1300.81 1145.47C1300.7 1130.89 1300.66 1123.61 1300.58 1109.06C1284.12 1106.34 1275.86 1105 1259.3 1102.36C1275.8 1095.99 1284.03 1092.85 1300.47 1086.6Z" fill="white"/>
<path d="M1067.19 1179.53C1066.86 1164.7 1066.68 1157.28 1066.38 1142.48C1077 1153 1082.33 1158.25 1092.9 1168.78C1109.54 1161.88 1117.86 1158.46 1134.49 1151.7C1124.36 1164.99 1119.3 1171.66 1109.23 1185.05C1119.78 1195.58 1125.06 1200.85 1135.57 1211.38C1118.86 1209.1 1110.49 1207.97 1093.7 1205.79C1083.67 1219.25 1078.65 1226.02 1068.66 1239.59C1068.28 1224.72 1068.09 1217.3 1067.73 1202.45C1050.91 1200.31 1042.47 1199.26 1025.58 1197.23C1042.23 1190.06 1050.55 1186.54 1067.19 1179.53Z" fill="white"/>
<path d="M833.763 1284.94C833.01 1269.74 832.648 1262.14 831.931 1246.94C842.877 1257.21 848.337 1262.37 859.223 1272.65C875.723 1264.75 883.991 1260.85 900.532 1253.15C890.69 1267.23 885.787 1274.32 876.031 1288.53C886.893 1298.81 892.32 1303.94 903.149 1314.21C886.306 1312.68 877.87 1311.95 861.002 1310.54C851.305 1324.82 846.478 1332 836.88 1346.42C836.085 1331.21 835.701 1323.61 834.931 1308.41C818.052 1307.08 809.608 1306.45 792.714 1305.24C809.091 1297.02 817.301 1292.96 833.763 1284.94Z" fill="white"/>
<path d="M1873.52 962.006C1873.36 947.296 1873.28 939.951 1873.14 925.27C1881.98 936.619 1886.42 942.319 1895.26 953.778C1909.24 948.466 1916.17 945.814 1929.91 940.499C1921.57 952.954 1917.36 959.165 1908.9 971.56C1917.72 983.101 1922.12 988.9 1930.94 1000.57C1916.95 996.549 1909.9 994.576 1895.74 990.691C1887.2 1003.06 1882.9 1009.23 1874.24 1021.56C1874.04 1006.82 1873.95 999.458 1873.78 984.739C1859.51 980.921 1852.34 979.036 1837.9 975.337C1852.26 969.993 1859.39 967.332 1873.52 962.006Z" fill="white"/>
<path d="M1665.95 1038.13C1665.94 1023.67 1665.95 1016.43 1665.96 1002C1675.39 1013.01 1680.09 1018.51 1689.48 1029.6C1704.66 1024.11 1712.2 1021.38 1727.2 1015.93C1717.95 1028.26 1713.31 1034.44 1703.99 1046.77C1713.37 1057.92 1718.05 1063.49 1727.41 1074.71C1712.34 1071.11 1704.78 1069.33 1689.56 1065.84C1680.19 1078.2 1675.5 1084.38 1666.07 1096.75C1666.02 1082.23 1666 1074.98 1665.97 1060.5C1650.66 1057.06 1642.98 1055.36 1627.54 1052.01C1642.99 1046.43 1650.66 1043.66 1665.95 1038.13Z" fill="white"/>
<path d="M1444.96 1118.71C1444.92 1104.21 1444.92 1096.98 1444.91 1082.52C1454.85 1093.31 1459.82 1098.71 1469.73 1109.54C1485.72 1103.64 1493.68 1100.73 1509.55 1094.92C1499.75 1107.44 1494.84 1113.72 1485.01 1126.32C1494.89 1137.18 1499.83 1142.61 1509.69 1153.53C1493.79 1150.39 1485.82 1148.85 1469.81 1145.8C1459.97 1158.43 1455.05 1164.76 1445.21 1177.46C1445.12 1162.9 1445.08 1155.63 1445.03 1141.12C1428.95 1138.12 1420.88 1136.64 1404.69 1133.72C1420.85 1127.66 1428.91 1124.66 1444.96 1118.71Z" fill="white"/>
<path d="M1215.76 1206.9C1215.55 1192.19 1215.44 1184.86 1215.25 1170.19C1225.63 1180.81 1230.81 1186.11 1241.17 1196.75C1257.58 1190.23 1265.78 1186.99 1282.16 1180.58C1272.13 1193.58 1267.13 1200.11 1257.13 1213.19C1267.45 1223.85 1272.6 1229.18 1282.89 1239.87C1266.46 1237.26 1258.2 1235.98 1241.7 1233.46C1231.72 1246.61 1226.73 1253.22 1216.79 1266.46C1216.51 1251.71 1216.38 1244.35 1216.13 1229.62C1199.56 1227.17 1191.25 1225.96 1174.61 1223.61C1191.09 1216.85 1199.32 1213.51 1215.76 1206.9Z" fill="white"/>
<path d="M983.741 1305.91C983.192 1290.91 982.939 1283.4 982.426 1268.42C993.156 1278.81 998.508 1284.01 1009.2 1294.42C1025.66 1287.03 1033.9 1283.37 1050.39 1276.16C1040.47 1289.84 1035.53 1296.71 1025.69 1310.49C1036.35 1320.91 1041.69 1326.13 1052.33 1336.55C1035.62 1334.63 1027.26 1333.67 1010.52 1331.85C1000.72 1345.71 995.833 1352.67 986.106 1366.65C985.496 1351.62 985.203 1344.11 984.623 1329.1C967.862 1327.35 959.482 1326.49 942.668 1324.86C959.083 1317.19 967.3 1313.4 983.741 1305.91Z" fill="white"/>
<path d="M1801.27 1081.86C1801.13 1067.2 1801.06 1059.89 1800.94 1045.27C1810.11 1056.61 1814.68 1062.32 1823.83 1073.78C1838.37 1068.55 1845.61 1065.95 1859.94 1060.77C1851.2 1073.07 1846.8 1079.22 1837.96 1091.51C1847.11 1103.03 1851.67 1108.8 1860.8 1120.42C1846.26 1116.38 1838.95 1114.4 1824.25 1110.5C1815.36 1122.77 1810.89 1128.91 1801.9 1141.19C1801.72 1126.5 1801.65 1119.18 1801.5 1104.51C1786.71 1100.68 1779.28 1098.79 1764.35 1095.07C1779.2 1089.76 1786.6 1087.11 1801.27 1081.86Z" fill="white"/>
<path d="M1587.74 1158.45C1587.66 1143.91 1587.64 1136.65 1587.59 1122.15C1597.28 1133.15 1602.11 1138.66 1611.77 1149.74C1627.3 1144.13 1635.03 1141.36 1650.4 1135.83C1640.93 1148.23 1636.19 1154.45 1626.69 1166.89C1636.32 1178.01 1641.15 1183.58 1650.78 1194.77C1635.33 1191.26 1627.56 1189.53 1611.99 1186.13C1602.46 1198.6 1597.68 1204.83 1588.12 1217.35C1588 1202.77 1587.95 1195.48 1587.86 1180.92C1572.2 1177.59 1564.35 1175.94 1548.57 1172.71C1564.3 1166.95 1572.14 1164.1 1587.74 1158.45Z" fill="white"/>
<path d="M1363.73 1242.05C1363.55 1227.4 1363.48 1220.09 1363.33 1205.49C1373.47 1216.26 1378.54 1221.65 1388.65 1232.45C1404.77 1226.27 1412.81 1223.22 1428.86 1217.15C1419.02 1229.92 1414.1 1236.32 1404.27 1249.16C1414.37 1259.98 1419.4 1265.42 1429.47 1276.29C1413.36 1273.33 1405.28 1271.9 1389.07 1269.04C1379.25 1281.93 1374.34 1288.4 1364.52 1301.38C1364.3 1286.68 1364.19 1279.33 1363.99 1264.68C1347.74 1261.89 1339.59 1260.52 1323.25 1257.83C1339.47 1251.45 1347.57 1248.3 1363.73 1242.05Z" fill="white"/>
<path d="M1134.47 1335.28C1134.05 1320.41 1133.86 1312.98 1133.47 1298.15C1143.98 1308.67 1149.23 1313.94 1159.73 1324.49C1176.07 1317.56 1184.25 1314.13 1200.59 1307.35C1190.7 1320.68 1185.75 1327.38 1175.91 1340.81C1186.38 1351.39 1191.62 1356.66 1202.06 1367.26C1185.57 1364.95 1177.28 1363.82 1160.73 1361.61C1150.91 1375.11 1146.03 1381.88 1136.27 1395.48C1135.8 1380.58 1135.57 1373.14 1135.13 1358.26C1118.54 1356.13 1110.24 1355.08 1093.6 1353.05C1109.95 1345.86 1118.11 1342.31 1134.47 1335.28Z" fill="white"/>
<path d="M905.138 1440.84C904.359 1425.71 903.966 1418.13 903.209 1403.01C914.009 1413.23 919.393 1418.34 930.161 1428.57C946.365 1420.69 954.487 1416.81 970.746 1409.11C961.109 1423.18 956.3 1430.23 946.755 1444.4C957.488 1454.65 962.862 1459.76 973.567 1470.02C956.972 1468.48 948.674 1467.75 932.057 1466.34C922.567 1480.58 917.845 1487.72 908.453 1502.06C907.611 1486.92 907.186 1479.35 906.379 1464.22C889.75 1462.89 881.433 1462.26 864.805 1461.06C880.894 1452.88 888.977 1448.84 905.138 1440.84Z" fill="white"/>
<path d="M1781 169.897C1798.34 223.665 1855.98 253.169 1909.75 235.813C1963.52 218.463 1993.02 160.823 1975.67 107.06C1958.32 53.3023 1900.68 23.7905 1846.91 41.1469C1793.15 58.4935 1763.64 116.137 1781 169.897Z" fill="#3F3E40"/>
<path d="M2941.16 3602.27L1828.18 153.885L1918.43 124.755L3026.13 3556.76L2941.16 3602.27Z" fill="#3F3E40"/>
<path fill-rule="evenodd" clip-rule="evenodd" d="M249.145 961.486L257.379 965.803L218.697 1039.55L210.458 1035.22L249.145 961.486Z" fill="#353939"/>
<path fill-rule="evenodd" clip-rule="evenodd" d="M284.022 1075.24L278.674 1082.87L210.524 1034.99L215.876 1027.39L284.022 1075.24Z" fill="#353939"/>
<path fill-rule="evenodd" clip-rule="evenodd" d="M234.917 964.352L260.419 958.96L281.199 1057.2L255.697 1062.59L234.917 964.352Z" fill="#353939"/>
<path fill-rule="evenodd" clip-rule="evenodd" d="M234.13 983.223L268.912 975.868L270.271 982.316L235.508 989.666L234.13 983.223Z" fill="#505352"/>
<path fill-rule="evenodd" clip-rule="evenodd" d="M239.745 1009.8L274.523 1002.42L280.8 1032.13L246.018 1039.48L239.745 1009.8Z" fill="#505352"/>
<path fill-rule="evenodd" clip-rule="evenodd" d="M285.712 1039.27C312.58 1042.19 331.988 1066.34 329.064 1093.2C326.142 1120.05 301.989 1139.48 275.134 1136.55C248.26 1133.62 228.855 1109.47 231.783 1082.62C234.706 1055.75 258.857 1036.34 285.712 1039.27Z" fill="#353939"/>
<path fill-rule="evenodd" clip-rule="evenodd" d="M283.638 1059.03C299.585 1060.76 311.105 1075.1 309.361 1091.03C307.637 1106.97 293.296 1118.49 277.372 1116.76C261.429 1115.03 249.914 1100.69 251.64 1084.74C253.371 1068.82 267.714 1057.3 283.638 1059.03Z" fill="#505352"/>
<path fill-rule="evenodd" clip-rule="evenodd" d="M282.51 1068.58C293.193 1069.73 300.91 1079.34 299.747 1090.02C298.594 1100.7 288.986 1108.41 278.304 1107.26C267.617 1106.09 259.915 1096.5 261.067 1085.81C262.22 1075.13 271.824 1067.41 282.51 1068.58Z" fill="#353939"/>
<path fill-rule="evenodd" clip-rule="evenodd" d="M1084.65 808.438L921.439 844.349L913.721 809.269L1076.93 773.358L1084.65 808.438Z" fill="#ACB7C1"/>
<path fill-rule="evenodd" clip-rule="evenodd" d="M1346.12 524.009C1277.74 450.512 1111.65 431.431 884.994 564.591C915.699 604.645 946.396 644.7 977.098 684.774C1100.11 631.178 1223.12 577.603 1346.12 524.009Z" fill="#E6DBD1"/>
<path fill-rule="evenodd" clip-rule="evenodd" d="M903.773 577.06L977.023 684.792L1337.61 527.695C1265.23 462.103 1118.19 453.161 903.773 577.06Z" fill="#F9F2EC"/>
<path fill-rule="evenodd" clip-rule="evenodd" d="M921.142 602.512L977.08 684.778L1325.15 533.143C1246.03 488.059 1109.72 493.831 921.142 602.512Z" fill="white"/>
<path fill-rule="evenodd" clip-rule="evenodd" d="M1570.45 547.729C1511.71 527.517 1424.58 521.453 1346.04 524.027C1247.1 550.493 1042.27 576.596 884.91 564.61L493.749 701.825L-138.923 848.316L-85.9008 1033.94L941.114 807.962L1138.13 752.433L1205.92 662.028C1262.28 648.813 1318.62 635.559 1374.99 622.381C1454.97 603.687 1510.89 587.702 1570.45 547.729Z" fill="#E9F1F5"/>
<path fill-rule="evenodd" clip-rule="evenodd" d="M1362.47 523.624C1356.99 523.736 1351.49 523.851 1346.06 524.03C1247.13 550.495 1042.3 576.599 884.936 564.612L875.588 567.883C984.583 584.103 1216.95 569.992 1362.47 523.624Z" fill="#D8E1E6"/>
<path fill-rule="evenodd" clip-rule="evenodd" d="M1570.45 547.729L1567.99 546.878C1261.93 531.428 854.799 629.727 504.889 714.619L-125.97 867.657L-78.9149 1032.4L941.114 807.962L1138.13 752.433L1205.92 662.028C1262.28 648.813 1318.62 635.559 1374.99 622.381C1454.97 603.687 1510.89 587.702 1570.45 547.729Z" fill="#D8E1E6"/>
<path fill-rule="evenodd" clip-rule="evenodd" d="M1570.45 547.729L1569.82 547.511C1493.35 572.556 1407.65 595.909 1335.89 607.261C1057.98 651.274 877.005 657.122 499.12 754.816L-119.902 914.863L-85.9007 1033.94L941.114 807.962L1138.13 752.433L1205.92 662.028C1262.28 648.813 1318.62 635.559 1374.99 622.381C1454.97 603.687 1510.89 587.702 1570.45 547.729Z" fill="#ACB7C1"/>
<path fill-rule="evenodd" clip-rule="evenodd" d="M-95.4412 1000.15L-85.8034 1033.92L1127.74 766.244L1206.02 662.008L1229.5 656.483L524.876 811.522L-95.4412 1000.15Z" fill="#617180"/>
<path fill-rule="evenodd" clip-rule="evenodd" d="M1136.49 754.496L1205.92 662.04L1222.19 658.223L1222.28 658.083L524.78 811.554L-68.6013 991.991L-60.9914 1018.62L1136.49 754.496Z" fill="#ACB7C1"/>
<path fill-rule="evenodd" clip-rule="evenodd" d="M1175.26 703.041L1206.01 662.023L775.094 756.48L779.191 775.102C911.215 751.088 1032.14 743.349 1175.26 703.041Z" fill="#617180"/>
<path fill-rule="evenodd" clip-rule="evenodd" d="M-95.4866 1000.16L-85.8487 1033.93L783.362 842.214L831.424 744.071L524.83 811.531L-95.4866 1000.16Z" fill="#617180"/>
<path fill-rule="evenodd" clip-rule="evenodd" d="M331.514 739.404L71.3504 719.269L-409.674 525.546L-562.998 559.282L-382.953 824.086L-434.055 835.33L-393.401 885.056L-127.343 845.661L331.514 739.404Z" fill="#E9F1F5"/>
<path fill-rule="evenodd" clip-rule="evenodd" d="M-555.651 569.901C-495.855 657.865 -433.198 747.708 -374.254 834.427L-425.375 845.675L-387.722 891.166C-384.357 895.241 -379.313 896.639 -374.14 895.64L-129.393 847.759L283.144 750.6L62.3197 733.512L-418.708 539.769L-555.651 569.901Z" fill="#ACB7C1"/>
<path fill-rule="evenodd" clip-rule="evenodd" d="M-383.069 821.585L-374.309 834.445L-425.43 845.693L-419.165 853.27L36.8468 746.267C-66.661 756.225 -171.895 774.802 -383.069 821.585Z" fill="#D8E1E6"/>
<path fill-rule="evenodd" clip-rule="evenodd" d="M1071.8 878.489L1068.97 882.097L1101.39 907.384L1104.21 903.759L1071.8 878.489Z" fill="#353939"/>
<path fill-rule="evenodd" clip-rule="evenodd" d="M1080.93 916.656L1067.48 919.615L1044.94 817.165L1058.39 814.205L1080.93 916.656Z" fill="#353939"/>
<path fill-rule="evenodd" clip-rule="evenodd" d="M1074.67 869.696L1053.36 874.385L1052.49 870.437L1073.8 865.747L1074.67 869.696Z" fill="#505352"/>
<path fill-rule="evenodd" clip-rule="evenodd" d="M1081.39 900.212L1060.08 904.902L1056.07 886.697L1077.39 882.008L1081.39 900.212Z" fill="#505352"/>
<path fill-rule="evenodd" clip-rule="evenodd" d="M445.885 845.273L507.445 910.877L371.689 940.748L280.396 880.89L445.885 845.273Z" fill="#ACB7C1"/>
<path fill-rule="evenodd" clip-rule="evenodd" d="M432.861 848.139L494.422 913.743L358.666 943.614L267.372 883.755L432.861 848.139Z" fill="#617180"/>
<path fill-rule="evenodd" clip-rule="evenodd" d="M542.616 902.225L289.802 957.852C283.321 959.278 279.196 965.758 280.621 972.231C282.045 978.704 288.509 982.854 294.99 981.428L547.803 925.802C554.284 924.376 558.416 917.894 556.992 911.421C555.568 904.948 549.097 900.799 542.616 902.225Z" fill="#727E91"/>
<path fill-rule="evenodd" clip-rule="evenodd" d="M280.44 968.369C280.314 969.631 280.36 970.934 280.644 972.225C282.068 978.698 288.532 982.848 295.013 981.422L547.827 925.796C550.169 925.28 552.196 924.098 553.772 922.497C553.898 921.236 553.857 919.951 553.573 918.66C552.144 912.168 545.677 908.039 539.204 909.463L286.382 965.091C284.04 965.607 282.024 966.767 280.44 968.369Z" fill="#4A5362"/>
<path fill-rule="evenodd" clip-rule="evenodd" d="M329.8 936.066L282.062 946.57L294.498 956.492L342.238 945.987L329.8 936.066Z" fill="#353D4A"/>
<path fill-rule="evenodd" clip-rule="evenodd" d="M340.308 983.847L292.57 994.351L299.693 980.126L347.433 969.622L340.308 983.847Z" fill="#727E91"/>
<path fill-rule="evenodd" clip-rule="evenodd" d="M506.898 910.084L512.085 933.661L519.766 931.971L514.578 908.394L506.898 910.084Z" fill="#F58220"/>
<path fill-rule="evenodd" clip-rule="evenodd" d="M357.761 942.899L362.949 966.476L370.629 964.786L365.441 941.21L357.761 942.899Z" fill="#F58220"/>
<path fill-rule="evenodd" clip-rule="evenodd" d="M359.386 894.181L420.945 959.806L285.187 989.677L193.905 929.816L359.386 894.181Z" fill="#ACB7C1"/>
<path fill-rule="evenodd" clip-rule="evenodd" d="M346.482 897.02L408.047 962.644L272.295 992.513L180.99 932.657L346.482 897.02Z" fill="#617180"/>
<path fill-rule="evenodd" clip-rule="evenodd" d="M831.412 744.144L-6.0977 1056.35C-7.08936 1056.73 -7.97747 1056.94 -9.04241 1057.08L-182.464 1079.43C-189.371 1080.34 -195.775 1075.84 -197.274 1069.02L-212.014 1002.03L569.468 757C709.64 713.063 831.408 713.854 831.412 744.144Z" fill="#ACB7C1"/>
<path fill-rule="evenodd" clip-rule="evenodd" d="M-211.106 1001.75L-79.1267 960.369C-59.3933 954.176 -60.335 942.84 -50.9603 934.07L569.519 756.986C673.741 727.247 771.228 715.231 819.121 725.311L-8.23754 1042.31C-9.21022 1042.68 -10.1257 1042.86 -11.1674 1043.01L-184.351 1070.61C-191.235 1071.71 -197.757 1067.03 -199.161 1060.2L-211.106 1001.75Z" fill="#D8E1E6"/>
<path fill-rule="evenodd" clip-rule="evenodd" d="M456.135 951.139L203.325 1006.77C196.852 1008.19 192.702 1014.66 194.131 1021.15C195.555 1027.62 202.036 1031.75 208.509 1030.32L461.319 974.697C467.799 973.271 471.928 966.81 470.504 960.337C469.076 953.845 462.616 949.713 456.135 951.139Z" fill="#727E91"/>
<path fill-rule="evenodd" clip-rule="evenodd" d="M193.942 1017.27C193.822 1018.53 193.854 1019.85 194.138 1021.15C195.563 1027.62 202.043 1031.74 208.517 1030.32L461.327 974.695C463.669 974.179 465.7 973.016 467.269 971.417C467.403 970.153 467.361 968.869 467.077 967.578C465.648 961.086 459.189 956.955 452.7 958.383L199.892 1014.01C197.538 1014.53 195.525 1015.69 193.942 1017.27Z" fill="#4A5362"/>
<path fill-rule="evenodd" clip-rule="evenodd" d="M243.407 984.974L195.665 995.478L208.098 1005.4L255.84 994.896L243.407 984.974Z" fill="#353D4A"/>
<path fill-rule="evenodd" clip-rule="evenodd" d="M253.923 1032.75L206.181 1043.26L213.297 1029.01L261.039 1018.51L253.923 1032.75Z" fill="#727E91"/>
<path fill-rule="evenodd" clip-rule="evenodd" d="M420.525 958.975L425.708 982.533L433.391 980.842L428.207 957.285L420.525 958.975Z" fill="#F58220"/>
<path fill-rule="evenodd" clip-rule="evenodd" d="M271.246 991.821L276.429 1015.38L284.117 1013.69L278.934 990.129L271.246 991.821Z" fill="#F58220"/>
<path fill-rule="evenodd" clip-rule="evenodd" d="M1570.47 547.742C1514.68 528.551 1433.32 522.114 1358.01 523.738L1369.68 623.646L1375 622.395C1454.99 603.701 1510.9 587.716 1570.47 547.742Z" fill="#D8E1E6"/>
<path fill-rule="evenodd" clip-rule="evenodd" d="M1361.28 551.295L1369.72 623.631L1375.05 622.38C1454.96 603.702 1510.84 587.724 1570.35 547.824C1507.91 541.042 1433.59 543.444 1361.28 551.295Z" fill="#ACB7C1"/>
<path fill-rule="evenodd" clip-rule="evenodd" d="M1570.47 547.742L1569.83 547.525C1504.18 569.034 1431.71 589.258 1367.12 601.76L1369.68 623.646L1369.72 623.636L1369.9 623.576L1375 622.395C1454.99 603.701 1510.9 587.716 1570.47 547.742Z" fill="#ACB7C1"/>
<path fill-rule="evenodd" clip-rule="evenodd" d="M1570.47 547.742L1569.83 547.525C1504.18 569.034 1431.71 589.258 1367.12 601.76L1369.68 623.646L1369.72 623.636L1369.9 623.576L1375 622.395C1454.99 603.701 1510.9 587.716 1570.47 547.742Z" fill="#617180"/>
<path fill-rule="evenodd" clip-rule="evenodd" d="M369.78 961.401C367.468 961.909 365.169 960.445 364.659 958.129C364.15 955.813 365.621 953.519 367.933 953.01C370.247 952.501 372.552 953.964 373.061 956.28C373.571 958.596 372.094 960.892 369.78 961.401Z" fill="#617180"/>
<path fill-rule="evenodd" clip-rule="evenodd" d="M370.797 959.644C368.483 960.153 366.187 958.688 365.677 956.372C365.167 954.056 366.633 951.743 368.947 951.234C371.259 950.726 373.567 952.208 374.077 954.524C374.586 956.84 373.109 959.135 370.797 959.644Z" fill="#ACB7C1"/>
<path fill-rule="evenodd" clip-rule="evenodd" d="M1071.8 806.203C1069.49 806.712 1067.19 805.247 1066.68 802.931C1066.17 800.615 1067.64 798.322 1069.96 797.813C1072.28 797.302 1074.58 798.767 1075.08 801.083C1075.59 803.399 1074.12 805.692 1071.8 806.203Z" fill="#617180"/>
<path fill-rule="evenodd" clip-rule="evenodd" d="M1072.8 804.423C1070.49 804.932 1068.19 803.467 1067.68 801.151C1067.17 798.835 1068.64 796.542 1070.96 796.032C1073.28 795.522 1075.58 796.987 1076.08 799.302C1076.59 801.618 1075.12 803.912 1072.8 804.423Z" fill="#D8E1E6"/>
<path fill-rule="evenodd" clip-rule="evenodd" d="M930.326 837.333C928.012 837.843 925.716 836.378 925.206 834.062C924.697 831.746 926.166 829.452 928.48 828.943C930.792 828.434 933.099 829.897 933.608 832.213C934.118 834.529 932.639 836.825 930.326 837.333Z" fill="#617180"/>
<path fill-rule="evenodd" clip-rule="evenodd" d="M931.334 835.551C929.02 836.06 926.724 834.595 926.214 832.279C925.705 829.963 927.174 827.67 929.488 827.16C931.802 826.651 934.106 828.114 934.616 830.43C935.126 832.746 933.648 835.041 931.334 835.551Z" fill="#D8E1E6"/>
<path fill-rule="evenodd" clip-rule="evenodd" d="M278.569 981.47C276.264 981.977 273.952 980.515 273.443 978.199C272.933 975.883 274.418 973.586 276.723 973.079C279.037 972.57 281.341 974.033 281.85 976.349C282.36 978.665 280.883 980.96 278.569 981.47Z" fill="#617180"/>
<path fill-rule="evenodd" clip-rule="evenodd" d="M279.467 979.739C277.163 980.246 274.851 978.784 274.341 976.468C273.832 974.152 275.312 971.836 277.617 971.329C279.931 970.82 282.239 972.302 282.749 974.618C283.258 976.934 281.781 979.23 279.467 979.739Z" fill="#ACB7C1"/>
<path fill-rule="evenodd" clip-rule="evenodd" d="M470.436 913.305C468.124 913.814 465.821 912.33 465.316 910.033C464.806 907.718 466.273 905.404 468.585 904.895C470.899 904.386 473.208 905.869 473.718 908.185C474.223 910.482 472.75 912.796 470.436 913.305Z" fill="#617180"/>
<path fill-rule="evenodd" clip-rule="evenodd" d="M471.352 911.546C469.038 912.055 466.741 910.59 466.232 908.274C465.722 905.958 467.192 903.665 469.506 903.156C471.818 902.647 474.122 904.11 474.632 906.426C475.141 908.742 473.664 911.037 471.352 911.546Z" fill="#ACB7C1"/>
<path d="M-66.9416 959.085C24.6202 933.366 113.478 907.387 199.424 882.287C470.844 802.962 685.196 740.335 758.25 750.611L758.833 746.442C684.874 736.007 470.16 798.794 198.256 878.245C112.333 903.36 23.4713 929.32 -68.0673 955.054L-66.9416 959.085Z" fill="#E9F1F5"/>
<path d="M-208.893 1012.45C-77.6785 978.262 46.148 943.334 155.394 912.51C368.336 852.422 536.554 804.98 612.548 805.016L612.557 800.815C535.992 800.725 367.538 848.298 154.245 908.464C45.0179 939.284 -78.7706 974.203 -209.947 1008.38L-208.893 1012.45Z" fill="#E9F1F5"/>
<path d="M-205.611 1028.57C-91.6957 998.892 2.85666 973.649 78.8336 953.349C263.974 903.896 365.965 876.658 461.167 861.861L460.525 857.703C365.087 872.573 263.026 899.806 77.7416 949.291C1.78371 969.586 -92.7688 994.829 -206.665 1024.51L-205.611 1028.57Z" fill="#E9F1F5"/>
<path d="M-202.545 1044.71C50.8536 979.44 158.398 952.732 283.605 931.134L282.887 926.992C157.525 948.585 49.9326 975.344 -203.599 1040.64L-202.545 1044.71Z" fill="#E9F1F5"/>
<path d="M111.669 997.055L110.938 992.917L77.0076 998.989C-23.2174 1016.9 -64.6937 1024.32 -199.723 1058.17L-198.707 1062.24C-63.7724 1028.41 -22.3533 1021.01 77.7389 1003.13L111.669 997.055Z" fill="#E9F1F5"/>
<path d="M1093.21 707.129L985.003 731.356L985.73 734.659L1093.94 710.432C1094.28 710.357 1094.62 710.322 1094.94 710.293C1096.85 710.07 1098.63 710.614 1100 711.586L1100.01 711.605C1101.38 712.597 1102.37 714.089 1102.75 715.817L1102.82 716.2C1102.12 717.489 1101.14 719.336 1099.99 721.539C1093.63 733.665 1081.62 756.569 1075.08 758.007L994.756 775.681L995.487 779.003L1075.82 761.329C1083.88 759.555 1096.36 735.712 1102.98 723.11C1104.24 720.724 1105.27 718.746 1106.05 717.359L1106.32 716.882L1106.26 716.338C1106.21 715.912 1106.16 715.486 1106.07 715.088L1106.06 715.089C1105.5 712.527 1104.03 710.342 1101.99 708.86L1101.98 708.861C1099.97 707.394 1097.37 706.632 1094.58 706.908C1094.13 706.968 1093.65 707.033 1093.21 707.129ZM985.003 731.356L876.839 755.554L876.803 755.562L876.365 755.658L876.328 755.666C873.651 756.395 871.376 758.07 869.92 760.181C868.421 762.342 867.773 765.012 868.361 767.649L868.37 767.687L868.441 768.01L868.449 768.048L875.744 794.843C876.483 797.606 878.278 799.858 880.614 801.254C882.877 802.607 885.69 803.162 888.568 802.529L995.487 779.003L994.756 775.681L887.837 799.207L887.841 799.226C885.846 799.665 883.894 799.279 882.348 798.365C880.753 797.402 879.524 795.842 879.017 793.963L871.73 767.166L871.656 766.904C871.301 765.251 871.721 763.526 872.706 762.096C873.721 760.638 875.318 759.451 877.215 758.954L877.611 758.847L985.73 734.659L985.003 731.356Z" fill="#D8E1E6"/>
<path d="M1093.21 707.136L876.838 755.561L876.802 755.569L876.364 755.665L876.328 755.673C873.65 756.402 871.375 758.077 869.919 760.188L869.789 760.376L875.755 759.501C876.22 759.28 876.698 759.095 877.214 758.961L877.61 758.854L1093.94 710.439C1094.28 710.364 1094.62 710.329 1094.94 710.3C1096.85 710.077 1098.63 710.622 1100 711.593L1100 711.612C1101.37 712.604 1102.37 714.096 1102.75 715.824L1102.82 716.207C1102.12 717.496 1101.14 719.344 1099.99 721.546L1099.78 721.931L1104.09 720.962C1104.85 719.522 1105.51 718.301 1106.05 717.366L1106.32 716.89L1106.26 716.345C1106.21 715.919 1106.15 715.493 1106.07 715.095L1106.06 715.096C1105.49 712.534 1104.03 710.349 1101.99 708.867L1101.98 708.868C1099.97 707.401 1097.37 706.639 1094.58 706.915C1094.13 706.975 1093.65 707.04 1093.21 707.136Z" fill="#ACB7C1"/>
<path fill-rule="evenodd" clip-rule="evenodd" d="M35.9181 771.55C33.6022 772.06 31.2861 770.579 30.7765 768.263C30.267 765.947 31.7519 763.65 34.0678 763.141C36.3648 762.635 38.6765 764.097 39.186 766.413C39.6956 768.729 38.2151 771.045 35.9181 771.55Z" fill="#617180"/>
<path fill-rule="evenodd" clip-rule="evenodd" d="M36.9062 769.77C34.5903 770.279 32.2744 768.799 31.7648 766.483C31.2594 764.186 32.74 761.87 35.0559 761.361C37.3528 760.855 39.6689 762.336 40.1743 764.633C40.6839 766.948 39.2031 769.264 36.9062 769.77Z" fill="#D8E1E6"/>
<path fill-rule="evenodd" clip-rule="evenodd" d="M979.537 691.641C977.225 692.15 974.927 690.686 974.417 688.37C973.908 686.054 975.379 683.76 977.691 683.251C980.005 682.742 982.31 684.205 982.819 686.521C983.329 688.837 981.851 691.132 979.537 691.641Z" fill="#617180"/>
<path fill-rule="evenodd" clip-rule="evenodd" d="M980.569 689.888C978.257 690.396 975.96 688.931 975.45 686.615C974.941 684.3 976.411 682.006 978.723 681.497C981.037 680.988 983.341 682.451 983.85 684.767C984.36 687.083 982.883 689.378 980.569 689.888Z" fill="#D8E1E6"/>
<path fill-rule="evenodd" clip-rule="evenodd" d="M926.709 703.265C924.395 703.774 922.099 702.309 921.589 699.993C921.08 697.677 922.549 695.383 924.863 694.874C927.177 694.365 929.481 695.828 929.991 698.144C930.501 700.46 929.023 702.755 926.709 703.265Z" fill="#617180"/>
<path fill-rule="evenodd" clip-rule="evenodd" d="M927.623 701.536C925.311 702.045 923.013 700.581 922.503 698.265C921.994 695.949 923.465 693.655 925.777 693.146C928.091 692.637 930.395 694.1 930.905 696.416C931.415 698.732 929.937 701.027 927.623 701.536Z" fill="#D8E1E6"/>
<path fill-rule="evenodd" clip-rule="evenodd" d="M897.803 709.625C895.489 710.135 893.192 708.67 892.683 706.354C892.173 704.038 893.643 701.744 895.957 701.235C898.271 700.726 900.575 702.189 901.085 704.505C901.594 706.821 900.117 709.116 897.803 709.625Z" fill="#617180"/>
<path fill-rule="evenodd" clip-rule="evenodd" d="M898.811 707.878C896.497 708.387 894.2 706.922 893.691 704.606C893.181 702.29 894.651 699.997 896.965 699.488C899.279 698.978 901.583 700.442 902.093 702.757C902.602 705.073 901.125 707.369 898.811 707.878Z" fill="#D8E1E6"/>
<path fill-rule="evenodd" clip-rule="evenodd" d="M1152.05 1589.15H1422.04V1531.12H1152.05V1589.15Z" fill="#ACB7C1"/>
<path fill-rule="evenodd" clip-rule="evenodd" d="M640.742 1231.14C723.123 1091.43 978.56 1003.67 1382.42 1135.08C1347.88 1208.94 1313.35 1282.8 1278.82 1356.69C1066.12 1314.83 853.429 1273 640.742 1231.14Z" fill="#E6DBD1"/>
<path fill-rule="evenodd" clip-rule="evenodd" d="M1357.12 1161.28L1278.95 1356.69L655.453 1234C746.89 1105.38 975.793 1040.22 1357.12 1161.28Z" fill="#F9F2EC"/>
<path fill-rule="evenodd" clip-rule="evenodd" d="M1338.55 1207.47L1278.85 1356.69L677.008 1238.27C786.19 1139.67 1003.27 1101.45 1338.55 1207.47Z" fill="white"/>
<path fill-rule="evenodd" clip-rule="evenodd" d="M295.016 1346.45C380.687 1294.17 516.058 1254.35 640.882 1231.14C806.173 1238.55 1138.43 1208.63 1382.56 1135.08L2047.39 1215.79L3096.51 1227.28L3077.29 1538.57H1378.36L1048.23 1519.35L909.873 1400.24C816.367 1398.95 722.857 1397.6 629.351 1396.38C496.652 1394.65 402.876 1388.84 295.016 1346.45Z" fill="#E9F1F5"/>
<path fill-rule="evenodd" clip-rule="evenodd" d="M614.812 1236.21C623.508 1234.48 632.219 1232.76 640.842 1231.16C806.133 1238.57 1138.39 1208.64 1382.52 1135.1L1398.41 1137.01C1232.06 1200.44 860.522 1258.85 614.812 1236.21Z" fill="#D8E1E6"/>
<path fill-rule="evenodd" clip-rule="evenodd" d="M295.016 1346.45L298.611 1344.25C776.156 1213.62 1452.68 1227.37 2034.25 1239.84L3082.78 1262.29L3065.73 1538.57H1378.36L1048.23 1519.35L909.873 1400.24C816.366 1398.95 722.857 1397.6 629.351 1396.38C496.652 1394.65 402.876 1388.84 295.016 1346.45Z" fill="#D8E1E6"/>
<path fill-rule="evenodd" clip-rule="evenodd" d="M295.016 1346.45L295.948 1345.89C425.3 1358.85 568.619 1365.95 685.79 1358.95C1139.57 1331.91 1427.15 1278.31 2057.31 1301.26L3089.6 1338.88L3077.29 1538.57H1378.36L1048.23 1519.35L909.873 1400.24C816.366 1398.95 722.857 1397.6 629.351 1396.38C496.652 1394.65 402.876 1388.84 295.016 1346.45Z" fill="#ACB7C1"/>
<path fill-rule="evenodd" clip-rule="evenodd" d="M3080.61 1481.95L3077.13 1538.57L1069.42 1537.53L909.712 1400.24L870.742 1399.68L2036.36 1399.68L3080.61 1481.95Z" fill="#617180"/>
<path fill-rule="evenodd" clip-rule="evenodd" d="M1051.53 1522.04L909.877 1400.26L882.89 1399.88L882.695 1399.7L2036.53 1399.7L3035.43 1478.39L3032.67 1523.04L1051.53 1522.04Z" fill="#ACB7C1"/>
<path fill-rule="evenodd" clip-rule="evenodd" d="M972.493 1454.31L909.727 1400.26L1622.45 1399.7V1430.51C1405.8 1438.45 1212.31 1468.22 972.493 1454.31Z" fill="#617180"/>
<path fill-rule="evenodd" clip-rule="evenodd" d="M3080.69 1481.95L3077.2 1538.57L1639.17 1537.85L1529.26 1399.68H2036.44L3080.69 1481.95Z" fill="#617180"/>
<path fill-rule="evenodd" clip-rule="evenodd" d="M1196.64 1695.22L1202.36 1699.93L1159.99 1751.08L1154.29 1746.34L1196.64 1695.22Z" fill="#353939"/>
<path fill-rule="evenodd" clip-rule="evenodd" d="M1195.49 1758.61H1217.74V1589.13H1195.49V1758.61Z" fill="#353939"/>
<path fill-rule="evenodd" clip-rule="evenodd" d="M1189.06 1682.34H1224.32V1675.81H1189.06V1682.34Z" fill="#505352"/>
<path fill-rule="evenodd" clip-rule="evenodd" d="M1189.05 1732.83H1224.31V1702.71H1189.05V1732.83Z" fill="#505352"/>
<path fill-rule="evenodd" clip-rule="evenodd" d="M1529.3 1399.79L2959.16 1601.64C2960.85 1601.89 2962.33 1601.92 2964.05 1601.77L3245.45 1576.83C3256.66 1575.86 3265.2 1566.53 3265.2 1555.26V1444.44L1947.07 1329.13C1710.65 1308.47 1518.79 1351.99 1529.3 1399.79Z" fill="#ACB7C1"/>
<path fill-rule="evenodd" clip-rule="evenodd" d="M3263.67 1444.31L3041.06 1424.84C3007.77 1421.92 3005.32 1403.71 2987.49 1393.12L1946.99 1329.13C1772.21 1318.39 1614.22 1333.27 1542.16 1365.8L2957.65 1578.74C2959.32 1578.99 2960.83 1578.96 2962.52 1578.84L3245.36 1562.26C3256.6 1561.6 3265.27 1551.96 3265.11 1540.68L3263.67 1444.31Z" fill="#D8E1E6"/>
<path fill-rule="evenodd" clip-rule="evenodd" d="M295 1346.48C376.354 1296.83 502.499 1258.43 621.89 1234.84L638.169 1396.53L629.335 1396.41C496.636 1394.68 402.86 1388.87 295 1346.48Z" fill="#D8E1E6"/>
<path fill-rule="evenodd" clip-rule="evenodd" d="M626.304 1279.46L638.092 1396.52L629.259 1396.4C496.682 1394.67 402.956 1388.86 295.219 1346.56C391.375 1314.19 509.476 1292.17 626.304 1279.46Z" fill="#ACB7C1"/>
<path fill-rule="evenodd" clip-rule="evenodd" d="M295 1346.48L295.933 1345.91C406.98 1357.06 528.346 1363.81 634.611 1361.11L638.169 1396.53H638.094L637.786 1396.5L629.335 1396.41C496.636 1394.68 402.86 1388.87 295 1346.48Z" fill="#ACB7C1"/>
<path fill-rule="evenodd" clip-rule="evenodd" d="M295 1346.48L295.933 1345.91C406.98 1357.06 528.346 1363.81 634.611 1361.11L638.169 1396.53H638.094L637.786 1396.5L629.335 1396.41C496.636 1394.68 402.86 1388.87 295 1346.48Z" fill="#617180"/>
<path fill-rule="evenodd" clip-rule="evenodd" d="M1171.55 1581.16C1175.38 1581.16 1178.49 1578.06 1178.49 1574.22C1178.49 1570.39 1175.38 1567.28 1171.55 1567.28C1167.71 1567.28 1164.59 1570.39 1164.59 1574.22C1164.59 1578.06 1167.71 1581.16 1171.55 1581.16Z" fill="#617180"/>
<path fill-rule="evenodd" clip-rule="evenodd" d="M1169.35 1578.7C1173.18 1578.7 1176.3 1575.59 1176.3 1571.76C1176.3 1567.93 1173.18 1564.82 1169.35 1564.82C1165.51 1564.82 1162.4 1567.93 1162.4 1571.76C1162.4 1575.59 1165.51 1578.7 1169.35 1578.7Z" fill="#D8E1E6"/>
<path fill-rule="evenodd" clip-rule="evenodd" d="M1405.58 1581.17C1409.41 1581.17 1412.52 1578.06 1412.52 1574.23C1412.52 1570.4 1409.41 1567.29 1405.58 1567.29C1401.76 1567.29 1398.62 1570.4 1398.62 1574.23C1398.62 1578.06 1401.76 1581.17 1405.58 1581.17Z" fill="#617180"/>
<path fill-rule="evenodd" clip-rule="evenodd" d="M1403.38 1578.7C1407.21 1578.7 1410.32 1575.59 1410.32 1571.76C1410.32 1567.93 1407.21 1564.82 1403.38 1564.82C1399.55 1564.82 1396.42 1567.93 1396.42 1571.76C1396.42 1575.59 1399.55 1578.7 1403.38 1578.7Z" fill="#D8E1E6"/>
<path d="M3021.39 1427.05C2867.99 1418.25 2718.77 1408.11 2574.44 1398.34C2118.64 1367.41 1758.69 1343.01 1646.98 1384.59L1644.62 1378.22C1757.69 1336.07 2118.27 1360.6 2574.88 1391.56C2719.17 1401.36 2868.4 1411.47 3021.76 1420.29L3021.39 1427.05Z" fill="#E9F1F5"/>
<path d="M3263.89 1461.96C3044.99 1453.58 2837.48 1441.46 2654.41 1430.75C2297.56 1409.86 2015.66 1393.41 1895.77 1419.85L1894.3 1413.22C2015.07 1386.5 2297.38 1403.08 2654.82 1423.96C2837.86 1434.67 3045.3 1446.79 3264.14 1455.18L3263.89 1461.96Z" fill="#E9F1F5"/>
<path d="M1103.37 1432.27L1282.52 1432.93V1438.4L1103.37 1437.74C1102.81 1437.74 1102.25 1437.8 1101.75 1437.86C1098.65 1438.18 1096.04 1439.65 1094.21 1441.66V1441.69C1092.39 1443.74 1091.33 1446.44 1091.33 1449.29L1091.36 1449.92C1092.92 1451.71 1095.1 1454.29 1097.68 1457.36C1111.92 1474.29 1138.83 1506.26 1149.64 1506.26H1282.52V1511.75H1149.64C1136.31 1511.75 1108.33 1478.47 1093.51 1460.88C1090.7 1457.55 1088.38 1454.79 1086.66 1452.87L1086.07 1452.21L1085.97 1451.33C1085.91 1450.64 1085.85 1449.95 1085.85 1449.29H1085.86C1085.86 1445.05 1087.42 1441.1 1090.12 1438.05H1090.13C1092.81 1435.04 1096.64 1432.93 1101.14 1432.4C1101.87 1432.34 1102.65 1432.27 1103.37 1432.27ZM1282.52 1432.93L1461.59 1433.56H1461.65H1462.37H1462.43C1466.91 1433.78 1471.08 1435.63 1474.11 1438.46C1477.23 1441.35 1479.18 1445.34 1479.16 1449.7V1449.76V1450.3V1450.36L1476.96 1495.17C1476.75 1499.79 1474.7 1503.96 1471.5 1506.98C1468.4 1509.9 1464.15 1511.75 1459.39 1511.75H1282.52V1506.26H1459.39V1506.29C1462.69 1506.29 1465.64 1505 1467.76 1503.02C1469.94 1500.95 1471.34 1498.06 1471.49 1494.92L1473.68 1450.11L1473.71 1449.67C1473.69 1446.94 1472.43 1444.36 1470.38 1442.45C1468.27 1440.5 1465.34 1439.18 1462.17 1439.06L1461.51 1439.02L1282.52 1438.4V1432.93Z" fill="#D8E1E6"/>
<path d="M1103.37 1432.29L1461.59 1433.57H1461.65H1462.37H1462.43C1466.91 1433.79 1471.08 1435.65 1474.11 1438.47L1474.38 1438.72L1464.67 1439.41C1463.85 1439.23 1463.04 1439.1 1462.17 1439.07L1461.51 1439.04L1103.37 1437.75C1102.81 1437.75 1102.25 1437.81 1101.75 1437.87C1098.65 1438.19 1096.04 1439.66 1094.21 1441.67V1441.71C1092.39 1443.75 1091.33 1446.45 1091.33 1449.31L1091.36 1449.93C1092.92 1451.72 1095.1 1454.3 1097.68 1457.38L1098.14 1457.91L1091 1457.88C1089.31 1455.87 1087.84 1454.17 1086.66 1452.88L1086.07 1452.23L1085.97 1451.35C1085.91 1450.66 1085.85 1449.96 1085.85 1449.31H1085.86C1085.86 1445.07 1087.42 1441.11 1090.12 1438.06H1090.13C1092.81 1435.05 1096.64 1432.94 1101.14 1432.41C1101.87 1432.35 1102.65 1432.29 1103.37 1432.29Z" fill="#ACB7C1"/>
<path fill-rule="evenodd" clip-rule="evenodd" d="M1277.35 1368.37C1281.18 1368.37 1284.3 1365.26 1284.3 1361.43C1284.3 1357.6 1281.18 1354.49 1277.35 1354.49C1273.53 1354.49 1270.4 1357.6 1270.4 1361.43C1270.4 1365.26 1273.53 1368.37 1277.35 1368.37Z" fill="#617180"/>
<path fill-rule="evenodd" clip-rule="evenodd" d="M1275.12 1365.96C1278.94 1365.96 1282.06 1362.85 1282.06 1359.02C1282.06 1355.19 1278.94 1352.08 1275.12 1352.08C1271.29 1352.08 1268.16 1355.19 1268.16 1359.02C1268.16 1362.85 1271.29 1365.96 1275.12 1365.96Z" fill="#D8E1E6"/>
<path fill-rule="evenodd" clip-rule="evenodd" d="M1364.74 1368.37C1368.57 1368.37 1371.69 1365.26 1371.69 1361.43C1371.69 1357.6 1368.57 1354.49 1364.74 1354.49C1360.92 1354.49 1357.79 1357.6 1357.79 1361.43C1357.79 1365.26 1360.92 1368.37 1364.74 1368.37Z" fill="#617180"/>
<path fill-rule="evenodd" clip-rule="evenodd" d="M1362.71 1365.96C1366.53 1365.96 1369.65 1362.85 1369.65 1359.02C1369.65 1355.19 1366.53 1352.08 1362.71 1352.08C1358.88 1352.08 1355.75 1355.19 1355.75 1359.02C1355.75 1362.85 1358.88 1365.96 1362.71 1365.96Z" fill="#D8E1E6"/>
<path fill-rule="evenodd" clip-rule="evenodd" d="M1412.57 1368.37C1416.39 1368.37 1419.51 1365.26 1419.51 1361.43C1419.51 1357.6 1416.39 1354.49 1412.57 1354.49C1408.74 1354.49 1405.61 1357.6 1405.61 1361.43C1405.61 1365.26 1408.74 1368.37 1412.57 1368.37Z" fill="#617180"/>
<path fill-rule="evenodd" clip-rule="evenodd" d="M1410.36 1365.96C1414.19 1365.96 1417.3 1362.86 1417.3 1359.02C1417.3 1355.19 1414.19 1352.08 1410.36 1352.08C1406.53 1352.08 1403.41 1355.19 1403.41 1359.02C1403.41 1362.86 1406.53 1365.96 1410.36 1365.96Z" fill="#D8E1E6"/>
</g>
<defs>
<radialGradient id="paint0_radial_136_872" cx="0" cy="0" r="1" gradientUnits="userSpaceOnUse" gradientTransform="translate(1322.04 2164.14) rotate(151.825) scale(2868.56 2868.56)">
<stop stop-color="#D2D2D0"/>
<stop offset="1" stop-color="#B6B6BA"/>
</radialGradient>
<clipPath id="clip0_136_872">
<rect width="1920" height="2000" fill="white"/>
</clipPath>
</defs>
</svg>
