<svg width="129" height="129" viewBox="0 0 129 129" fill="none" xmlns="http://www.w3.org/2000/svg">
<path d="M4.42171 51.8135C4.45199 52.0981 4.4467 52.3748 4.42044 52.645C2.75939 59.2935 4.2024 65.7348 4.2024 72.5747C4.2024 83.3852 6.22 93.4808 13.5108 101.962C17.1806 106.231 21.9008 110.495 27.0348 112.927C31.1767 114.889 32.0736 113.444 36.2702 115.242C39.9554 116.822 43.6906 119.499 47.4792 120.652C52.1221 122.065 57.3119 123.098 62.1242 123.722C70.2423 124.775 78.8054 125.233 86.9791 125.233C89.4845 125.233 91.9982 124.954 94.3625 124.429C100.566 123.05 104.056 117.311 107.813 112.927C115.072 104.459 121.863 97.4505 123.165 86.5129C123.579 83.0312 124.505 79.627 124.993 76.1567C125.569 72.06 125.377 67.6754 125.163 63.5587C124.731 55.2574 124.478 45.5072 120.874 37.8752C117.558 30.8531 114.07 23.0602 107.813 18.1131C104.024 15.1169 100.12 11.0485 95.8002 8.78031C90.8516 6.18233 84.5914 4.39558 79.0353 3.76059C71.5207 2.90178 64.1175 3.21304 56.5927 3.27324C52.4515 3.30637 48.4272 2.89126 44.4577 4.24794L44.3667 4.27904C41.0718 5.40505 36.9853 6.80163 34.0283 8.63411C30.0604 11.0931 26.333 13.8043 22.1857 15.9931C19.4388 17.4428 16.2736 21.2454 14.2906 23.5471C11.0687 27.2868 8.71088 32.0899 6.54493 36.5022L6.49296 36.6081C5.02053 39.6075 4.2569 43.2743 4.2024 46.5988C4.17368 48.351 4.23627 50.0704 4.42171 51.8135Z" fill="white"/>
<path d="M4.42078 56.6479C3.38377 55.0924 4.61307 53.6123 4.42171 51.8135C4.23627 50.0704 4.17368 48.351 4.2024 46.5988C4.2569 43.2743 5.02053 39.6075 6.49296 36.6081C8.67319 32.1669 11.0429 27.3167 14.2906 23.5471C16.2736 21.2454 19.4388 17.4428 22.1857 15.9931C26.333 13.8043 30.0604 11.0931 34.0283 8.63411C37.0126 6.78473 41.1474 5.37931 44.4577 4.24794C48.4272 2.89126 52.4515 3.30637 56.5927 3.27324C64.1175 3.21304 71.5207 2.90178 79.0353 3.76059C84.5914 4.39558 90.8516 6.18233 95.8002 8.78031C100.12 11.0485 104.024 15.1169 107.813 18.1131C114.07 23.0602 117.558 30.8531 120.874 37.8752C124.478 45.5072 124.731 55.2574 125.163 63.5587C125.377 67.6754 125.569 72.06 124.993 76.1567C124.505 79.627 123.579 83.0312 123.165 86.5129C121.863 97.4505 115.072 104.459 107.813 112.927C104.056 117.311 100.566 123.05 94.3625 124.429C91.9982 124.954 89.4845 125.233 86.9791 125.233C78.8054 125.233 70.2423 124.775 62.1242 123.722C57.3119 123.098 52.1221 122.065 47.4792 120.652C43.6906 119.499 39.9554 116.822 36.2702 115.242C32.0736 113.444 31.1767 114.889 27.0348 112.927C21.9008 110.495 17.1806 106.231 13.5108 101.962C6.22 93.4808 4.2024 83.3852 4.2024 72.5747C4.2024 65.7336 2.75889 59.2913 4.42131 52.6416" stroke="black" stroke-width="6" stroke-linecap="round"/>
<path d="M95.8761 37.1235C95.6503 36.4581 95.3808 36.283 94.96 36.1167C94.0395 35.7752 92.4802 36.2918 92.4802 36.2918C92.4802 36.2918 37.2807 56.1476 34.1272 58.345C33.4482 58.8178 33.2207 59.0979 33.1079 59.4219C32.5627 60.9802 34.2611 61.6718 34.2611 61.6718L48.4886 66.3119C48.4886 66.3119 49.0189 66.3906 49.2079 66.2681C52.4445 64.2195 81.7719 45.6944 83.4633 45.0728C83.7302 44.994 83.9279 45.0816 83.8754 45.2654C83.1982 47.6467 57.726 70.2953 57.726 70.2953C57.726 70.2953 57.6289 70.4178 57.5677 70.5579L57.5344 70.5404L56.207 84.6618C56.207 84.6618 55.6505 88.9867 59.9739 84.6618C63.0242 81.6064 65.9755 79.05 67.4525 77.8156C72.3447 81.1949 77.6096 84.9332 79.8819 86.8855C81.0229 87.8661 81.9776 88.0236 82.7633 87.9974C84.9202 87.9186 85.5222 85.5461 85.5222 85.5461C85.5222 85.5461 95.5812 45.0378 95.9172 39.6098C95.9505 39.0758 95.996 38.7431 95.9995 38.3754C96.0056 37.8676 95.9583 37.3599 95.8761 37.1235Z" fill="black"/>
</svg>
