<svg width="128" height="129" viewBox="0 0 128 129" fill="none" xmlns="http://www.w3.org/2000/svg">
<path d="M3.80057 51.6445C3.83079 51.9286 3.82558 52.2047 3.79946 52.4744C2.13775 59.1235 3.58126 65.5653 3.58126 72.4057C3.58126 83.2163 5.59886 93.3119 12.8897 101.793C16.5594 106.062 21.2796 110.327 26.4137 112.758C30.5555 114.72 31.4524 113.275 35.649 115.073C39.3342 116.653 43.0695 119.33 46.8581 120.483C51.501 121.896 56.6908 122.929 61.503 123.553C69.6212 124.606 78.1842 125.064 86.358 125.064C88.8634 125.064 91.3771 124.785 93.7414 124.26C99.9445 122.881 103.435 117.142 107.192 112.758C114.451 104.29 121.242 97.2815 122.544 86.344C122.958 82.8622 123.883 79.458 124.371 75.9878C124.948 71.8911 124.756 67.5065 124.542 63.3897C124.11 55.0884 123.857 45.3383 120.253 37.7063C116.937 30.6841 113.449 22.8913 107.192 17.9442C103.403 14.9479 99.4993 10.8795 95.179 8.61137C90.2305 6.01338 83.9703 4.22663 78.4141 3.59164C70.8996 2.73284 63.4964 3.04409 55.9716 3.10429C51.8303 3.13742 47.8061 2.72231 43.8365 4.07899L43.7455 4.1101C40.4507 5.2361 36.3641 6.63269 33.4072 8.46516C29.4393 10.9242 25.7119 13.6353 21.5645 15.8242C18.8177 17.2739 15.6524 21.0764 13.6694 23.3781C10.4476 27.1178 8.08974 31.921 5.92379 36.3333L5.87181 36.4392C4.39939 39.4385 3.63576 43.1053 3.58126 46.4299C3.55254 48.1821 3.61513 49.9014 3.80057 51.6445Z" fill="white"/>
<path d="M3.79964 56.479C2.76263 54.9235 3.99193 53.4434 3.80057 51.6445C3.61513 49.9014 3.55254 48.1821 3.58126 46.4299C3.63576 43.1053 4.39939 39.4385 5.87181 36.4392C8.05205 31.9979 10.4218 27.1478 13.6694 23.3781C15.6524 21.0764 18.8177 17.2739 21.5645 15.8242C25.7119 13.6353 29.4393 10.9242 33.4072 8.46516C36.3914 6.61578 40.5262 5.21037 43.8365 4.07899C47.8061 2.72231 51.8303 3.13742 55.9716 3.10429C63.4964 3.04409 70.8996 2.73284 78.4141 3.59164C83.9703 4.22663 90.2305 6.01338 95.179 8.61137C99.4993 10.8795 103.403 14.9479 107.192 17.9442C113.449 22.8913 116.937 30.6841 120.253 37.7063C123.857 45.3383 124.11 55.0884 124.542 63.3897C124.756 67.5065 124.948 71.8911 124.371 75.9878C123.883 79.458 122.958 82.8622 122.544 86.344C121.242 97.2815 114.451 104.29 107.192 112.758C103.435 117.142 99.9445 122.881 93.7414 124.26C91.3771 124.785 88.8634 125.064 86.358 125.064C78.1842 125.064 69.6212 124.606 61.503 123.553C56.6908 122.929 51.501 121.896 46.8581 120.483C43.0695 119.33 39.3342 116.653 35.649 115.073C31.4524 113.275 30.5555 114.72 26.4137 112.758C21.2796 110.327 16.5594 106.062 12.8897 101.793C5.59886 93.3119 3.58126 83.2163 3.58126 72.4057C3.58126 65.5646 2.13749 59.1223 3.79991 52.4726" stroke="black" stroke-width="6" stroke-linecap="round"/>
<path d="M33.9746 62.2908L43.5125 58.118V47.3879L54.2426 53.3491L63.7805 49.1762L43.5125 37.2539L33.9746 42.0228V62.2908Z" fill="black"/>
<path d="M95.3751 42.0244L87.0294 37.8516L76.2993 43.8127L83.4527 47.3894L33.3789 70.638V82.5604L41.1284 86.1371L52.4547 81.3681L45.3012 77.1953L95.3751 54.5428V42.0244Z" fill="black"/>
<path d="M95.3781 81.3697V62.2939L86.4364 65.8706V76.6008L75.1101 71.2357L65.5723 76.6008L86.4364 86.7347L95.3781 81.3697Z" fill="black"/>
<path d="M64.9717 87.3298L59.6066 84.9453L49.4727 89.7143L64.9717 98.0599L80.4707 89.7143L71.529 84.9453L64.9717 87.3298Z" fill="black"/>
<path d="M64.9717 26.5254L49.4727 34.2749L59.0105 40.2361L64.9717 37.2555L69.7406 40.2361L80.4707 35.4671L64.9717 26.5254Z" fill="black"/>
</svg>
