<svg width="129" height="129" viewBox="0 0 129 129" fill="none" xmlns="http://www.w3.org/2000/svg">
<path d="M4.42088 51.8135C4.42098 51.8145 4.42109 51.8155 4.42119 51.8165C2.75995 58.4653 4.20157 65.7346 4.20157 72.5747C4.20157 83.3852 6.21916 93.4808 13.51 101.962C17.1797 106.231 21.8999 110.495 27.034 112.927C31.1758 114.889 32.0727 113.444 36.2693 115.242C39.9545 116.822 43.6898 119.499 47.4784 120.652C52.1213 122.065 57.3111 123.098 62.1233 123.722C70.2415 124.775 78.8045 125.233 86.9783 125.233C89.4837 125.233 91.9974 124.954 94.3617 124.429C100.565 123.05 104.055 117.311 107.813 112.927C115.071 104.459 121.862 97.4505 123.164 86.5129C123.579 83.0312 124.504 79.627 124.992 76.1567C125.568 72.06 125.376 67.6754 125.162 63.5587C124.73 55.2574 124.478 45.5072 120.874 37.8752C117.558 30.8531 114.069 23.0602 107.813 18.1131C104.023 15.1169 100.12 11.0485 95.7994 8.78031C90.8508 6.18233 84.5906 4.39558 79.0344 3.76059C71.5199 2.90178 64.1167 3.21304 56.5919 3.27324C52.4506 3.30637 48.4264 2.89126 44.4568 4.24794L44.3658 4.27904C41.071 5.40505 36.9844 6.80163 34.0275 8.63411C30.0596 11.0931 26.3322 13.8043 22.1849 15.9931C19.438 17.4428 16.2727 21.2454 14.2898 23.5471C11.0679 27.2868 8.71005 32.0899 6.5441 36.5022L6.49212 36.6081C5.0197 39.6075 4.25607 43.2743 4.20157 46.5988C4.17284 48.351 4.23544 50.0704 4.42088 51.8135Z" fill="white"/>
<path d="M4.41994 56.6479C3.38294 55.0924 4.61224 53.6123 4.42088 51.8135C4.23544 50.0704 4.17284 48.351 4.20157 46.5988C4.25607 43.2743 5.0197 39.6075 6.49212 36.6081C8.67235 32.1669 11.0421 27.3167 14.2898 23.5471C16.2727 21.2454 19.438 17.4428 22.1849 15.9931C26.3322 13.8043 30.0596 11.0931 34.0275 8.63411C37.0117 6.78473 41.1465 5.37931 44.4568 4.24794C48.4264 2.89126 52.4506 3.30637 56.5919 3.27324C64.1167 3.21304 71.5199 2.90178 79.0344 3.76059C84.5906 4.39558 90.8508 6.18233 95.7994 8.78031C100.12 11.0485 104.023 15.1169 107.813 18.1131C114.069 23.0602 117.558 30.8531 120.874 37.8752C124.478 45.5072 124.73 55.2574 125.162 63.5587C125.376 67.6754 125.568 72.06 124.992 76.1567C124.504 79.627 123.579 83.0312 123.164 86.5129C121.862 97.4505 115.071 104.459 107.813 112.927C104.055 117.311 100.565 123.05 94.3617 124.429C91.9974 124.954 89.4837 125.233 86.9783 125.233C78.8045 125.233 70.2415 124.775 62.1233 123.722C57.3111 123.098 52.1213 122.065 47.4784 120.652C43.6898 119.499 39.9545 116.822 36.2693 115.242C32.0727 113.444 31.1758 114.889 27.034 112.927C21.8999 110.495 17.1797 106.231 13.51 101.962C6.21916 93.4808 4.20157 83.3852 4.20157 72.5747C4.20157 65.7336 2.75952 58.4632 4.42194 51.8135" stroke="black" stroke-width="6" stroke-linecap="round"/>
<path d="M79.5081 93.1833L62.2163 68.0598L59.7538 64.4835L39.6886 35.3306H48.3197L64.5467 58.9072L67.009 62.4836L88.1392 93.1833H79.5081ZM91.7074 90.7293L69.9282 59.0883L67.4659 55.5098L51.8863 32.8759L50.5951 31.0002H31.4512L36.12 37.7846L56.8347 67.8825L59.2971 71.4572L75.9411 95.6401L77.2324 97.5137H96.3764L91.7074 90.7293Z" fill="black"/>
<path d="M59.7544 64.4835L62.2169 68.0598L59.2977 71.4572L36.9001 97.5137H31.377L56.8353 67.8825L59.7544 64.4835Z" fill="black"/>
<path d="M94.0738 31.0001L69.9303 59.0882L67.0111 62.4834L64.5488 58.9071L67.468 55.5097L83.8225 36.474L88.5506 31.0001H94.0738Z" fill="black"/>
</svg>
