<svg width="256" height="256" viewBox="0 0 256 256" fill="none" xmlns="http://www.w3.org/2000/svg">
<g clip-path="url(#clip0_136_1801)">
<path d="M76.8038 78.9812C65.5324 80.8025 56.8529 85.9405 48.2595 91.0642C39.4766 96.3004 30.7842 101.522 19.5075 103.173C27.0942 141.737 37.0117 175.918 44.9141 207.198C57.1705 206.931 64.3813 205.097 74.665 199.826C82.0138 196.058 87.1021 194.232 95.7484 193.414C90.0944 159.262 83.8161 121.338 76.8038 78.9812Z" fill="white"/>
<path d="M76.8002 78.9805C65.5288 80.8017 56.8494 85.9397 48.256 91.0634C39.4731 96.2996 30.7807 101.521 19.5039 103.172C20.3702 107.699 20.7982 109.861 21.6467 114.024C43.923 110.656 55.8984 93.4338 78.5421 89.5022C77.8567 85.3621 77.5087 83.2599 76.8002 78.9805Z" fill="#D51E25"/>
<path d="M80.2156 99.5863C57.781 103.609 45.9286 120.609 23.7293 123.928C24.5465 127.702 24.9518 129.518 25.7576 133.045C47.8416 129.898 59.6393 113.263 81.8209 109.283C81.1873 105.456 80.8665 103.519 80.2156 99.5863Z" fill="#D51E25"/>
<path d="M83.375 118.64C61.4822 122.476 49.6892 138.628 27.7521 141.518C28.538 144.782 28.9291 146.368 29.7111 149.48C51.4713 146.907 63.2923 131.312 84.8747 127.698C84.281 124.112 83.9813 122.302 83.375 118.64Z" fill="#D51E25"/>
<path d="M86.3269 136.495C76.1495 138.095 68.1244 142.364 60.1575 146.624C51.4848 151.262 42.8806 155.889 31.6424 157.046C32.4094 159.997 32.7928 161.448 33.5603 164.331C44.7295 163.358 53.3174 158.961 61.9658 154.554C69.8435 150.539 77.7715 146.517 87.746 145.067C87.1823 141.662 86.8988 139.95 86.3269 136.495Z" fill="#D51E25"/>
<path d="M89.1396 153.447C79.3597 154.746 71.5268 158.528 63.7353 162.303C55.1221 166.477 46.559 170.642 35.4734 171.434C36.2302 174.238 36.6111 175.634 37.3711 178.444C48.3686 177.823 56.8983 173.878 65.47 169.927C73.1725 166.377 80.9091 162.821 90.5 161.665C89.958 158.391 89.6862 156.749 89.1396 153.447Z" fill="#D51E25"/>
<path d="M91.8341 169.748C82.599 170.76 77.0139 172.723 69.2515 176.985C58.9075 182.665 51.791 184.908 39.2604 185.453C40.0131 188.253 40.3911 189.665 41.149 192.534C53.5735 192.124 60.7375 190.057 71.0777 184.567C78.7105 180.515 84.1314 178.628 93.1533 177.717C92.6262 174.533 92.3627 172.941 91.8341 169.748Z" fill="#D51E25"/>
<path d="M94.4547 185.599C85.6292 186.444 80.3736 188.282 72.8787 192.167C62.5584 197.518 55.3633 199.447 43.0319 199.76C43.7825 202.676 44.1587 204.158 44.9141 207.198C57.1705 206.931 64.3813 205.097 74.665 199.826C82.0138 196.058 87.1021 194.232 95.7484 193.414C95.2304 190.285 94.9717 188.723 94.4547 185.599Z" fill="#D51E25"/>
<path d="M75.0752 184.696C75.0752 184.696 88.6035 185.478 95.5703 192.334L94.082 183.344C94.082 183.344 84.2311 176.035 73.4215 176.48L75.0752 184.696Z" fill="#B21D23"/>
<mask id="mask0_136_1801" style="mask-type:luminance" maskUnits="userSpaceOnUse" x="74" y="78" width="22" height="122">
<path d="M95.3685 193.448C93.8537 193.598 92.4495 193.781 91.1203 194.001C92.449 193.781 93.8544 193.598 95.3685 193.448ZM76.691 78.9968C76.6893 78.9971 76.6877 78.9974 76.6861 78.9976C76.6877 78.9974 76.6888 78.9972 76.691 78.9968Z" fill="white"/>
</mask>
<g mask="url(#mask0_136_1801)">
<path d="M95.3685 193.448C93.8537 193.598 92.4495 193.781 91.1203 194.001C92.449 193.781 93.8544 193.598 95.3685 193.448ZM76.691 78.9968C76.6893 78.9971 76.6877 78.9974 76.6861 78.9976C76.6877 78.9974 76.6888 78.9972 76.691 78.9968Z" fill="url(#paint0_radial_136_1801)"/>
</g>
<path d="M66.7645 195.081C68.7191 194.247 70.7335 193.281 72.8847 192.165C77.703 189.668 81.5948 188.016 86.1059 186.93C80.4128 185.004 75.0809 184.697 75.0809 184.697L74.687 182.74C73.5277 183.293 72.3335 183.9 71.0803 184.566C69.3022 185.51 67.6191 186.352 65.9857 187.103L66.7645 195.081ZM94.0877 183.345C93.7788 181.479 93.4684 179.603 93.1558 177.716C91.5051 177.882 89.9762 178.082 88.5305 178.321C87.5686 178.48 86.6449 178.657 85.7481 178.854C90.7137 180.841 94.0877 183.345 94.0877 183.345ZM65.2055 179.107C66.5098 178.46 67.8524 177.753 69.254 176.983C75.7523 173.416 80.7238 171.459 87.5888 170.323C88.924 170.101 90.3326 169.911 91.8366 169.747C91.3941 167.074 90.9482 164.381 90.4986 161.665C89.7008 161.761 88.9158 161.874 88.1423 162.002C79.6204 163.412 72.5304 166.672 65.4686 169.927C65.0986 170.098 64.7292 170.268 64.3592 170.438L65.2055 179.107ZM63.5728 162.381C63.6267 162.355 63.6805 162.329 63.7339 162.303C71.0667 158.75 78.4361 155.191 87.4311 153.702C87.9934 153.609 88.5625 153.524 89.1382 153.448C88.6793 150.676 88.2172 147.884 87.7508 145.067C87.3996 145.118 87.0507 145.172 86.7046 145.23C77.5507 146.745 70.1086 150.412 62.7696 154.148L63.5728 162.381ZM61.9424 145.675C69.2216 141.805 76.678 138.092 85.8982 136.566C86.0419 136.542 86.1868 136.519 86.3318 136.496C85.8501 133.586 85.3648 130.655 84.8752 127.697C75.6816 129.237 68.2601 132.95 61.0865 136.904L61.9424 145.675ZM60.1957 127.777C67.1559 123.838 74.4212 120.208 83.3755 118.639C82.8638 115.548 82.347 112.426 81.8266 109.283C73.1228 110.845 66.0192 114.354 59.2643 118.233L60.1957 127.777ZM58.2861 108.213C64.8433 104.447 71.7839 101.099 80.2213 99.5858C79.6698 96.2545 79.1128 92.89 78.5517 89.5011C70.3948 90.9175 63.6238 94.0573 57.2555 97.6539L58.2861 108.213Z" fill="#D3D2D0"/>
<path d="M57.2472 97.654C63.6155 94.0574 70.3865 90.9175 78.5435 89.5011C77.9677 86.0235 77.3875 82.5186 76.8016 78.9794C76.7863 78.9819 76.7716 78.9843 76.7564 78.9869C76.7526 78.9875 76.7471 78.9884 76.7433 78.989C76.733 78.9907 76.7237 78.9923 76.7139 78.9939C76.7025 78.9958 76.6922 78.9975 76.6813 78.9993C76.6791 78.9997 76.678 78.9998 76.6764 79.0001C76.6524 79.0041 76.6285 79.008 76.6045 79.012C68.8697 80.2925 62.3124 83.1693 56.1604 86.5182L57.2472 97.654Z" fill="#AC1C22"/>
<path d="M59.2536 118.233C66.0085 114.353 73.1121 110.844 81.8159 109.283C81.2852 106.077 80.7504 102.847 80.2106 99.5855C71.7732 101.099 64.8326 104.447 58.2754 108.213L59.2536 118.233Z" fill="#AC1C22"/>
<path d="M61.0889 136.904C68.2625 132.95 75.6841 129.236 84.8776 127.697C84.3818 124.702 83.882 121.683 83.3779 118.638C74.4236 120.208 67.1583 123.837 60.1981 127.777L61.0889 136.904Z" fill="#AC1C22"/>
<path d="M62.761 154.147C70.1001 150.412 77.5421 146.745 86.696 145.23C87.0422 145.172 87.3911 145.118 87.7423 145.067C87.2733 142.234 86.7999 139.374 86.3233 136.496C86.1783 136.518 86.0334 136.542 85.8897 136.566C76.6694 138.092 69.2131 141.804 61.9338 145.675L62.761 154.147Z" fill="#AC1C22"/>
<path d="M64.3551 170.439C64.7252 170.269 65.0946 170.099 65.4646 169.928C72.5263 166.673 79.6164 163.414 88.1383 162.003C88.9118 161.875 89.6968 161.762 90.4945 161.666C90.0446 158.948 89.5915 156.211 89.1342 153.449C88.5585 153.525 87.9893 153.61 87.427 153.703C78.4321 155.192 71.0627 158.751 63.7298 162.305C63.6765 162.33 63.6227 162.356 63.5688 162.382L64.3551 170.439Z" fill="#AC1C22"/>
<path d="M65.9794 187.103C67.6128 186.352 69.296 185.51 71.0741 184.566C72.3273 183.9 73.5215 183.293 74.6808 182.739L73.421 176.481C77.9041 176.296 82.2226 177.445 85.7419 178.854C86.6387 178.656 87.5624 178.48 88.5242 178.321C89.97 178.081 91.4989 177.882 93.1496 177.716C92.7137 175.082 92.2735 172.423 91.8304 169.747C90.3264 169.911 88.9178 170.101 87.5826 170.322C80.7176 171.459 75.7461 173.416 69.2478 176.983C67.8462 177.753 66.5036 178.459 65.1993 179.107L65.9794 187.103Z" fill="#AC1C22"/>
<path d="M67.5463 203.106C69.8124 202.202 72.1469 201.118 74.6697 199.825C74.7053 199.807 74.7398 199.789 74.7755 199.772C74.7919 199.763 74.809 199.754 74.8255 199.746C74.8719 199.722 74.9182 199.698 74.9647 199.675C80.7506 196.726 85.1622 194.991 91.1083 194.006C91.111 194.006 91.1127 194.006 91.1148 194.005C91.1159 194.005 91.117 194.005 91.1176 194.005C92.4468 193.785 93.851 193.602 95.3658 193.452C95.4939 193.439 95.6233 193.427 95.7532 193.414C95.6939 193.056 95.6342 192.696 95.5748 192.336C92.9818 189.784 89.4797 188.074 86.1047 186.932C81.5935 188.018 77.7018 189.67 72.8835 192.167C70.7322 193.283 68.7178 194.249 66.7632 195.083L67.5463 203.106Z" fill="#AC1C22"/>
<mask id="mask1_136_1801" style="mask-type:luminance" maskUnits="userSpaceOnUse" x="54" y="86" width="3" height="2">
<path d="M54.6357 87.3359C55.1419 87.0525 55.6491 86.7717 56.16 86.4936L56.1556 86.4501L54.6357 87.3359Z" fill="white"/>
</mask>
<g mask="url(#mask1_136_1801)">
<path d="M54.6357 87.3359C55.1419 87.0525 55.6491 86.7717 56.16 86.4936L56.1556 86.4501L54.6357 87.3359Z" fill="url(#paint1_radial_136_1801)"/>
</g>
<path d="M52.7179 88.4554C53.8545 87.798 55.001 87.1496 56.1608 86.518L56.1588 86.4955C55.6478 86.7735 55.1407 87.0543 54.6345 87.3378L52.7179 88.4554Z" fill="#AC1C22"/>
<path d="M95.5703 192.334C95.0787 189.365 94.5829 186.37 94.082 183.344C94.082 183.344 90.708 180.84 85.7424 178.853C82.2231 177.445 77.9046 176.296 73.4215 176.48L74.6813 182.739L75.0752 184.696C75.0752 184.696 80.4071 185.004 86.1002 186.93C89.4753 188.072 92.9774 189.782 95.5703 192.334Z" fill="#91191E"/>
<path d="M205.214 59.614C182.645 63.6948 159.33 61.228 136.559 60.9338C108.018 60.5657 80.6812 63.006 54.1212 74.1537C60.9815 111.026 67.6665 147.93 75.0759 184.696C115.386 173.496 162.458 168.139 203.507 179.101C203.799 139.268 204.263 99.4367 205.214 59.614Z" fill="white"/>
<path d="M205.213 59.6149C182.645 63.6957 159.33 61.2289 136.558 60.9347C108.018 60.5666 80.6808 63.0069 54.1208 74.1546C54.8522 78.0757 55.2097 79.999 55.9115 83.7819C104.914 62.997 154.5 76.1995 205.027 67.4808C205.1 64.2771 205.137 62.7028 205.213 59.6149Z" fill="#D51E25"/>
<path d="M204.845 75.6278C154.888 83.5392 105.828 72.6347 57.632 93.083C58.309 96.7436 58.6417 98.5435 59.2984 102.095C106.779 82.1924 155.253 90.9116 204.677 84.0376C204.742 80.6232 204.776 78.9398 204.845 75.6278Z" fill="#D51E25"/>
<path d="M204.525 92.6941C155.662 98.3267 107.696 91.5874 60.928 110.856C61.5672 114.315 61.884 116.023 62.5116 119.405C108.593 100.919 156.099 105.752 204.375 101.585C204.433 97.9845 204.463 96.2046 204.525 92.6941Z" fill="#D51E25"/>
<path d="M204.231 110.689C156.564 113.24 109.516 110.243 64.0669 127.778C64.6863 131.098 64.9938 132.742 65.6088 136.014C110.383 119.488 157.137 120.764 204.099 119.993C204.15 116.234 204.176 114.372 204.231 110.689Z" fill="#D51E25"/>
<path d="M203.979 129.483C157.791 128.387 111.255 128.728 67.146 144.155C67.7598 147.396 68.067 149.009 68.6852 152.233C112.116 137.986 158.542 136.086 203.866 139.137C203.909 135.244 203.932 133.312 203.979 129.483Z" fill="#D51E25"/>
<path d="M203.76 148.941C159.365 143.894 113.011 147.311 70.2353 160.286C70.8611 163.509 71.1754 165.12 71.8118 168.357C113.882 156.652 160.317 151.823 203.667 158.881C203.703 154.88 203.721 152.891 203.76 148.941Z" fill="#D51E25"/>
<path d="M203.584 168.942C161.353 159.898 114.783 166.076 73.424 176.482C74.0759 179.747 74.4061 181.388 75.0777 184.697C115.725 175.584 162.46 168.141 203.508 179.102C203.537 175.02 203.551 172.987 203.584 168.942Z" fill="#D51E25"/>
<path d="M205.217 59.615C170.065 64.9832 136.969 56.8599 98.8655 62.6647C101.561 84.3879 104.018 105.813 106.485 127.564C138.927 122.627 171.352 122.865 204.066 122.698C204.353 101.669 204.716 80.6405 205.217 59.615Z" fill="#1F3259"/>
<path d="M197.567 62.9927C197.89 63.814 198.05 64.2253 198.369 65.0522C199.431 64.9251 199.957 64.8571 201 64.7089C200.148 65.3656 199.72 65.6903 198.86 66.3349C199.176 67.1663 199.332 67.5838 199.644 68.4231C198.805 67.9871 198.382 67.7675 197.526 67.3247C196.661 67.9617 196.226 68.2771 195.353 68.9036C195.691 67.9943 195.859 67.5403 196.197 66.636C195.332 66.1875 194.895 65.9612 194.015 65.504C195.105 65.4075 195.646 65.3542 196.719 65.2393C197.058 64.3376 197.227 63.889 197.567 62.9927Z" fill="white"/>
<path d="M181.824 64.0031C182.198 64.8599 182.385 65.2887 182.755 66.1485C183.909 66.1129 184.483 66.0923 185.622 66.0436C184.707 66.6207 184.248 66.9075 183.327 67.4794C183.695 68.3412 183.877 68.773 184.24 69.6378C183.312 69.1305 182.843 68.8747 181.901 68.3602C180.976 68.9299 180.513 69.2142 179.583 69.7808C179.925 68.8904 180.096 68.4465 180.438 67.5617C179.487 67.0419 179.007 66.7802 178.042 66.2532C179.22 66.2361 179.804 66.2249 180.966 66.1975C181.309 65.3169 181.48 64.8782 181.824 64.0031Z" fill="white"/>
<path d="M164.937 64.0052C165.357 64.9031 165.567 65.3509 165.984 66.2478C167.21 66.2618 167.82 66.2681 169.035 66.2768C168.072 66.8186 167.591 67.0913 166.625 67.636C167.039 68.5327 167.245 68.9812 167.654 69.878C166.651 69.321 166.146 69.0406 165.131 68.4772C164.163 69.0239 163.678 69.2988 162.708 69.8481C163.046 68.9487 163.217 68.4987 163.557 67.6041C162.535 67.0369 162.02 66.7518 160.986 66.1775C162.23 66.1981 162.85 66.2078 164.083 66.2246C164.425 65.3337 164.594 64.8895 164.937 64.0052Z" fill="white"/>
<path d="M147.179 63.6123C147.64 64.5493 147.869 65.0163 148.325 65.9502C149.606 65.9715 150.244 65.9822 151.516 66.0059C150.522 66.5563 150.026 66.8331 149.03 67.391C149.484 68.3231 149.71 68.7895 150.16 69.7188C149.097 69.1365 148.564 68.8434 147.491 68.2576C146.495 68.8212 145.997 69.1057 144.999 69.6785C145.331 68.7451 145.497 68.2785 145.83 67.3505C144.752 66.7622 144.21 66.4665 143.123 65.8736C144.415 65.8896 145.06 65.8991 146.345 65.9185C146.678 64.9937 146.845 64.5322 147.179 63.6123Z" fill="white"/>
<path d="M128.787 63.4349C129.283 64.4025 129.53 64.885 130.022 65.8477C131.337 65.8341 131.994 65.8299 133.305 65.8255C132.294 66.4228 131.789 66.7234 130.78 67.3333C131.269 68.2931 131.512 68.7724 131.998 69.7277C130.891 69.1493 130.335 68.8605 129.22 68.2811C128.211 68.8994 127.708 69.2104 126.701 69.8413C127.017 68.8578 127.176 68.3667 127.495 67.3867C126.376 66.8075 125.814 66.518 124.688 65.9383C126.01 65.9067 126.67 65.8937 127.988 65.8735C128.307 64.8957 128.467 64.4084 128.787 63.4349Z" fill="white"/>
<path d="M112.178 68.0466C112.697 69.0216 112.956 69.5082 113.471 70.4777C112.335 69.936 111.765 69.6652 110.622 69.1273C109.617 69.8323 109.115 70.1889 108.113 70.9106C108.409 69.865 108.558 69.3422 108.855 68.2986C107.709 67.7629 107.135 67.4963 105.984 66.9654C107.316 66.8443 107.982 66.7894 109.315 66.6874C109.613 65.6442 109.762 65.1235 110.062 64.0828C110.588 65.0678 110.852 65.5589 111.373 66.5373C112.705 66.4465 113.371 66.4057 114.701 66.3309C113.69 67.0094 113.185 67.3519 112.178 68.0466Z" fill="white"/>
<path d="M189.035 71.4194C189.374 70.516 189.544 70.0657 189.882 69.1674C190.229 70.021 190.4 70.4496 190.742 71.3084C191.842 71.232 192.388 71.1897 193.471 71.0972C192.594 71.7177 192.153 72.0266 191.269 72.6388C191.609 73.5009 191.778 73.9338 192.113 74.8009C191.236 74.3159 190.793 74.0717 189.9 73.5808C189.011 74.1882 188.565 74.4907 187.671 75.0912C188.008 74.1803 188.176 73.7257 188.514 72.8193C187.612 72.3243 187.159 72.075 186.242 71.5731C187.368 71.5186 187.926 71.4877 189.035 71.4194Z" fill="white"/>
<path d="M172.828 71.9207C173.169 71.0249 173.339 70.5783 173.681 69.688C174.074 70.573 174.27 71.0159 174.661 71.9025C175.842 71.8886 176.431 71.879 177.599 71.8574C176.667 72.4243 176.198 72.7083 175.262 73.2743C175.649 74.1615 175.843 74.6059 176.228 75.4957C175.268 74.9595 174.784 74.6895 173.812 74.148C172.872 74.7135 172.4 74.9964 171.455 75.5621C171.794 74.6577 171.964 74.2073 172.304 73.3083C171.324 72.7631 170.831 72.4885 169.839 71.9375C171.04 71.9337 171.639 71.9308 172.828 71.9207Z" fill="white"/>
<path d="M155.623 71.8797C155.959 70.9651 156.129 70.5104 156.465 69.6012C156.902 70.5193 157.12 70.977 157.553 71.8936C158.798 71.9022 159.418 71.9074 160.653 71.9149C159.681 72.4714 159.193 72.75 158.218 73.3107C158.649 74.2276 158.863 74.6854 159.29 75.6012C158.264 75.0346 157.748 74.7509 156.711 74.1799C155.734 74.7443 155.246 75.0276 154.267 75.5978C154.602 74.675 154.769 74.215 155.105 73.2966C154.062 72.7238 153.539 72.4362 152.486 71.8589C153.745 71.8668 154.372 71.8709 155.623 71.8797Z" fill="white"/>
<path d="M137.7 71.8564C138.027 70.9025 138.189 70.426 138.517 69.4763C138.99 70.4237 139.226 70.8958 139.695 71.8398C140.985 71.8322 141.629 71.8295 142.912 71.828C141.915 72.4107 141.416 72.7053 140.419 73.2982C140.886 74.2404 141.118 74.7108 141.582 75.6503C140.504 75.0781 139.965 74.7916 138.879 74.2186C137.882 74.8177 137.382 75.1202 136.386 75.7297C136.71 74.7691 136.872 74.2892 137.198 73.3327C136.107 72.7583 135.559 72.4704 134.46 71.8951C135.758 71.8748 136.407 71.868 137.7 71.8564Z" fill="white"/>
<path d="M119.305 72.4068C119.613 71.3989 119.769 70.8967 120.08 69.8916C120.585 70.8577 120.836 71.3395 121.338 72.3017C122.653 72.2378 123.308 72.2087 124.62 72.1571C123.615 72.8016 123.112 73.1287 122.109 73.7863C122.608 74.7457 122.857 75.2233 123.353 76.1787C122.24 75.6297 121.682 75.3553 120.562 74.8087C119.56 75.4751 119.059 75.813 118.06 76.4935C118.366 75.4814 118.521 74.9755 118.828 73.966C117.705 73.4205 117.142 73.149 116.012 72.6068C117.331 72.5189 117.988 72.4788 119.305 72.4068Z" fill="white"/>
<path d="M196.64 76.466C196.971 75.5303 197.137 75.0639 197.47 74.1319C197.786 74.9933 197.944 75.4252 198.257 76.2945C199.298 76.1786 199.814 76.1162 200.837 75.9832C200.001 76.6522 199.581 76.9841 198.738 77.641C199.048 78.5145 199.203 78.9531 199.51 79.8351C198.686 79.363 198.27 79.1265 197.431 78.6514C196.583 79.3012 196.158 79.6233 195.302 80.2633C195.632 79.3217 195.797 78.8521 196.127 77.9137C195.279 77.4356 194.852 77.1954 193.988 76.7127C195.057 76.6218 195.587 76.572 196.64 76.466Z" fill="white"/>
<path d="M181.17 77.4334C181.508 76.5229 181.676 76.0689 182.014 75.1641C182.382 76.0449 182.564 76.4861 182.929 77.371C184.062 77.3277 184.624 77.3028 185.743 77.2496C184.845 77.8479 184.392 78.1454 183.488 78.7391C183.849 79.6262 184.029 80.0706 184.386 80.9622C183.473 80.4411 183.014 80.1788 182.087 79.6538C181.179 80.2454 180.724 80.5405 179.81 81.1286C180.146 80.2113 180.314 79.7539 180.65 78.8409C179.716 78.3128 179.245 78.0485 178.297 77.5158C179.454 77.4871 180.028 77.4702 181.17 77.4334Z" fill="white"/>
<path d="M164.581 77.6918C164.918 76.7787 165.086 76.323 165.423 75.4143C165.836 76.3208 166.041 76.7739 166.449 77.6811C167.655 77.6739 168.255 77.6696 169.449 77.6587C168.502 78.2276 168.028 78.5125 167.077 79.0826C167.483 79.9902 167.685 80.4444 168.087 81.3532C167.101 80.8001 166.605 80.5225 165.607 79.9657C164.655 80.5378 164.178 80.8248 163.222 81.3997C163.557 80.4791 163.725 80.0195 164.061 79.1038C163.056 78.5448 162.551 78.2649 161.535 77.7022C162.759 77.6987 163.368 77.6973 164.581 77.6918Z" fill="white"/>
<path d="M147.121 77.7583C147.451 76.8194 147.618 76.3507 147.949 75.4161C148.399 76.3477 148.624 76.8138 149.07 77.7438C150.329 77.7355 150.958 77.7333 152.209 77.728C151.23 78.3055 150.74 78.5954 149.759 79.1799C150.203 80.1091 150.426 80.5739 150.867 81.5025C149.823 80.9372 149.297 80.6533 148.243 80.0868C147.262 80.676 146.772 80.9719 145.79 81.569C146.118 80.6228 146.281 80.1522 146.611 79.2112C145.552 78.6434 145.02 78.3583 143.952 77.7897C145.224 77.7749 145.857 77.7685 147.121 77.7583Z" fill="white"/>
<path d="M129.079 78.1556C129.396 77.1748 129.555 76.6849 129.874 75.7065C130.358 76.6582 130.599 77.1333 131.079 78.0805C132.373 78.0353 133.019 78.015 134.308 77.9783C133.313 78.5989 132.814 78.9114 131.819 79.543C132.297 80.4883 132.537 80.9603 133.011 81.9035C131.924 81.351 131.378 81.0756 130.283 80.5242C129.29 81.163 128.793 81.4845 127.8 82.1344C128.115 81.1483 128.272 80.6558 128.588 79.6729C127.489 79.1228 126.939 78.8488 125.833 78.3004C127.133 78.2373 127.782 78.2076 129.079 78.1556Z" fill="white"/>
<path d="M110.716 79.3975C111.013 78.3635 111.162 77.8466 111.461 76.814C111.974 77.7721 112.229 78.2506 112.738 79.2042C114.047 79.0837 114.702 79.0279 116.009 78.9244C115.013 79.6178 114.516 79.968 113.523 80.6754C114.03 81.6266 114.281 82.1011 114.785 83.0484C113.67 82.5362 113.111 82.2814 111.991 81.7752C111 82.4917 110.505 82.8532 109.518 83.5837C109.813 82.5473 109.961 82.0307 110.258 80.9956C109.134 80.4927 108.57 80.2426 107.441 79.7455C108.751 79.5975 109.406 79.5282 110.716 79.3975Z" fill="white"/>
<path d="M189.095 82.452C189.427 81.5196 189.593 81.0547 189.926 80.1267C190.266 81.012 190.435 81.4561 190.772 82.3477C191.852 82.2763 192.388 82.2384 193.452 82.1552C192.59 82.7883 192.158 83.1019 191.29 83.7265C191.624 84.622 191.789 85.0711 192.119 85.9728C191.256 85.4608 190.822 85.2033 189.945 84.6892C189.072 85.3102 188.633 85.6193 187.755 86.2334C188.085 85.2957 188.25 84.8282 188.582 83.8942C187.696 83.3775 187.25 83.1187 186.35 82.5999C187.455 82.5456 188.005 82.5161 189.095 82.452Z" fill="white"/>
<path d="M173.163 83.0149C173.498 82.0959 173.666 81.637 174.003 80.7222C174.39 81.624 174.582 82.076 174.965 82.98C176.127 82.9553 176.706 82.9417 177.856 82.9113C176.938 83.4989 176.478 83.7915 175.556 84.3776C175.937 85.2836 176.127 85.7371 176.504 86.6466C175.561 86.1026 175.085 85.8285 174.129 85.2827C173.203 85.8682 172.74 86.1608 171.81 86.7464C172.144 85.8205 172.311 85.3583 172.645 84.4366C171.682 83.8887 171.197 83.6144 170.221 83.064C171.405 83.046 171.992 83.0365 173.163 83.0149Z" fill="white"/>
<path d="M156.231 83.2139C156.562 82.2832 156.729 81.8188 157.063 80.8922C157.491 81.814 157.705 82.2741 158.13 83.1953C159.355 83.1831 159.965 83.1773 161.18 83.1657C160.223 83.7453 159.743 84.036 158.782 84.619C159.206 85.5405 159.415 86.0019 159.835 86.9245C158.825 86.3647 158.318 86.084 157.298 85.523C156.335 86.1097 155.854 86.4036 154.889 86.995C155.22 86.0566 155.385 85.5892 155.718 84.6555C154.691 84.0934 154.176 83.8118 153.141 83.2483C154.381 83.2338 154.999 83.2265 156.231 83.2139Z" fill="white"/>
<path d="M138.571 83.531C138.894 82.5687 139.056 82.0883 139.381 81.1303C139.844 82.0691 140.075 82.5381 140.535 83.4753C141.805 83.4413 142.439 83.4264 143.702 83.3985C142.719 84.0042 142.227 84.3093 141.245 84.9227C141.702 85.8586 141.93 86.3264 142.384 87.2606C141.325 86.7056 140.793 86.4285 139.726 85.8738C138.743 86.4929 138.251 86.8057 137.268 87.4338C137.589 86.4663 137.75 85.9827 138.072 85.0184C137 84.4644 136.462 84.1888 135.382 83.6361C136.66 83.5895 137.298 83.5689 138.571 83.531Z" fill="white"/>
<path d="M120.483 84.4495C120.791 83.4444 120.943 82.9416 121.253 81.9385C121.746 82.8869 121.993 83.3595 122.483 84.3045C123.777 84.215 124.423 84.1729 125.713 84.0958C124.723 84.7569 124.227 85.0907 123.238 85.7633C123.726 86.7064 123.969 87.1779 124.455 88.1188C123.361 87.5924 122.812 87.3309 121.712 86.8089C120.724 87.4892 120.231 87.8321 119.245 88.5248C119.55 87.5159 119.702 87.0119 120.008 86.0055C118.905 85.4858 118.352 85.2272 117.243 84.7118C118.54 84.6 119.188 84.5476 120.483 84.4495Z" fill="white"/>
<path d="M196.567 87.7662C196.891 86.8031 197.054 86.3225 197.38 85.3621C197.692 86.2623 197.846 86.7149 198.154 87.6236C199.176 87.5277 199.682 87.4758 200.685 87.3667C199.866 88.038 199.455 88.3717 198.628 89.0322C198.934 89.9462 199.085 90.4054 199.387 91.3285C198.579 90.8153 198.171 90.5595 197.347 90.0473C196.515 90.7012 196.095 91.0263 195.256 91.6708C195.579 90.7035 195.741 90.2215 196.065 89.2568C195.231 88.7444 194.811 88.4868 193.962 87.9736C195.013 87.8964 195.534 87.8549 196.567 87.7662Z" fill="white"/>
<path d="M181.364 88.6189C181.696 87.6854 181.861 87.2196 182.193 86.2894C182.555 87.1948 182.735 87.6471 183.092 88.5571C184.207 88.5152 184.76 88.4929 185.859 88.444C184.976 89.0544 184.533 89.3587 183.643 89.9652C183.999 90.8783 184.175 91.3356 184.527 92.2538C183.629 91.713 183.177 91.4422 182.266 90.9006C181.373 91.5048 180.925 91.8061 180.026 92.4078C180.356 91.4685 180.522 90.9998 180.852 90.0638C179.932 89.522 179.469 89.2503 178.538 88.7065C179.675 88.6749 180.241 88.6573 181.364 88.6189Z" fill="white"/>
<path d="M165.033 88.9777C165.365 88.0463 165.532 87.5814 165.866 86.6538C166.27 87.5711 166.472 88.0299 166.873 88.9494C168.06 88.9301 168.65 88.9202 169.826 88.8994C168.894 89.4867 168.426 89.7806 167.49 90.3695C167.889 91.29 168.088 91.7508 168.483 92.6736C167.513 92.1167 167.024 91.838 166.043 91.2807C165.104 91.8712 164.635 92.1664 163.693 92.7596C164.023 91.8214 164.188 91.354 164.519 90.4194C163.532 89.8621 163.034 89.5821 162.035 89.0238C163.24 89.0056 163.839 88.9964 165.033 88.9777Z" fill="white"/>
<path d="M147.854 89.286C148.181 88.3355 148.344 87.8615 148.672 86.9153C149.114 87.846 149.334 88.3117 149.773 89.2418C151.013 89.2143 151.632 89.2014 152.864 89.1769C151.899 89.7751 151.416 90.0754 150.449 90.6795C150.886 91.6093 151.103 92.075 151.537 93.0054C150.509 92.4486 149.993 92.171 148.956 91.6156C147.99 92.223 147.505 92.5293 146.537 93.1437C146.861 92.1873 147.024 91.7102 147.35 90.757C146.308 90.2025 145.784 89.9246 144.733 89.3699C145.984 89.3338 146.609 89.3166 147.854 89.286Z" fill="white"/>
<path d="M130.085 89.9893C130.4 89.0055 130.557 88.5136 130.873 87.533C131.347 88.4723 131.584 88.9415 132.055 89.8802C133.329 89.8124 133.965 89.781 135.234 89.7224C134.253 90.3597 133.762 90.6814 132.782 91.3291C133.251 92.2659 133.484 92.734 133.95 93.6697C132.88 93.1338 132.344 92.8663 131.267 92.3332C130.287 92.9865 129.797 93.316 128.818 93.9797C129.13 92.9911 129.286 92.4972 129.6 91.5114C128.52 90.9806 127.977 90.7164 126.89 90.1884C128.169 90.1035 128.809 90.0636 130.085 89.9893Z" fill="white"/>
<path d="M112.005 91.5239C112.301 90.4974 112.449 89.984 112.747 88.9584C113.248 89.8965 113.499 90.3657 113.996 91.3011C115.284 91.1617 115.927 91.0955 117.214 90.9713C116.233 91.6746 115.743 92.0297 114.764 92.7448C115.26 93.6795 115.507 94.1463 116.001 95.0786C114.904 94.5868 114.355 94.3421 113.254 93.8566C112.278 94.5797 111.79 94.9446 110.817 95.6806C111.11 94.6518 111.257 94.1381 111.552 93.1106C110.447 92.6296 109.894 92.3907 108.785 91.9171C110.073 91.7509 110.717 91.6729 112.005 91.5239Z" fill="white"/>
<path d="M189.162 93.8306C189.488 92.8745 189.65 92.3975 189.977 91.4446C190.312 92.3617 190.478 92.8219 190.809 93.7457C191.871 93.688 192.398 93.6566 193.443 93.5904C192.598 94.2281 192.172 94.5451 191.32 95.1756C191.649 96.1038 191.812 96.5689 192.137 97.5043C191.288 96.9603 190.861 96.6888 189.998 96.1461C189.14 96.7723 188.71 97.084 187.846 97.7046C188.171 96.7444 188.333 96.2657 188.658 95.3087C187.787 94.7667 187.348 94.4954 186.463 93.9535C187.55 93.9084 188.09 93.8833 189.162 93.8306Z" fill="white"/>
<path d="M173.474 94.3416C173.804 93.4028 173.97 92.9341 174.301 91.9979C174.682 92.918 174.871 93.3788 175.248 94.3024C176.393 94.2756 176.961 94.2615 178.092 94.2313C177.19 94.8315 176.736 95.1319 175.829 95.7301C176.205 96.6561 176.392 97.119 176.763 98.0484C175.835 97.4908 175.366 97.2121 174.424 96.655C173.514 97.2536 173.058 97.5534 172.142 98.1518C172.471 97.2071 172.635 96.7354 172.964 95.7944C172.016 95.2373 171.539 94.9589 170.578 94.4021C171.742 94.3788 172.322 94.3668 173.474 94.3416Z" fill="white"/>
<path d="M156.802 94.6719C157.13 93.726 157.295 93.2543 157.623 92.3123C158.045 93.2397 158.255 93.7032 158.672 94.6323C159.879 94.6076 160.48 94.5959 161.677 94.5727C160.734 95.1684 160.261 95.4676 159.314 96.0678C159.73 96.9978 159.938 97.4623 160.35 98.394C159.355 97.8344 158.855 97.5543 157.851 96.9963C156.903 97.5984 156.429 97.9012 155.478 98.5082C155.805 97.5565 155.968 97.0822 156.296 96.1336C155.286 95.5766 154.779 95.2976 153.759 94.7411C154.981 94.7116 155.59 94.6981 156.802 94.6719Z" fill="white"/>
<path d="M139.423 95.2193C139.743 94.2497 139.903 93.7658 140.225 92.7992C140.68 93.7339 140.906 94.2014 141.358 95.1355C142.609 95.0839 143.233 95.06 144.477 95.0157C143.508 95.6368 143.024 95.9492 142.054 96.5789C142.503 97.5128 142.728 97.98 143.175 98.9144C142.132 98.3695 141.609 98.097 140.558 97.5541C139.589 98.1888 139.104 98.5073 138.135 99.1498C138.452 98.1751 138.611 97.6891 138.93 96.7181C137.874 96.1775 137.344 95.9079 136.282 95.3701C137.541 95.3055 138.17 95.2752 139.423 95.2193Z" fill="white"/>
<path d="M121.601 96.3917C121.905 95.3873 122.058 94.8855 122.365 93.8835C122.849 94.8189 123.089 95.2858 123.57 96.2201C124.844 96.1127 125.481 96.0621 126.752 95.9668C125.774 96.6393 125.286 96.9784 124.311 97.6616C124.79 98.5946 125.029 99.0612 125.505 99.9928C124.429 99.4826 123.889 99.2275 122.807 98.7216C121.833 99.4113 121.347 99.7596 120.376 100.46C120.678 99.4526 120.828 98.9496 121.132 97.9447C120.046 97.4428 119.502 97.1923 118.412 96.696C119.688 96.5675 120.325 96.5067 121.601 96.3917Z" fill="white"/>
<path d="M196.509 99.4528C196.826 98.4668 196.985 97.9746 197.305 96.9906C197.611 97.9297 197.764 98.4016 198.068 99.3501C199.071 99.2813 199.568 99.245 200.553 99.1663C199.749 99.8335 199.346 100.164 198.534 100.82C198.835 101.774 198.985 102.254 199.283 103.218C198.488 102.661 198.086 102.384 197.276 101.831C196.46 102.481 196.049 102.804 195.224 103.446C195.541 102.457 195.699 101.964 196.017 100.976C195.198 100.425 194.784 100.152 193.95 99.6029C194.982 99.5473 195.494 99.5168 196.509 99.4528Z" fill="white"/>
<path d="M181.564 100.091C181.889 99.1368 182.053 98.6606 182.379 97.709C182.735 98.6394 182.912 99.1062 183.264 100.042C184.36 100.009 184.904 99.9904 185.986 99.9529C185.117 100.569 184.682 100.877 183.807 101.489C184.157 102.429 184.331 102.901 184.677 103.846C183.794 103.281 183.349 102.998 182.452 102.435C181.574 103.047 181.133 103.351 180.248 103.959C180.572 103.001 180.735 102.522 181.06 101.566C180.156 101.004 179.7 100.725 178.782 100.164C179.901 100.137 180.458 100.122 181.564 100.091Z" fill="white"/>
<path d="M165.485 100.447C165.813 99.4994 165.976 99.0261 166.304 98.0815C166.703 99.0121 166.902 99.4774 167.296 100.41C168.465 100.387 169.047 100.375 170.205 100.352C169.287 100.952 168.826 101.252 167.904 101.853C168.297 102.789 168.493 103.257 168.882 104.196C167.926 103.63 167.446 103.348 166.479 102.784C165.554 103.387 165.092 103.689 164.165 104.294C164.49 103.34 164.654 102.864 164.98 101.914C164.006 101.351 163.516 101.071 162.532 100.51C163.718 100.484 164.309 100.471 165.485 100.447Z" fill="white"/>
<path d="M148.553 100.893C148.875 99.931 149.037 99.4513 149.36 98.4934C149.795 99.4264 150.012 99.8939 150.443 100.828C151.666 100.788 152.274 100.769 153.488 100.734C152.537 101.347 152.063 101.654 151.11 102.272C151.54 103.207 151.754 103.675 152.181 104.611C151.167 104.057 150.659 103.78 149.638 103.229C148.684 103.85 148.207 104.163 147.253 104.791C147.573 103.825 147.734 103.343 148.056 102.38C147.029 101.83 146.513 101.556 145.478 101.009C146.712 100.959 147.326 100.936 148.553 100.893Z" fill="white"/>
<path d="M131.048 101.794C131.359 100.806 131.514 100.312 131.827 99.327C132.292 100.261 132.526 100.728 132.988 101.661C134.243 101.579 134.87 101.54 136.121 101.467C135.153 102.117 134.669 102.445 133.702 103.104C134.163 104.037 134.393 104.503 134.851 105.435C133.798 104.909 133.271 104.647 132.21 104.125C131.245 104.789 130.76 105.124 129.796 105.796C130.104 104.805 130.258 104.311 130.569 103.321C129.505 102.802 128.971 102.543 127.9 102.029C129.162 101.929 129.79 101.883 131.048 101.794Z" fill="white"/>
<path d="M113.245 103.516C113.537 102.494 113.684 101.984 113.978 100.963C114.47 101.888 114.715 102.351 115.204 103.275C116.472 103.124 117.106 103.052 118.372 102.915C117.405 103.625 116.922 103.982 115.958 104.702C116.445 105.626 116.688 106.087 117.173 107.009C116.094 106.53 115.553 106.292 114.47 105.819C113.508 106.546 113.028 106.912 112.07 107.649C112.359 106.626 112.504 106.115 112.795 105.094C111.709 104.626 111.165 104.395 110.076 103.935C111.343 103.76 111.977 103.676 113.245 103.516Z" fill="white"/>
<path d="M189.228 105.533C189.547 104.557 189.707 104.07 190.028 103.096C190.357 104.045 190.522 104.522 190.849 105.478C191.893 105.441 192.41 105.421 193.438 105.378C192.607 106.014 192.189 106.33 191.351 106.959C191.675 107.92 191.835 108.402 192.156 109.372C191.322 108.792 190.9 108.503 190.052 107.928C189.209 108.554 188.786 108.865 187.937 109.485C188.255 108.507 188.415 108.018 188.734 107.041C187.877 106.468 187.445 106.183 186.574 105.614C187.643 105.583 188.174 105.568 189.228 105.533Z" fill="white"/>
<path d="M173.791 105.9C174.115 104.943 174.278 104.465 174.604 103.512C174.979 104.451 175.166 104.921 175.538 105.865C176.665 105.842 177.224 105.831 178.338 105.808C177.45 106.415 177.004 106.72 176.111 107.325C176.481 108.273 176.665 108.746 177.031 109.698C176.116 109.122 175.656 108.834 174.729 108.262C173.832 108.868 173.383 109.171 172.482 109.777C172.805 108.816 172.966 108.336 173.29 107.378C172.355 106.807 171.885 106.522 170.94 105.954C172.087 105.932 172.656 105.922 173.791 105.9Z" fill="white"/>
<path d="M157.372 106.26C157.696 105.301 157.858 104.823 158.182 103.867C158.597 104.804 158.804 105.272 159.215 106.211C160.405 106.18 160.996 106.166 162.176 106.139C161.247 106.746 160.781 107.052 159.848 107.663C160.258 108.603 160.462 109.073 160.868 110.016C159.888 109.452 159.395 109.171 158.406 108.609C157.472 109.223 157.005 109.531 156.069 110.149C156.39 109.185 156.551 108.704 156.874 107.743C155.878 107.184 155.378 106.905 154.374 106.348C155.578 106.31 156.178 106.293 157.372 106.26Z" fill="white"/>
<path d="M140.249 106.941C140.565 105.964 140.722 105.477 141.039 104.503C141.487 105.438 141.71 105.905 142.156 106.841C143.387 106.778 144.002 106.748 145.228 106.693C144.273 107.327 143.796 107.646 142.841 108.286C143.284 109.222 143.505 109.69 143.945 110.628C142.917 110.086 142.401 109.816 141.366 109.279C140.411 109.924 139.933 110.248 138.978 110.9C139.291 109.919 139.448 109.429 139.762 108.451C138.723 107.916 138.2 107.65 137.154 107.12C138.394 107.044 139.014 107.008 140.249 106.941Z" fill="white"/>
<path d="M122.692 108.272C122.993 107.268 123.144 106.766 123.447 105.764C123.923 106.692 124.16 107.156 124.633 108.084C125.887 107.966 126.514 107.909 127.765 107.803C126.802 108.484 126.322 108.827 125.361 109.517C125.832 110.445 126.067 110.91 126.536 111.838C125.476 111.335 124.945 111.084 123.879 110.588C122.92 111.283 122.44 111.634 121.483 112.339C121.781 111.332 121.93 110.829 122.229 109.824C121.161 109.332 120.626 109.087 119.551 108.601C120.809 108.463 121.437 108.397 122.692 108.272Z" fill="white"/>
<path d="M196.459 111.5C196.771 110.496 196.927 109.995 197.239 108.991C197.542 109.969 197.692 110.46 197.991 111.448C198.977 111.412 199.464 111.394 200.432 111.353C199.643 112.007 199.247 112.333 198.45 112.978C198.747 113.972 198.894 114.471 199.188 115.473C198.407 114.869 198.013 114.57 197.216 113.972C196.415 114.613 196.01 114.931 195.201 115.565C195.511 114.56 195.667 114.057 195.978 113.053C195.172 112.46 194.766 112.164 193.945 111.577C194.96 111.548 195.462 111.532 196.459 111.5Z" fill="white"/>
<path d="M181.756 111.831C182.075 110.859 182.235 110.374 182.555 109.405C182.906 110.361 183.08 110.841 183.428 111.803C184.506 111.785 185.043 111.775 186.107 111.755C185.253 112.372 184.824 112.679 183.963 113.293C184.309 114.26 184.481 114.744 184.823 115.717C183.953 115.123 183.515 114.828 182.631 114.24C181.767 114.851 181.334 115.156 180.464 115.766C180.782 114.791 180.942 114.306 181.262 113.333C180.37 112.748 179.921 112.455 179.018 111.875C180.119 111.857 180.667 111.848 181.756 111.831Z" fill="white"/>
<path d="M165.928 112.095C166.249 111.132 166.411 110.651 166.734 109.692C167.127 110.637 167.322 111.11 167.712 112.059C168.864 112.037 169.437 112.027 170.577 112.007C169.673 112.614 169.22 112.919 168.313 113.528C168.699 114.479 168.893 114.955 169.278 115.911C168.336 115.332 167.862 115.043 166.909 114.469C165.999 115.079 165.543 115.384 164.63 115.996C164.949 115.03 165.11 114.547 165.431 113.582C164.471 113.01 163.989 112.725 163.019 112.157C164.188 112.13 164.77 112.118 165.928 112.095Z" fill="white"/>
<path d="M149.242 112.588C149.559 111.616 149.718 111.131 150.036 110.163C150.465 111.102 150.679 111.572 151.104 112.513C152.308 112.467 152.909 112.446 154.105 112.405C153.168 113.028 152.699 113.341 151.761 113.969C152.185 114.911 152.396 115.383 152.817 116.328C151.819 115.771 151.317 115.494 150.31 114.941C149.371 115.572 148.901 115.89 147.961 116.527C148.277 115.551 148.435 115.063 148.75 114.09C147.739 113.54 147.231 113.266 146.211 112.721C147.427 112.664 148.033 112.638 149.242 112.588Z" fill="white"/>
<path d="M131.994 113.598C132.301 112.606 132.455 112.111 132.762 111.122C133.221 112.053 133.449 112.519 133.906 113.453C135.142 113.362 135.76 113.319 136.991 113.238C136.039 113.897 135.561 114.228 134.609 114.895C135.063 115.829 135.291 116.295 135.743 117.231C134.705 116.707 134.182 116.446 133.138 115.929C132.186 116.6 131.711 116.938 130.761 117.617C131.064 116.622 131.216 116.126 131.521 115.132C130.473 114.618 129.948 114.362 128.894 113.855C130.136 113.747 130.755 113.695 131.994 113.598Z" fill="white"/>
<path d="M114.464 115.424C114.753 114.406 114.897 113.896 115.187 112.88C115.671 113.798 115.912 114.257 116.394 115.175C117.642 115.018 118.266 114.944 119.513 114.8C118.56 115.513 118.084 115.872 117.135 116.594C117.614 117.512 117.854 117.971 118.331 118.889C117.269 118.415 116.737 118.18 115.67 117.714C114.723 118.441 114.251 118.807 113.308 119.544C113.592 118.525 113.734 118.015 114.021 116.996C112.952 116.535 112.416 116.306 111.344 115.853C112.591 115.674 113.216 115.589 114.464 115.424Z" fill="white"/>
<path d="M200.915 51.1008C200.854 55.0441 204 58.2891 207.943 58.3499C211.887 58.4112 215.132 55.2645 215.193 51.3213C215.254 47.3786 212.107 44.1331 208.164 44.0723C204.221 44.0109 200.976 47.1576 200.915 51.1008Z" fill="#3F3E40"/>
<path d="M200.47 304.021L204.385 51.1038L211.005 51.2064L207.109 302.922L200.47 304.021Z" fill="#3F3E40"/>
</g>
<defs>
<radialGradient id="paint0_radial_136_1801" cx="0" cy="0" r="1" gradientUnits="userSpaceOnUse" gradientTransform="translate(125.775 172.591) rotate(170.6) scale(200.244 200.244)">
<stop stop-color="#D2D2D0"/>
<stop offset="1" stop-color="#B6B6BA"/>
</radialGradient>
<radialGradient id="paint1_radial_136_1801" cx="0" cy="0" r="1" gradientUnits="userSpaceOnUse" gradientTransform="translate(125.767 172.59) rotate(170.6) scale(200.244 200.241)">
<stop stop-color="#D2D2D0"/>
<stop offset="1" stop-color="#B6B6BA"/>
</radialGradient>
<clipPath id="clip0_136_1801">
<rect width="256" height="256" fill="white"/>
</clipPath>
</defs>
</svg>
